<svg width="16" height="16" xmlns="http://www.w3.org/2000/svg" fill="context-fill" fill-opacity="context-fill-opacity">
  <path d="M7.46892 0.488575C7.30975 0.588344 7.1819 0.730931 7.10001 0.900002L5.17001 4.81L0.86001 5.44C0.676039 5.46674 0.503163 5.54422 0.360789 5.66376C0.218416 5.7833 0.112184 5.94016 0.0540201 6.11673C-0.00414411 6.2933 -0.0119376 6.48259 0.0315151 6.66335C0.0749677 6.8441 0.167946 7.00916 0.30001 7.14L3.43001 10.19L2.69001 14.49C2.65953 14.6735 2.68081 14.8618 2.75146 15.0338C2.82211 15.2059 2.93934 15.3548 3.08997 15.4639C3.24061 15.5729 3.41867 15.6378 3.60416 15.6513C3.78965 15.6648 3.97522 15.6262 4.14001 15.54L6.70515 14.1944C6.54121 13.9026 6.40432 13.5966 6.29611 13.2803L3.67001 14.66L4.42001 10.36C4.4467 10.1984 4.43331 10.0328 4.381 9.87759C4.32869 9.72241 4.23907 9.58245 4.12001 9.47L1.00001 6.43L5.32001 5.8C5.48023 5.77594 5.63219 5.71331 5.76284 5.6175C5.89349 5.52169 5.9989 5.39558 6.07001 5.25L8.00001 1.35L9.93001 5.25C10.0011 5.39558 10.1065 5.52169 10.2372 5.6175C10.3678 5.71331 10.5198 5.77594 10.68 5.8L15 6.43L14.5137 6.89915C14.7943 7.08294 15.0592 7.29317 15.3046 7.52822L15.7 7.14C15.8321 7.00916 15.9251 6.8441 15.9685 6.66335C16.012 6.48259 16.0042 6.2933 15.946 6.11673C15.8878 5.94016 15.7816 5.7833 15.6392 5.66376C15.4969 5.54422 15.324 5.46674 15.14 5.44L10.83 4.81L8.90001 0.900002C8.81813 0.730931 8.69027 0.588344 8.5311 0.488575C8.37193 0.388807 8.18787 0.335892 8.00001 0.335892C7.81215 0.335892 7.6281 0.388807 7.46892 0.488575Z"/>
  <path d="M16 11.5C16 12.6935 15.5259 13.8381 14.682 14.682C13.8381 15.5259 12.6935 16 11.5 16C10.3065 16 9.16193 15.5259 8.31802 14.682C7.47411 13.8381 7 12.6935 7 11.5C7 10.3065 7.47411 9.16193 8.31802 8.31802C9.16193 7.47411 10.3065 7 11.5 7C12.6935 7 13.8381 7.47411 14.682 8.31802C15.5259 9.16193 16 10.3065 16 11.5ZM12 9.5C12 9.36739 11.9473 9.24021 11.8536 9.14645C11.7598 9.05268 11.6326 9 11.5 9C11.3674 9 11.2402 9.05268 11.1464 9.14645C11.0527 9.24021 11 9.36739 11 9.5V11H9.5C9.36739 11 9.24021 11.0527 9.14645 11.1464C9.05268 11.2402 9 11.3674 9 11.5C9 11.6326 9.05268 11.7598 9.14645 11.8536C9.24021 11.9473 9.36739 12 9.5 12H11V13.5C11 13.6326 11.0527 13.7598 11.1464 13.8536C11.2402 13.9473 11.3674 14 11.5 14C11.6326 14 11.7598 13.9473 11.8536 13.8536C11.9473 13.7598 12 13.6326 12 13.5V12H13.5C13.6326 12 13.7598 11.9473 13.8536 11.8536C13.9473 11.7598 14 11.6326 14 11.5C14 11.3674 13.9473 11.2402 13.8536 11.1464C13.7598 11.0527 13.6326 11 13.5 11H12V9.5Z"/>
</svg>
