<svg width="16" height="16" xmlns="http://www.w3.org/2000/svg" fill="context-fill" fill-opacity="context-fill-opacity">
  <path d="M16 11.5C16 12.6935 15.5259 13.8381 14.682 14.682C13.8381 15.5259 12.6935 16 11.5 16C10.3065 16 9.16193 15.5259 8.31802 14.682C7.47411 13.8381 7 12.6935 7 11.5C7 10.3065 7.47411 9.16193 8.31802 8.31802C9.16193 7.47411 10.3065 7 11.5 7C12.6935 7 13.8381 7.47411 14.682 8.31802C15.5259 9.16193 16 10.3065 16 11.5ZM12 9.5C12 9.36739 11.9473 9.24021 11.8536 9.14645C11.7598 9.05268 11.6326 9 11.5 9C11.3674 9 11.2402 9.05268 11.1464 9.14645C11.0527 9.24021 11 9.36739 11 9.5V11H9.5C9.36739 11 9.24021 11.0527 9.14645 11.1464C9.05268 11.2402 9 11.3674 9 11.5C9 11.6326 9.05268 11.7598 9.14645 11.8536C9.24021 11.9473 9.36739 12 9.5 12H11V13.5C11 13.6326 11.0527 13.7598 11.1464 13.8536C11.2402 13.9473 11.3674 14 11.5 14C11.6326 14 11.7598 13.9473 11.8536 13.8536C11.9473 13.7598 12 13.6326 12 13.5V12H13.5C13.6326 12 13.7598 11.9473 13.8536 11.8536C13.9473 11.7598 14 11.6326 14 11.5C14 11.3674 13.9473 11.2402 13.8536 11.1464C13.7598 11.0527 13.6326 11 13.5 11H12V9.5Z"/>
  <path d="M0.732233 1.73223C1.20107 1.26339 1.83696 1 2.5 1H5.17C5.49456 1 5.81036 1.10527 6.07 1.3L7.67 2.5H13.5C14.163 2.5 14.7989 2.76339 15.2678 3.23223C15.7366 3.70107 16 4.33696 16 5V8.26C15.952 8.21843 15.903 8.17787 15.8531 8.13835C15.7106 7.95381 15.5557 7.77756 15.3891 7.61091C15.2646 7.48639 15.1347 7.36846 15 7.25734V5C15 4.17 14.33 3.5 13.5 3.5H7.62L6.16 5.03C5.87 5.33 5.48 5.5 5.07 5.5H1V12.5C1 12.8978 1.15804 13.2794 1.43934 13.5607C1.72064 13.842 2.10218 14 2.5 14H6.60101C6.78188 14.3544 7.00156 14.69 7.25734 15H2.5C1.83696 15 1.20107 14.7366 0.732233 14.2678C0.263392 13.7989 0 13.163 0 12.5V3.5C0 2.83696 0.263392 2.20107 0.732233 1.73223ZM2.5 2C1.67 2 1 2.67 1 3.5V4.5H5.07C5.13771 4.4991 5.20454 4.48445 5.26642 4.45695C5.32831 4.42945 5.38396 4.38966 5.43 4.34L6.69 3.02L5.47 2.1C5.38 2.04 5.27 2 5.17 2H2.5Z"/>
</svg>
