<svg xmlns="http://www.w3.org/2000/svg" width="16" height="16" viewBox="0 0 16 16">
   <path
   style="fill:context-fill;fill-opacity:context-fill-opacity"
   d="M 7.4765625 0 A 0.5 0.5 0 0 0 7.1464844 0.14648438 L 0.14648438 7.1464844 A 0.50005 0.50005 0 0 0 0.14648438 7.8535156 L 7.1464844 14.853516 A 0.5 0.5 0 0 0 7.8535156 14.853516 A 0.5 0.5 0 0 0 7.8535156 14.146484 L 1.7070312 8 L 15.5 8 A 0.5 0.5 0 0 0 16 7.5 A 0.5 0.5 0 0 0 15.5 7 L 1.7070312 7 L 7.8535156 0.85351562 A 0.5 0.5 0 0 0 7.8535156 0.14648438 A 0.5 0.5 0 0 0 7.4765625 0 z " />
</svg>
