<svg xmlns="http://www.w3.org/2000/svg" width="16" height="16">
    <style>
        :root &gt; #overlayStroke:not(:target) {
            display: none;
        }
    </style>
    <path id="overlayStroke" style="fill:context-stroke;fill-opacity:context-stroke-opacity; stroke-width:0" d="M8.234 1.143a1.884 1.884 0 0 0-1.517.646 1 1 0 0 0-.008.01L4.855 4H3.486A2.507 2.507 0 0 0 .992 6.508l.016 3a1 1 0 0 0 0 .004A2.529 2.529 0 0 0 3.508 12a1 1 0 0 0 .006 0h1.252l1.947 2.232a1 1 0 0 0 .008.008c.511.572 1.328.78 2.05.52a1 1 0 0 0 .024-.01A1.897 1.897 0 0 0 10 13.016 1 1 0 0 0 10 13v-1.857c.47.084.954.024 1.31-.332l.69-.69.69.69a1.516 1.516 0 0 0 2.12.002v-.002h.002a1.516 1.516 0 0 0-.001-2.122v-.002L14.12 8l.69-.688v-.001a1.515 1.515 0 0 0 0-2.122 1.5 1.5 0 0 0-2.122 0L12 5.88l-.69-.69a1.471 1.471 0 0 0-1.119-.439c-.07.003-.121.07-.191.084V3c0-.835-.51-1.49-1.225-1.752a1 1 0 0 0-.005-.002 1.833 1.833 0 0 0-.536-.103zM7 6.11v3.887l-.422-.484a1 1 0 0 0-.002 0A1.502 1.502 0 0 0 5.446 9h-1.44l-.012-2h1.559A1.5 1.5 0 0 0 6.7 6.467L7 6.11z"/>
    <path style="fill:context-fill;fill-opacity:context-fill-opacity" d="M8.186 2.139a.882.882 0 0 0-.713.304L5.32 5H3.486c-.822 0-1.498.68-1.494 1.502l.016 3A1.514 1.514 0 0 0 3.514 11h1.705l2.248 2.574a.89.89 0 0 0 .965.244A.892.892 0 0 0 9 13V3c0-.378-.259-.7-.568-.813a.83.83 0 0 0-.246-.048zM8 3.37v9.297l-2.176-2.496A.5.5 0 0 0 5.447 10H3.514a.498.498 0 0 1-.506-.502l-.016-3A.487.487 0 0 1 3.486 6h2.067a.5.5 0 0 0 .383-.178L8 3.372zm2.227 2.379a.5.5 0 0 0-.33.146.5.5 0 0 0 0 .708L11.292 8 9.896 9.396a.5.5 0 0 0 0 .708.5.5 0 0 0 .708 0L12 8.707l1.396 1.397a.5.5 0 0 0 .708 0 .5.5 0 0 0 0-.708L12.707 8l1.397-1.396a.5.5 0 0 0 0-.708.5.5 0 0 0-.377-.146.5.5 0 0 0-.33.146L12 7.293l-1.396-1.397a.5.5 0 0 0-.377-.146z"/>
</svg>
