<svg xmlns="http://www.w3.org/2000/svg" width="16" height="16">
    <path style="fill:context-fill;fill-opacity:context-fill-opacity" d="M8.186 2.139a.882.882 0 0 0-.713.304L5.32 5H3.486c-.822 0-1.498.68-1.494 1.502l.016 3A1.514 1.514 0 0 0 3.514 11h1.705l2.248 2.574a.89.89 0 0 0 .965.244A.892.892 0 0 0 9 13V3c0-.378-.259-.7-.568-.813a.83.83 0 0 0-.246-.048zM8 3.37v9.297l-2.176-2.496A.5.5 0 0 0 5.447 10H3.514a.498.498 0 0 1-.506-.502l-.016-3A.487.487 0 0 1 3.486 6h2.067a.5.5 0 0 0 .383-.178L8 3.372zm4.467.129a.5.5 0 0 0-.328.154.5.5 0 0 0 .015.707s.238.219.52.805c.282.586.576 1.506.576 2.834s-.294 2.248-.576 2.834c-.282.586-.52.805-.52.805a.5.5 0 0 0-.015.707.5.5 0 0 0 .707.015s.387-.38.73-1.093c.343-.713.674-1.792.674-3.268 0-1.476-.33-2.555-.674-3.268-.343-.712-.73-1.093-.73-1.093a.5.5 0 0 0-.32-.139.5.5 0 0 0-.06 0zm-1.985 2a.5.5 0 0 0-.332.143.5.5 0 0 0-.007.707s.607.623.607 1.65-.607 1.65-.607 1.65a.5.5 0 0 0 .007.707.5.5 0 0 0 .707-.007s.893-.916.893-2.35c0-1.434-.893-2.35-.893-2.35a.5.5 0 0 0-.375-.15z"/>
</svg>
