<svg xmlns="http://www.w3.org/2000/svg" width="16" height="16">
    <path style="fill:context-fill;fill-opacity:context-fill-opacity" d="M8.186 2.139a.882.882 0 0 0-.713.304L5.32 5H3.486c-.822 0-1.498.68-1.494 1.502l.016 3A1.514 1.514 0 0 0 3.514 11h1.705l2.248 2.574a.89.89 0 0 0 .965.244A.892.892 0 0 0 9 13V3c0-.378-.259-.7-.568-.813a.83.83 0 0 0-.246-.048zM8 3.37v9.297l-2.176-2.496A.5.5 0 0 0 5.447 10H3.514a.498.498 0 0 1-.506-.502l-.016-3A.487.487 0 0 1 3.486 6h2.067a.5.5 0 0 0 .383-.178L8 3.372zm2.227 2.379a.5.5 0 0 0-.33.146.5.5 0 0 0 0 .708L11.292 8 9.896 9.396a.5.5 0 0 0 0 .708.5.5 0 0 0 .708 0L12 8.707l1.396 1.397a.5.5 0 0 0 .708 0 .5.5 0 0 0 0-.708L12.707 8l1.397-1.396a.5.5 0 0 0 0-.708.5.5 0 0 0-.377-.146.5.5 0 0 0-.33.146L12 7.293l-1.396-1.397a.5.5 0 0 0-.377-.146z"/>
</svg>
