<svg width="16" height="16" xmlns="http://www.w3.org/2000/svg" fill="context-fill" fill-opacity="context-fill-opacity">
  <path d="m 16,8 c 0,4.4183 -3.5817,8 -8,8 C 3.58172,16 0,12.4183 0,8 0,3.58172 3.58172,0 8,0 c 4.4183,0 8,3.58172 8,8 z M 15,8 C 15,6.24696 14.3556,4.64442 13.2907,3.41636 L 3.41636,13.2907 C 4.64442,14.3556 6.24696,15 8,15 c 3.866,0 7,-3.134 7,-7 z M 2.70925,12.5836 12.5836,2.70925 C 11.3556,1.6444 9.753,1 8,1 4.13401,1 1,4.13401 1,8 c 0,1.753 0.6444,3.3556 1.70925,4.5836 z"/>
</svg>
