<svg fill="context-fill" fill-opacity="context-fill-opacity" viewBox="0 0 1278 36" xmlns="http://www.w3.org/2000/svg">
    <path d="M3.5 12a.499.499 0 0 0-.354.854L8.312 18l-5.166 5.147a.498.498 0 0 0 0 .707.5.5 0 0 0 .708 0l5.484-5.465a.55.55 0 0 0 0-.78l-5.484-5.464A.496.496 0 0 0 3.5 12zm6 0a.499.499 0 0 0-.354.854L14.312 18l-5.166 5.147a.498.498 0 0 0 0 .707.5.5 0 0 0 .708 0l5.484-5.465a.55.55 0 0 0 0-.78l-5.484-5.464A.496.496 0 0 0 9.5 12zM21.5 12a.499.499 0 0 0-.354.854L26.312 18l-5.166 5.147a.498.498 0 0 0 0 .707.5.5 0 0 0 .708 0l5.484-5.465a.55.55 0 0 0 0-.78l-5.484-5.464A.496.496 0 0 0 21.5 12zm6 0a.499.499 0 0 0-.354.854L32.312 18l-5.166 5.147a.498.498 0 0 0 0 .707.5.5 0 0 0 .708 0l5.484-5.465a.55.55 0 0 0 0-.78l-5.484-5.464A.496.496 0 0 0 27.5 12zM39.59 11.915a.499.499 0 0 0-.366.848l5.088 5.223-5.242 5.069a.498.498 0 0 0-.01.707.5.5 0 0 0 .707.01l5.565-5.382a.55.55 0 0 0 .012-.78l-5.403-5.545a.496.496 0 0 0-.351-.15zm6 .09a.499.499 0 0 0-.367.848l5.089 5.223-5.243 5.068a.498.498 0 0 0-.01.707.5.5 0 0 0 .707.011l5.565-5.382a.55.55 0 0 0 .012-.78l-5.402-5.546a.496.496 0 0 0-.352-.15zM58.061 11.509a.499.499 0 0 0-.429.818l4.685 5.589-5.606 4.663a.498.498 0 0 0-.064.704.5.5 0 0 0 .704.064l5.952-4.952a.55.55 0 0 0 .07-.776L58.4 11.685a.496.496 0 0 0-.339-.176zm5.976.537a.499.499 0 0 0-.429.819l4.685 5.588-5.607 4.663a.498.498 0 0 0-.063.705.5.5 0 0 0 .704.063l5.952-4.952a.55.55 0 0 0 .07-.776l-4.973-5.934a.496.496 0 0 0-.34-.176zM76.347 11.29a.499.499 0 0 0-.464.8l4.438 5.786-5.804 4.415a.498.498 0 0 0-.093.7.5.5 0 0 0 .7.095l6.161-4.69a.55.55 0 0 0 .104-.772l-4.71-6.144a.496.496 0 0 0-.332-.19zm5.947.796a.499.499 0 0 0-.464.8l4.438 5.786-5.804 4.415a.498.498 0 0 0-.094.701.5.5 0 0 0 .701.094l6.161-4.689a.55.55 0 0 0 .104-.772l-4.71-6.145a.496.496 0 0 0-.332-.19zM94.934 10.875a.499.499 0 0 0-.534.754l3.898 6.163-6.178 3.874a.498.498 0 0 0-.157.69.5.5 0 0 0 .69.156l6.558-4.114a.55.55 0 0 0 .173-.76l-4.137-6.544a.496.496 0 0 0-.313-.219zm5.85 1.33a.499.499 0 0 0-.533.753l3.898 6.163-6.178 3.874a.498.498 0 0 0-.157.69.5.5 0 0 0 .69.156l6.558-4.114a.55.55 0 0 0 .173-.76l-4.138-6.544a.496.496 0 0 0-.312-.219zM113.67 10.65a.499.499 0 0 0-.604.7l3.289 6.508-6.52 3.264a.498.498 0 0 0-.223.67.5.5 0 0 0 .671.223l6.923-3.466a.55.55 0 0 0 .245-.74l-3.49-6.91a.496.496 0 0 0-.291-.249zm5.697 1.884a.499.499 0 0 0-.604.7l3.288 6.508-6.52 3.264a.498.498 0 0 0-.222.671.5.5 0 0 0 .67.222l6.924-3.466a.55.55 0 0 0 .245-.74l-3.491-6.91a.496.496 0 0 0-.29-.249zM132.18 10.296a.499.499 0 0 0-.656.65l2.775 6.744-6.754 2.75a.498.498 0 0 0-.273.651.5.5 0 0 0 .652.273l7.17-2.92a.55.55 0 0 0 .302-.718l-2.945-7.16a.496.496 0 0 0-.27-.27zm5.534 2.32a.499.499 0 0 0-.657.65l2.775 6.744-6.754 2.749a.498.498 0 0 0-.273.652.5.5 0 0 0 .652.273l7.171-2.92a.55.55 0 0 0 .301-.718l-2.945-7.16a.496.496 0 0 0-.27-.27zM151.04 10.158a.499.499 0 0 0-.722.576l2.035 7.003-7.01 2.008a.498.498 0 0 0-.342.62.5.5 0 0 0 .62.34l7.442-2.132a.55.55 0 0 0 .377-.683l-2.16-7.435a.496.496 0 0 0-.24-.297zm5.253 2.9a.499.499 0 0 0-.722.576l2.035 7.003-7.01 2.008a.498.498 0 0 0-.342.62.5.5 0 0 0 .619.34l7.442-2.132a.55.55 0 0 0 .377-.683l-2.16-7.435a.496.496 0 0 0-.24-.297zM170 9.93a.499.499 0 0 0-.782.492l1.231 7.187-7.192 1.204a.498.498 0 0 0-.41.577.5.5 0 0 0 .577.41l7.636-1.28a.55.55 0 0 0 .451-.636l-1.306-7.63A.496.496 0 0 0 170 9.93zm4.892 3.475a.499.499 0 0 0-.783.491l1.232 7.187-7.192 1.205a.498.498 0 0 0-.41.576.5.5 0 0 0 .577.41l7.636-1.28a.55.55 0 0 0 .451-.635l-1.307-7.632a.496.496 0 0 0-.204-.322zM188.96 9.742a.499.499 0 0 0-.835.396l.38 7.282-7.284.352a.498.498 0 0 0-.474.524.5.5 0 0 0 .524.474l7.733-.374a.55.55 0 0 0 .523-.578l-.402-7.732a.495.495 0 0 0-.165-.344zm4.45 4.024a.499.499 0 0 0-.835.396l.38 7.282-7.284.352a.498.498 0 0 0-.474.525.5.5 0 0 0 .524.474l7.733-.374a.55.55 0 0 0 .523-.578l-.402-7.732a.495.495 0 0 0-.165-.345zM207.73 9.974a.499.499 0 0 0-.869.314l-.321 7.285-7.284-.349a.498.498 0 0 0-.522.477.5.5 0 0 0 .476.522l7.734.37a.55.55 0 0 0 .576-.526l.341-7.734a.496.496 0 0 0-.131-.359zm4.043 4.433a.499.499 0 0 0-.869.314l-.32 7.285-7.284-.349a.498.498 0 0 0-.523.477.5.5 0 0 0 .477.522l7.733.37a.55.55 0 0 0 .576-.526l.342-7.734a.496.496 0 0 0-.132-.359zM226.88 10.056a.499.499 0 0 0-.904.19l-1.328 7.17-7.165-1.355a.498.498 0 0 0-.584.4.5.5 0 0 0 .4.583l7.607 1.438a.55.55 0 0 0 .643-.44l1.411-7.613a.496.496 0 0 0-.08-.373zm3.39 4.95a.499.499 0 0 0-.904.191l-1.329 7.17-7.165-1.355a.498.498 0 0 0-.583.4.5.5 0 0 0 .4.583l7.607 1.438a.55.55 0 0 0 .643-.44l1.411-7.613a.496.496 0 0 0-.08-.373zM245.64 10.318a.499.499 0 0 0-.917.108l-1.97 7.021-7.013-1.995a.498.498 0 0 0-.617.345.5.5 0 0 0 .345.617l7.447 2.118a.55.55 0 0 0 .68-.38l2.092-7.455a.496.496 0 0 0-.047-.379zm2.93 5.236a.499.499 0 0 0-.918.108l-1.969 7.022-7.013-1.996a.498.498 0 0 0-.617.345.5.5 0 0 0 .345.617l7.447 2.118a.55.55 0 0 0 .68-.38l2.091-7.455a.496.496 0 0 0-.046-.379zM264.31 10.571a.499.499 0 0 0-.924.025l-2.597 6.814-6.804-2.623a.498.498 0 0 0-.645.288.5.5 0 0 0 .288.645l7.224 2.784a.55.55 0 0 0 .712-.317l2.758-7.234a.496.496 0 0 0-.012-.382zm2.443 5.48a.499.499 0 0 0-.924.025l-2.597 6.814-6.804-2.623a.498.498 0 0 0-.645.288.5.5 0 0 0 .288.645l7.224 2.784a.55.55 0 0 0 .712-.317l2.758-7.234a.496.496 0 0 0-.012-.382zM283.05 10.954a.499.499 0 0 0-.921-.066l-3.254 6.526-6.514-3.279a.498.498 0 0 0-.67.223.5.5 0 0 0 .222.671l6.916 3.48a.55.55 0 0 0 .74-.246l3.455-6.928a.496.496 0 0 0 .026-.38zm1.893 5.694a.499.499 0 0 0-.922-.067l-3.254 6.526-6.513-3.278a.498.498 0 0 0-.67.223.5.5 0 0 0 .222.67l6.916 3.48a.55.55 0 0 0 .74-.245l3.455-6.928a.496.496 0 0 0 .026-.381zM393 12.5a.499.499 0 0 0-.854-.354L387 17.312l-5.147-5.166a.498.498 0 0 0-.707 0 .5.5 0 0 0 0 .708l5.465 5.484a.55.55 0 0 0 .78 0l5.464-5.484A.496.496 0 0 0 393 12.5zm0 6a.499.499 0 0 0-.854-.354L387 23.312l-5.147-5.166a.498.498 0 0 0-.707 0 .5.5 0 0 0 0 .708l5.465 5.484a.55.55 0 0 0 .78 0l5.464-5.484A.496.496 0 0 0 393 18.5zM301.63 11.421a.499.499 0 0 0-.911-.151l-3.844 6.197-6.182-3.868a.498.498 0 0 0-.689.16.5.5 0 0 0 .16.689l6.564 4.105a.55.55 0 0 0 .76-.176l4.081-6.579a.495.495 0 0 0 .061-.377zm1.358 5.844a.499.499 0 0 0-.911-.15l-3.844 6.196-6.182-3.867a.498.498 0 0 0-.69.16.5.5 0 0 0 .161.688l6.564 4.106a.55.55 0 0 0 .76-.177l4.081-6.579a.495.495 0 0 0 .06-.377zM320.14 11.638a.499.499 0 0 0-.897-.221l-4.312 5.88-5.864-4.335a.498.498 0 0 0-.7.106.5.5 0 0 0 .107.7l6.226 4.6a.55.55 0 0 0 .77-.116l4.58-6.243a.496.496 0 0 0 .09-.371zm.9 5.932a.499.499 0 0 0-.896-.221l-4.313 5.88-5.864-4.335a.498.498 0 0 0-.699.106.5.5 0 0 0 .107.7l6.226 4.6a.55.55 0 0 0 .77-.116l4.58-6.243a.495.495 0 0 0 .09-.371zM338.58 12.019a.499.499 0 0 0-.881-.278l-4.676 5.596-5.578-4.696a.498.498 0 0 0-.704.061.5.5 0 0 0 .062.705l5.923 4.986a.55.55 0 0 0 .776-.068l4.965-5.941a.496.496 0 0 0 .113-.365zm.524 5.977a.499.499 0 0 0-.88-.277l-4.676 5.595-5.579-4.696a.498.498 0 0 0-.704.062.5.5 0 0 0 .062.704l5.923 4.986a.55.55 0 0 0 .776-.068l4.965-5.941a.496.496 0 0 0 .113-.365zM374.93 12.427a.499.499 0 0 0-.858-.343l-5.083 5.228-5.209-5.103a.498.498 0 0 0-.707.009.5.5 0 0 0 .01.707l5.53 5.417a.55.55 0 0 0 .78-.01l5.397-5.55a.496.496 0 0 0 .14-.355zm.073 6a.499.499 0 0 0-.858-.344l-5.083 5.229-5.209-5.103a.498.498 0 0 0-.707.008.5.5 0 0 0 .01.707l5.53 5.418a.55.55 0 0 0 .78-.01l5.397-5.55a.496.496 0 0 0 .14-.355zM356.77 12.27a.5.5 0 0 0-.867-.32l-4.942 5.362-5.343-4.962a.498.498 0 0 0-.706.027.5.5 0 0 0 .028.707l5.673 5.268a.55.55 0 0 0 .779-.03l5.248-5.693a.496.496 0 0 0 .13-.36zm.233 5.995a.5.5 0 0 0-.867-.32l-4.942 5.362-5.343-4.962a.498.498 0 0 0-.706.028.5.5 0 0 0 .028.706l5.673 5.268a.55.55 0 0 0 .779-.03l5.248-5.693a.496.496 0 0 0 .13-.359zM411 12.652a.499.499 0 0 0-.854-.354L405 17.464l-5.147-5.166a.498.498 0 0 0-.707 0 .5.5 0 0 0 0 .708l5.465 5.484a.55.55 0 0 0 .78 0l5.464-5.484a.496.496 0 0 0 .145-.354zm0 6a.499.499 0 0 0-.854-.354L405 23.464l-5.147-5.166a.498.498 0 0 0-.707 0 .5.5 0 0 0 0 .708l5.465 5.484a.55.55 0 0 0 .78 0l5.464-5.484a.496.496 0 0 0 .145-.354zM429 12.879a.499.499 0 0 0-.854-.354L423 17.691l-5.147-5.166a.498.498 0 0 0-.707 0 .5.5 0 0 0 0 .708l5.465 5.484a.55.55 0 0 0 .78 0l5.464-5.484a.496.496 0 0 0 .145-.354zm0 6a.499.499 0 0 0-.854-.354L423 23.691l-5.147-5.166a.498.498 0 0 0-.707 0 .5.5 0 0 0 0 .708l5.465 5.484a.55.55 0 0 0 .78 0l5.464-5.484a.496.496 0 0 0 .145-.354zM447 13.221a.499.499 0 0 0-.854-.354L441 18.033l-5.147-5.166a.498.498 0 0 0-.707 0 .5.5 0 0 0 0 .708l5.465 5.484a.55.55 0 0 0 .78 0l5.464-5.484a.496.496 0 0 0 .145-.354zm0 6a.499.499 0 0 0-.854-.354L441 24.033l-5.147-5.166a.498.498 0 0 0-.707 0 .5.5 0 0 0 0 .708l5.465 5.484a.55.55 0 0 0 .78 0l5.464-5.484a.496.496 0 0 0 .145-.354zM465 13.486a.499.499 0 0 0-.854-.354L459 18.298l-5.147-5.166a.498.498 0 0 0-.707 0 .5.5 0 0 0 0 .708l5.465 5.484a.55.55 0 0 0 .78 0l5.464-5.484a.496.496 0 0 0 .145-.354zm0 6a.499.499 0 0 0-.854-.354L459 24.298l-5.147-5.166a.498.498 0 0 0-.707 0 .5.5 0 0 0 0 .708l5.465 5.484a.55.55 0 0 0 .78 0l5.464-5.484a.496.496 0 0 0 .145-.354zM483 13.79a.499.499 0 0 0-.854-.354L477 18.602l-5.147-5.166a.498.498 0 0 0-.707 0 .5.5 0 0 0 0 .708l5.465 5.484a.55.55 0 0 0 .78 0l5.464-5.484a.496.496 0 0 0 .145-.354zm0 6a.499.499 0 0 0-.854-.354L477 24.602l-5.147-5.166a.498.498 0 0 0-.707 0 .5.5 0 0 0 0 .708l5.465 5.484a.55.55 0 0 0 .78 0l5.464-5.484a.496.496 0 0 0 .145-.354zM501 14.169a.499.499 0 0 0-.854-.354L495 18.981l-5.147-5.166a.498.498 0 0 0-.707 0 .5.5 0 0 0 0 .708l5.465 5.484a.55.55 0 0 0 .78 0l5.464-5.484a.496.496 0 0 0 .145-.354zm0 6a.499.499 0 0 0-.854-.354L495 24.981l-5.147-5.166a.498.498 0 0 0-.707 0 .5.5 0 0 0 0 .708l5.465 5.484a.55.55 0 0 0 .78 0l5.464-5.484a.496.496 0 0 0 .145-.354zM519 14.51a.499.499 0 0 0-.854-.354L513 19.322l-5.147-5.166a.498.498 0 0 0-.707 0 .5.5 0 0 0 0 .708l5.465 5.484a.55.55 0 0 0 .78 0l5.464-5.484a.496.496 0 0 0 .145-.354zm0 6a.499.499 0 0 0-.854-.354L513 25.322l-5.147-5.166a.498.498 0 0 0-.707 0 .5.5 0 0 0 0 .708l5.465 5.484a.55.55 0 0 0 .78 0l5.464-5.484a.496.496 0 0 0 .145-.354zM537.27 14.544a.481.481 0 0 0-.153-.35.542.542 0 0 0-.738 0l-5.374 5.119-5.375-5.12a.535.535 0 0 0-.369-.144.535.535 0 0 0-.369.145.478.478 0 0 0 0 .7l5.707 5.435c.224.213.589.213.813 0l5.707-5.435a.479.479 0 0 0 .15-.35zm0 5.945a.481.481 0 0 0-.153-.35.542.542 0 0 0-.738 0l-5.374 5.12-5.375-5.12a.535.535 0 0 0-.369-.145.535.535 0 0 0-.369.145.478.478 0 0 0 0 .7l5.707 5.435c.224.214.589.214.813 0l5.707-5.434a.479.479 0 0 0 .15-.35zM555.42 14.625a.485.485 0 0 0-.157-.355.56.56 0 0 0-.756 0l-5.504 5.182-5.504-5.182a.552.552 0 0 0-.379-.147.552.552 0 0 0-.378.147.48.48 0 0 0 0 .71l5.845 5.5c.23.217.604.217.834 0l5.844-5.5a.482.482 0 0 0 .155-.355zm0 6.018a.485.485 0 0 0-.157-.354.56.56 0 0 0-.756 0l-5.504 5.181-5.504-5.181c-.105-.098-.242-.147-.379-.147s-.273.049-.378.147a.48.48 0 0 0 0 .709l5.845 5.5c.23.217.604.217.834 0l5.844-5.5a.482.482 0 0 0 .155-.355zM573.49 14.973a.476.476 0 0 0-.159-.351.576.576 0 0 0-.765 0l-5.569 5.134-5.57-5.134a.565.565 0 0 0-.382-.146.565.565 0 0 0-.383.146.469.469 0 0 0 0 .702l5.914 5.451c.233.215.611.215.844 0l5.914-5.45a.473.473 0 0 0 .156-.352zm0 5.964a.476.476 0 0 0-.159-.352.576.576 0 0 0-.765 0l-5.569 5.135-5.57-5.135a.565.565 0 0 0-.382-.145.565.565 0 0 0-.383.145.469.469 0 0 0 0 .703l5.914 5.451c.233.214.611.214.844 0l5.914-5.451a.473.473 0 0 0 .156-.351zM591.7 15.527a.463.463 0 0 0-.164-.348.613.613 0 0 0-.79 0l-5.748 5.087-5.749-5.087a.597.597 0 0 0-.395-.144.597.597 0 0 0-.395.144.452.452 0 0 0 0 .696l6.105 5.401c.24.213.63.213.87 0l6.105-5.4a.46.46 0 0 0 .161-.349zm0 5.909a.463.463 0 0 0-.164-.348.613.613 0 0 0-.79 0l-5.748 5.087-5.749-5.087c-.109-.096-.252-.144-.395-.144s-.285.048-.395.144a.452.452 0 0 0 0 .696l6.105 5.401c.24.213.63.213.87 0l6.105-5.4a.46.46 0 0 0 .161-.349zM609.81 15.91a.467.467 0 0 0-.166-.351.626.626 0 0 0-.803 0L603 20.693l-5.842-5.134a.61.61 0 0 0-.401-.146.61.61 0 0 0-.401.146.454.454 0 0 0 0 .702l6.203 5.451c.244.215.64.215.885 0l6.203-5.45a.463.463 0 0 0 .164-.352zm0 5.964a.466.466 0 0 0-.166-.352.626.626 0 0 0-.803 0L603 26.657l-5.842-5.135a.61.61 0 0 0-.401-.145.61.61 0 0 0-.401.145.454.454 0 0 0 0 .703l6.203 5.451c.244.214.64.214.885 0l6.203-5.451a.463.463 0 0 0 .164-.351zM627.97 16.388a.455.455 0 0 0-.17-.347.659.659 0 0 0-.822 0l-5.983 5.076-5.982-5.076a.638.638 0 0 0-.411-.144.638.638 0 0 0-.411.144.44.44 0 0 0 0 .694l6.352 5.39c.25.211.656.211.906 0l6.353-5.39a.452.452 0 0 0 .168-.347zm0 5.895a.455.455 0 0 0-.17-.347.659.659 0 0 0-.822 0l-5.983 5.076-5.982-5.076a.638.638 0 0 0-.411-.144.637.637 0 0 0-.411.144.44.44 0 0 0 0 .695l6.352 5.389c.25.211.656.211.906 0l6.353-5.39a.452.452 0 0 0 .168-.347zM646.12 16.63a.453.453 0 0 0-.174-.348.682.682 0 0 0-.838 0l-6.105 5.086-6.104-5.086a.658.658 0 0 0-.42-.144.658.658 0 0 0-.418.144.436.436 0 0 0 0 .696l6.481 5.4a.75.75 0 0 0 .925 0l6.482-5.4a.45.45 0 0 0 .171-.348zm0 5.907a.453.453 0 0 0-.174-.348.682.682 0 0 0-.838 0l-6.105 5.087-6.104-5.087a.658.658 0 0 0-.42-.144.658.658 0 0 0-.418.144.436.436 0 0 0 0 .696l6.481 5.4a.75.75 0 0 0 .925 0l6.482-5.4a.45.45 0 0 0 .171-.348zM664.2 16.096a.451.451 0 0 0-.176-.348.696.696 0 0 0-.848 0l-6.173 5.087-6.174-5.087a.67.67 0 0 0-.424-.144.67.67 0 0 0-.424.144c-.235.192-.234.504 0 .696l6.555 5.401a.765.765 0 0 0 .935 0l6.556-5.4a.448.448 0 0 0 .173-.349zm0 5.909a.451.451 0 0 0-.176-.348.696.696 0 0 0-.848 0l-6.173 5.087-6.174-5.087a.67.67 0 0 0-.424-.144.67.67 0 0 0-.424.144c-.235.192-.234.503 0 .696l6.555 5.401a.765.765 0 0 0 .935 0l6.556-5.4a.448.448 0 0 0 .173-.349zM682.38 15.118a.449.449 0 0 0-.18-.349.726.726 0 0 0-.87 0l-6.33 5.1-6.328-5.1a.697.697 0 0 0-.435-.145.697.697 0 0 0-.435.145c-.24.192-.24.505 0 .698l6.72 5.415a.799.799 0 0 0 .96 0l6.72-5.415a.445.445 0 0 0 .178-.349zm0 5.924a.449.449 0 0 0-.18-.35.726.726 0 0 0-.87 0L675 25.794l-6.328-5.1a.697.697 0 0 0-.435-.145.697.697 0 0 0-.435.145c-.24.192-.24.505 0 .698l6.72 5.414a.799.799 0 0 0 .96 0l6.72-5.414a.445.445 0 0 0 .178-.35zM700.41 13.928a.45.45 0 0 0-.18-.35.73.73 0 0 0-.874 0l-6.357 5.122-6.357-5.123a.7.7 0 0 0-.437-.145.7.7 0 0 0-.436.145c-.242.194-.241.508 0 .702l6.75 5.438a.802.802 0 0 0 .962 0l6.75-5.438a.447.447 0 0 0 .179-.351zm0 5.95a.45.45 0 0 0-.18-.351.73.73 0 0 0-.874 0l-6.357 5.122-6.357-5.122a.7.7 0 0 0-.437-.145.7.7 0 0 0-.436.145c-.242.193-.241.507 0 .701l6.75 5.438a.802.802 0 0 0 .962 0l6.75-5.438a.447.447 0 0 0 .179-.35zM718.48 12.92c0-.125-.06-.25-.183-.346a.75.75 0 0 0-.88 0l-6.414 5.051-6.413-5.05a.717.717 0 0 0-.44-.144.717.717 0 0 0-.441.143c-.244.19-.243.5 0 .692l6.81 5.362c.268.21.703.21.971 0l6.81-5.362a.438.438 0 0 0 .18-.346zm0 5.866c0-.125-.06-.25-.183-.346a.75.75 0 0 0-.88 0l-6.414 5.051-6.413-5.05a.717.717 0 0 0-.44-.144.717.717 0 0 0-.441.143c-.244.19-.243.5 0 .692l6.81 5.362c.268.21.703.21.971 0l6.81-5.362a.438.438 0 0 0 .18-.346zM736.45 12.5a.455.455 0 0 0-.182-.354.73.73 0 0 0-.878 0l-6.388 5.166-6.389-5.166a.702.702 0 0 0-.439-.146.702.702 0 0 0-.439.146c-.242.195-.242.512 0 .708l6.784 5.484c.267.216.7.216.968 0l6.784-5.484a.452.452 0 0 0 .179-.354zm0 6a.455.455 0 0 0-.182-.354.73.73 0 0 0-.878 0l-6.388 5.166-6.389-5.166a.702.702 0 0 0-.439-.146.702.702 0 0 0-.439.146c-.242.195-.242.512 0 .708l6.784 5.484c.267.216.7.216.968 0l6.784-5.484a.452.452 0 0 0 .179-.354zM754.29 12.5a.458.458 0 0 0-.178-.354.703.703 0 0 0-.859 0l-6.25 5.166-6.251-5.166c-.118-.097-.274-.146-.43-.146s-.31.049-.429.146c-.237.195-.236.512 0 .708l6.638 5.484a.773.773 0 0 0 .946 0l6.637-5.484a.455.455 0 0 0 .176-.354zm0 6a.458.458 0 0 0-.178-.354.703.703 0 0 0-.859 0l-6.25 5.166-6.251-5.166c-.118-.097-.274-.146-.43-.146s-.31.049-.429.146c-.237.195-.236.512 0 .708l6.638 5.484a.773.773 0 0 0 .946 0l6.637-5.484a.455.455 0 0 0 .176-.354zM772.07 12.5a.463.463 0 0 0-.173-.354.666.666 0 0 0-.833 0l-6.067 5.166-6.066-5.166c-.115-.097-.266-.146-.417-.146s-.301.049-.417.146a.448.448 0 0 0 0 .708l6.442 5.484a.733.733 0 0 0 .919 0l6.442-5.484a.46.46 0 0 0 .17-.354zm0 6a.463.463 0 0 0-.173-.354.666.666 0 0 0-.833 0l-6.067 5.166-6.066-5.166c-.115-.097-.266-.146-.417-.146s-.301.049-.417.146a.448.448 0 0 0 0 .708l6.442 5.484a.733.733 0 0 0 .919 0l6.442-5.484a.46.46 0 0 0 .17-.354zM789.91 12.5a.468.468 0 0 0-.169-.354.64.64 0 0 0-.814 0l-5.929 5.166-5.928-5.166c-.113-.097-.26-.146-.408-.146s-.294.049-.407.146a.455.455 0 0 0 0 .708l6.295 5.484c.248.216.65.216.898 0l6.296-5.484a.464.464 0 0 0 .166-.354zm0 6a.468.468 0 0 0-.169-.354.64.64 0 0 0-.814 0l-5.929 5.166-5.928-5.166c-.113-.097-.26-.146-.408-.146s-.294.049-.407.146a.455.455 0 0 0 0 .708l6.295 5.484c.248.216.65.216.898 0l6.296-5.484a.464.464 0 0 0 .166-.354zM807.68 12.5a.474.474 0 0 0-.163-.354.603.603 0 0 0-.788 0l-5.732 5.166-5.732-5.166c-.108-.097-.251-.146-.394-.146s-.284.049-.393.146a.465.465 0 0 0 0 .708l6.086 5.484c.24.216.629.216.868 0l6.087-5.484a.471.471 0 0 0 .16-.354zm0 6a.474.474 0 0 0-.163-.354.603.603 0 0 0-.788 0l-5.732 5.166-5.732-5.166c-.108-.097-.251-.146-.394-.146s-.284.049-.393.146a.465.465 0 0 0 0 .708l6.086 5.484c.24.216.629.216.868 0l6.087-5.484a.471.471 0 0 0 .16-.354zM825.38 12.5a.484.484 0 0 0-.156-.354.555.555 0 0 0-.75 0l-5.47 5.166-5.468-5.166c-.104-.097-.24-.146-.376-.146s-.271.049-.375.146a.48.48 0 0 0 0 .708l5.807 5.484a.61.61 0 0 0 .828 0l5.806-5.484a.481.481 0 0 0 .154-.354zm0 6a.484.484 0 0 0-.156-.354.555.555 0 0 0-.75 0l-5.47 5.166-5.468-5.166c-.104-.097-.24-.146-.376-.146s-.271.049-.375.146a.48.48 0 0 0 0 .708l5.807 5.484a.61.61 0 0 0 .828 0l5.806-5.484a.481.481 0 0 0 .154-.354zM843.32 12.5a.486.486 0 0 0-.154-.354.547.547 0 0 0-.745 0l-5.423 5.166-5.422-5.166a.54.54 0 0 0-.373-.146.54.54 0 0 0-.372.146.482.482 0 0 0 0 .708l5.758 5.484a.602.602 0 0 0 .82 0l5.759-5.484a.483.483 0 0 0 .152-.354zm0 6a.486.486 0 0 0-.154-.354.547.547 0 0 0-.745 0l-5.423 5.166-5.422-5.166a.54.54 0 0 0-.373-.146.54.54 0 0 0-.372.146.482.482 0 0 0 0 .708l5.758 5.484a.602.602 0 0 0 .82 0l5.759-5.484a.483.483 0 0 0 .152-.354zM861.16 12.5a.492.492 0 0 0-.15-.354.523.523 0 0 0-.726 0l-5.285 5.166-5.284-5.166a.519.519 0 0 0-.726 0 .49.49 0 0 0 0 .708l5.611 5.484c.22.216.58.216.8 0l5.612-5.484a.49.49 0 0 0 .148-.354zm0 6a.492.492 0 0 0-.15-.354.523.523 0 0 0-.726 0l-5.285 5.166-5.284-5.166a.519.519 0 0 0-.726 0 .49.49 0 0 0 0 .708l5.611 5.484c.22.216.58.216.8 0l5.612-5.484a.49.49 0 0 0 .148-.354zM879 12.5a.499.499 0 0 0-.854-.354L873 17.312l-5.147-5.166a.498.498 0 0 0-.707 0 .5.5 0 0 0 0 .708l5.465 5.484a.55.55 0 0 0 .78 0l5.464-5.484A.496.496 0 0 0 879 12.5zm0 6a.499.499 0 0 0-.854-.354L873 23.312l-5.147-5.166a.498.498 0 0 0-.707 0 .5.5 0 0 0 0 .708l5.465 5.484a.55.55 0 0 0 .78 0l5.464-5.484A.496.496 0 0 0 879 18.5zM897 12.5a.499.499 0 0 0-.854-.354L891 17.312l-5.147-5.166a.498.498 0 0 0-.707 0 .5.5 0 0 0 0 .708l5.465 5.484a.55.55 0 0 0 .78 0l5.464-5.484A.496.496 0 0 0 897 12.5zm0 6a.499.499 0 0 0-.854-.354L891 23.312l-5.147-5.166a.498.498 0 0 0-.707 0 .5.5 0 0 0 0 .708l5.465 5.484a.55.55 0 0 0 .78 0l5.464-5.484A.496.496 0 0 0 897 18.5zM915 12.5a.499.499 0 0 0-.854-.354L909 17.312l-5.147-5.166a.498.498 0 0 0-.707 0 .5.5 0 0 0 0 .708l5.465 5.484a.55.55 0 0 0 .78 0l5.464-5.484A.496.496 0 0 0 915 12.5zm0 6a.499.499 0 0 0-.854-.354L909 23.312l-5.147-5.166a.498.498 0 0 0-.707 0 .5.5 0 0 0 0 .708l5.465 5.484a.55.55 0 0 0 .78 0l5.464-5.484A.496.496 0 0 0 915 18.5zM933 12.5a.499.499 0 0 0-.854-.354L927 17.312l-5.147-5.166a.498.498 0 0 0-.707 0 .5.5 0 0 0 0 .708l5.465 5.484a.55.55 0 0 0 .78 0l5.464-5.484A.496.496 0 0 0 933 12.5zm0 6a.499.499 0 0 0-.854-.354L927 23.312l-5.147-5.166a.498.498 0 0 0-.707 0 .5.5 0 0 0 0 .708l5.465 5.484a.55.55 0 0 0 .78 0l5.464-5.484A.496.496 0 0 0 933 18.5zM951 12.5a.499.499 0 0 0-.854-.354L945 17.312l-5.147-5.166a.498.498 0 0 0-.707 0 .5.5 0 0 0 0 .708l5.465 5.484a.55.55 0 0 0 .78 0l5.464-5.484A.496.496 0 0 0 951 12.5zm0 6a.499.499 0 0 0-.854-.354L945 23.312l-5.147-5.166a.498.498 0 0 0-.707 0 .5.5 0 0 0 0 .708l5.465 5.484a.55.55 0 0 0 .78 0l5.464-5.484A.496.496 0 0 0 951 18.5zM969 12.5a.499.499 0 0 0-.854-.354L963 17.312l-5.147-5.166a.498.498 0 0 0-.707 0 .5.5 0 0 0 0 .708l5.465 5.484a.55.55 0 0 0 .78 0l5.464-5.484A.496.496 0 0 0 969 12.5zm0 6a.499.499 0 0 0-.854-.354L963 23.312l-5.147-5.166a.498.498 0 0 0-.707 0 .5.5 0 0 0 0 .708l5.465 5.484a.55.55 0 0 0 .78 0l5.464-5.484A.496.496 0 0 0 969 18.5zM987 12.5a.499.499 0 0 0-.854-.354L981 17.312l-5.147-5.166a.498.498 0 0 0-.707 0 .5.5 0 0 0 0 .708l5.465 5.484a.55.55 0 0 0 .78 0l5.464-5.484A.496.496 0 0 0 987 12.5zm0 6a.499.499 0 0 0-.854-.354L981 23.312l-5.147-5.166a.498.498 0 0 0-.707 0 .5.5 0 0 0 0 .708l5.465 5.484a.55.55 0 0 0 .78 0l5.464-5.484A.496.496 0 0 0 987 18.5zM1005 12.5a.5.5 0 0 0-.854-.354L999 17.312l-5.146-5.166a.498.498 0 0 0-.708 0 .5.5 0 0 0 0 .708l5.465 5.484a.55.55 0 0 0 .78 0l5.464-5.484a.498.498 0 0 0 .145-.354zm0 6a.5.5 0 0 0-.854-.354L999 23.312l-5.146-5.166a.498.498 0 0 0-.708 0 .5.5 0 0 0 0 .708l5.465 5.484a.55.55 0 0 0 .78 0l5.464-5.484a.498.498 0 0 0 .145-.354zM1023 12.5a.5.5 0 0 0-.854-.354L1017 17.312l-5.146-5.166a.5.5 0 1 0-.708.708l5.465 5.484a.55.55 0 0 0 .78 0l5.464-5.484a.498.498 0 0 0 .145-.354zm0 6a.5.5 0 0 0-.854-.354L1017 23.312l-5.146-5.166a.5.5 0 1 0-.708.708l5.465 5.484a.55.55 0 0 0 .78 0l5.464-5.484a.498.498 0 0 0 .145-.354zM1041 12.5a.5.5 0 0 0-.854-.354L1035 17.312l-5.147-5.166a.498.498 0 0 0-.707 0 .5.5 0 0 0 0 .708l5.465 5.484a.55.55 0 0 0 .78 0l5.464-5.484a.498.498 0 0 0 .145-.354zm0 6a.5.5 0 0 0-.854-.354L1035 23.312l-5.147-5.166a.498.498 0 0 0-.707 0 .5.5 0 0 0 0 .708l5.465 5.484a.55.55 0 0 0 .78 0l5.464-5.484a.498.498 0 0 0 .145-.354zM1059 12.5a.5.5 0 0 0-.854-.354L1053 17.312l-5.147-5.166a.498.498 0 0 0-.707 0 .5.5 0 0 0 0 .708l5.465 5.484a.55.55 0 0 0 .78 0l5.464-5.484a.498.498 0 0 0 .145-.354zm0 6a.5.5 0 0 0-.854-.354L1053 23.312l-5.147-5.166a.498.498 0 0 0-.707 0 .5.5 0 0 0 0 .708l5.465 5.484a.55.55 0 0 0 .78 0l5.464-5.484a.498.498 0 0 0 .145-.354zM1077 12.5a.5.5 0 0 0-.854-.354L1071 17.312l-5.147-5.166a.498.498 0 0 0-.707 0 .5.5 0 0 0 0 .708l5.465 5.484a.55.55 0 0 0 .78 0l5.464-5.484a.498.498 0 0 0 .145-.354zm0 6a.5.5 0 0 0-.854-.354L1071 23.312l-5.147-5.166a.498.498 0 0 0-.707 0 .5.5 0 0 0 0 .708l5.465 5.484a.55.55 0 0 0 .78 0l5.464-5.484a.498.498 0 0 0 .145-.354zM1095 12.5a.5.5 0 0 0-.854-.354L1089 17.312l-5.147-5.166a.498.498 0 0 0-.707 0 .5.5 0 0 0 0 .708l5.465 5.484a.55.55 0 0 0 .78 0l5.464-5.484a.498.498 0 0 0 .145-.354zm0 6a.5.5 0 0 0-.854-.354L1089 23.312l-5.147-5.166a.498.498 0 0 0-.707 0 .5.5 0 0 0 0 .708l5.465 5.484a.55.55 0 0 0 .78 0l5.464-5.484a.498.498 0 0 0 .145-.354zM1281.5 12a.5.5 0 0 0-.353.854l5.166 5.146-5.167 5.146a.497.497 0 0 0 0 .708.5.5 0 0 0 .708 0l5.484-5.465a.55.55 0 0 0 0-.78l-5.484-5.464a.499.499 0 0 0-.354-.145zm6 0a.5.5 0 0 0-.353.854l5.166 5.146-5.167 5.146a.497.497 0 0 0 0 .708.5.5 0 0 0 .708 0l5.484-5.465a.55.55 0 0 0 0-.78l-5.484-5.464a.499.499 0 0 0-.354-.145zM1112.7 12.241a.5.5 0 0 0-.868-.316l-4.914 5.388-5.37-4.934a.498.498 0 0 0-.706.031.5.5 0 0 0 .031.706l5.702 5.239a.55.55 0 0 0 .778-.035l5.218-5.72a.496.496 0 0 0 .129-.359zm.264 5.994a.5.5 0 0 0-.868-.316l-4.914 5.388-5.369-4.934a.498.498 0 0 0-.706.031.5.5 0 0 0 .03.706l5.702 5.239a.55.55 0 0 0 .778-.034l5.218-5.72a.497.497 0 0 0 .13-.36zM1130 11.544a.5.5 0 0 0-.901-.203l-4.19 5.969-5.952-4.212a.498.498 0 0 0-.697.12.5.5 0 0 0 .12.698l6.321 4.47a.55.55 0 0 0 .768-.132l4.449-6.337a.496.496 0 0 0 .082-.373zm1.024 5.912a.5.5 0 0 0-.901-.203l-4.19 5.969-5.952-4.212a.498.498 0 0 0-.697.12.5.5 0 0 0 .12.698l6.321 4.47a.55.55 0 0 0 .768-.132l4.449-6.337a.497.497 0 0 0 .082-.373zM1146.9 10.742a.5.5 0 0 0-.922-.052l-3.154 6.575-6.563-3.178a.497.497 0 0 0-.667.233.5.5 0 0 0 .233.668l6.969 3.373a.55.55 0 0 0 .735-.257l3.349-6.98a.502.502 0 0 0 .02-.382zm1.98 5.664a.5.5 0 0 0-.922-.052l-3.154 6.575-6.563-3.178a.497.497 0 0 0-.667.233.5.5 0 0 0 .233.667l6.969 3.374a.55.55 0 0 0 .735-.257l3.35-6.98a.502.502 0 0 0 .02-.382zM1163.1 10.115a.5.5 0 0 0-.91.157l-1.59 7.117-7.11-1.616a.497.497 0 0 0-.598.377.5.5 0 0 0 .378.598l7.55 1.715a.55.55 0 0 0 .658-.416l1.688-7.556a.513.513 0 0 0-.066-.376zm3.206 5.072a.5.5 0 0 0-.91.157l-1.59 7.117-7.11-1.617a.498.498 0 0 0-.598.378.5.5 0 0 0 .378.598l7.55 1.715a.55.55 0 0 0 .658-.416l1.689-7.556a.513.513 0 0 0-.066-.376zM1179.4 9.855a.5.5 0 0 0-.854.353l.013 7.293-7.292-.015a.497.497 0 0 0-.5.5.5.5 0 0 0 .5.5l7.742.015a.55.55 0 0 0 .552-.551l-.013-7.742a.508.508 0 0 0-.147-.353zm4.242 4.243a.5.5 0 0 0-.853.353l.013 7.293-7.292-.015a.498.498 0 0 0-.5.5.5.5 0 0 0 .5.5l7.742.015a.55.55 0 0 0 .55-.551l-.012-7.742a.508.508 0 0 0-.147-.353zM1195.5 9.996a.5.5 0 0 0-.748.542l1.71 7.089-7.096 1.683a.497.497 0 0 0-.37.602.5.5 0 0 0 .603.37l7.533-1.787a.55.55 0 0 0 .408-.664l-1.814-7.527a.508.508 0 0 0-.225-.309zm5.113 3.14a.5.5 0 0 0-.748.542l1.71 7.088-7.096 1.683a.498.498 0 0 0-.37.603.5.5 0 0 0 .603.37l7.533-1.788a.55.55 0 0 0 .408-.664l-1.814-7.527a.508.508 0 0 0-.225-.308zM1211.7 10.481a.5.5 0 0 0-.616.688l3.168 6.568-6.58 3.144a.498.498 0 0 0-.234.667.5.5 0 0 0 .667.234l6.986-3.339a.55.55 0 0 0 .258-.735l-3.364-6.973a.51.51 0 0 0-.285-.254zm5.66 1.988a.5.5 0 0 0-.616.688l3.17 6.568-6.58 3.144a.498.498 0 0 0-.235.667.5.5 0 0 0 .667.234l6.985-3.338a.55.55 0 0 0 .259-.735l-3.364-6.974a.51.51 0 0 0-.285-.254zM1228.6 11.143a.5.5 0 0 0-.494.78l4.213 5.953-5.968 4.19a.498.498 0 0 0-.12.697.5.5 0 0 0 .696.12l6.336-4.45a.55.55 0 0 0 .133-.767l-4.473-6.32a.51.51 0 0 0-.323-.203zm5.912 1.023a.5.5 0 0 0-.494.78l4.213 5.953-5.968 4.19a.498.498 0 0 0-.12.697.5.5 0 0 0 .696.12l6.336-4.45a.55.55 0 0 0 .133-.767l-4.472-6.32a.51.51 0 0 0-.324-.203zM1245.8 11.745a.5.5 0 0 0-.387.839l4.956 5.348-5.367 4.937a.498.498 0 0 0-.028.706.5.5 0 0 0 .706.028l5.698-5.241a.55.55 0 0 0 .031-.779l-5.262-5.68a.51.51 0 0 0-.347-.158zm5.995.24a.5.5 0 0 0-.387.839l4.957 5.348-5.368 4.936a.498.498 0 0 0-.028.707.5.5 0 0 0 .706.028l5.698-5.242a.55.55 0 0 0 .031-.778l-5.261-5.68a.51.51 0 0 0-.348-.159zM1263.5 12a.5.5 0 0 0-.353.854l5.166 5.146-5.167 5.146a.497.497 0 0 0 0 .708.5.5 0 0 0 .708 0l5.484-5.465a.55.55 0 0 0 0-.78l-5.484-5.464a.499.499 0 0 0-.354-.145zm6 0a.5.5 0 0 0-.353.854l5.166 5.146-5.167 5.146a.497.497 0 0 0 0 .708.5.5 0 0 0 .708 0l5.484-5.465a.55.55 0 0 0 0-.78l-5.484-5.464a.499.499 0 0 0-.354-.145z"/>
</svg>
