<svg xmlns="http://www.w3.org/2000/svg" width="16" height="16" viewBox="0 0 16 16">
   <path
   style="fill:context-fill;fill-opacity:context-fill-opacity"
   d="M 2.4765625 2 A 0.5 0.5 0 0 0 2.1464844 2.1464844 A 0.5 0.5 0 0 0 2.1464844 2.8535156 L 7.2929688 8 L 2.1464844 13.146484 A 0.5 0.5 0 0 0 2.1464844 13.853516 A 0.5 0.5 0 0 0 2.8535156 13.853516 L 8 8.7070312 L 13.146484 13.853516 A 0.5 0.5 0 0 0 13.853516 13.853516 A 0.5 0.5 0 0 0 13.853516 13.146484 L 8.7070312 8 L 13.853516 2.8535156 A 0.5 0.5 0 0 0 13.853516 2.1464844 A 0.5 0.5 0 0 0 13.476562 2 A 0.5 0.5 0 0 0 13.146484 2.1464844 L 8 7.2929688 L 2.8535156 2.1464844 A 0.5 0.5 0 0 0 2.4765625 2 z " />
</svg>
