<svg xmlns="http://www.w3.org/2000/svg" width="16" height="16" viewBox="0 0 16 16">
   <path
   style="fill:context-fill;fill-opacity:context-fill-opacity"
   d="M 3.4121094 0.0078125 C 3.3481606 0.019171875 3.2864131 0.042480625 3.2285156 0.080078125 C 2.9969256 0.23047813 2.9296881 0.53989437 3.0800781 0.77148438 L 7.4042969 7.4296875 L 5.4804688 10.390625 C 5.0435488 10.142125 4.53857 10 4 10 C 2.34315 10 1 11.3431 1 13 C 1 14.6569 2.34315 16 4 16 C 5.65685 16 7 14.6569 7 13 C 7 12.2446 6.7206356 11.554744 6.2597656 11.027344 L 8 8.3476562 L 9.7402344 11.027344 C 9.2793344 11.554744 9 12.2446 9 13 C 9 14.6569 10.3431 16 12 16 C 13.6569 16 15 14.6569 15 13 C 15 11.3431 13.6569 10 12 10 C 11.4614 10 10.956431 10.142125 10.519531 10.390625 L 3.9199219 0.22851562 C 3.8071294 0.054823125 3.6039556 -0.026265625 3.4121094 0.0078125 z M 12.587891 0.0078125 C 12.396031 -0.026265625 12.192878 0.054823125 12.080078 0.22851562 L 8.5957031 5.59375 L 9.1933594 6.5117188 L 12.919922 0.77148438 C 13.070322 0.53989437 13.003084 0.23047813 12.771484 0.080078125 C 12.713584 0.042480625 12.651844 0.019171875 12.587891 0.0078125 z M 4 11 C 5.10457 11 6 11.8954 6 13 C 6 14.1046 5.10457 15 4 15 C 2.89543 15 2 14.1046 2 13 C 2 11.8954 2.89543 11 4 11 z M 12 11 C 13.1046 11 14 11.8954 14 13 C 14 14.1046 13.1046 15 12 15 C 10.8954 15 10 14.1046 10 13 C 10 11.8954 10.8954 11 12 11 z " />
</svg>
