<svg xmlns="http://www.w3.org/2000/svg" width="16" height="16" viewBox="0 0 16 16">
  <style>
    :root &gt; use:not(:target),
    :root &gt; g:not(:target) {
      display: none;
    }
  </style>
  <defs>
    <path id="arrow-icon" d="M 7.5,0 C 7.2238576,0 7,0.22385763 7,0.5 V 12.292969 L 3.3535156,8.6464844 C 3.2539411,8.5469099 3.1172275,8.4934016 2.9765625,8.5 c -0.1244406,0.00584 -0.242043,0.05834 -0.3300781,0.1464844 -0.1951121,0.1953531 -0.1952326,0.5117986 0,0.7070312 l 4.5,4.5000004 c 0.1952245,0.195225 0.5118067,0.195225 0.7070312,0 L 12.353516,9.3535156 c 0.195233,-0.1952326 0.195233,-0.5117985 0,-0.7070312 -0.195233,-0.1952331 -0.511799,-0.195233 -0.707032,0 L 8,12.292969 V 0.5 C 8,0.22385763 7.7761424,0 7.5,0 Z"/>
    <path id="short-bar-icon" d="m 2.5,15 h 10 c 0.276142,0 0.5,0.223858 0.5,0.5 0,0.276142 -0.223858,0.5 -0.5,0.5 H 2.5 C 2.2238576,16 2,15.776142 2,15.5 2,15.223858 2.2238576,15 2.5,15 Z"/>
    <!--can't seem to get progress bar to work, removing for now...-->
    <path id="long-bar-icon" d=""/>
  </defs>
  <use id="arrow" fill="context-fill" fill-opacity="context-fill-opacity" href="#arrow-icon"/>
  <g id="arrow-with-bar" fill="context-fill" fill-opacity="context-fill-opacity">
    <use href="#arrow-icon"/>
    <use href="#short-bar-icon"/>
  </g>
  <use id="default-bar" fill="context-fill" fill-opacity="context-fill-opacity" href="#short-bar-icon"/>
  <use id="progress-bar-bg" fill="context-fill" fill-opacity="0.2" href="#long-bar-icon"/>
  <use id="progress-bar-fg" fill="context-fill" fill-opacity="context-fill-opacity" href="#long-bar-icon"/>
</svg>