<svg xmlns="http://www.w3.org/2000/svg" width="16" height="16" viewBox="0 0 16 16">
   <path
   style="fill:context-fill;fill-opacity:context-fill-opacity"
   d="M 7.7421875 0 A 7.64 7.6395096 0 0 0 3.7792969 1.171875 L 3.7890625 1.171875 A 7.73 7.7295038 0 0 0 0.890625 4.4414062 A 6.9 6.8995571 0 0 1 4.25 3.6015625 C 7.43 3.6015625 10 5.6007044 10 8.0605469 C 10 8.5405159 9.8292969 9.0013541 9.5292969 9.3613281 L 9.4902344 9.4101562 C 9.3902344 9.5301483 9.3105469 9.6102424 9.3105469 9.7402344 C 9.3105469 10.020216 9.8199219 10.740234 12.169922 10.740234 A 3.89 3.8897503 0 0 0 16 6.8613281 C 16 3.87152 13.220703 0.001953125 7.9707031 0.001953125 A 7.64 7.6395096 0 0 0 7.7421875 0 z M 4.390625 5.109375 A 5.2 5.1996662 0 0 0 4.25 5.1113281 C 1.95 5.1113281 0 6.4606492 0 8.0605469 C 0 9.9504249 0.65960937 11.761031 1.8496094 13.210938 A 8.03 8.0294846 0 0 0 6.5195312 16 A 5.83 5.8296258 0 0 1 4.2402344 11.109375 C 4.2402344 9.0295082 5.7103125 6.7198866 7.3203125 6.1699219 L 7.4296875 6.1308594 A 5.2 5.1996662 0 0 0 4.390625 5.109375 z M 6.2109375 9.2910156 C 5.9109375 9.8509796 5.7502344 10.479415 5.7402344 11.109375 A 4.21 4.2097298 0 0 0 8.2597656 15.279297 C 8.7897656 15.509282 9.3594531 15.619374 9.9394531 15.609375 A 5.89 5.8896219 0 0 0 13.339844 14.050781 C 13.849844 13.60081 14.290156 13.089261 14.660156 12.529297 L 14.679688 12.5 C 14.779687 12.34001 14.880469 12.201006 14.730469 12.041016 C 14.610469 11.921024 14.489141 11.971016 14.369141 12.041016 L 14.310547 12.070312 C 13.430547 12.500286 12.460234 12.720937 11.490234 12.710938 A 5.58 5.5796418 0 0 1 6.2109375 9.2910156 z " />
</svg>
