<svg xmlns="http://www.w3.org/2000/svg" width="16" height="16" viewBox="0 0 16 16">
   <path
   style="fill:context-fill;fill-opacity:context-fill-opacity"
   d="M 2.5 1 C 1.11929 1 0 2.11929 0 3.5 L 0 11.5 C 0 12.8807 1.11929 14 2.5 14 L 13.5 14 C 14.8807 14 16 12.8807 16 11.5 L 16 3.5 C 16 2.11929 14.8807 1 13.5 1 L 2.5 1 z M 2.5 2 L 13.5 2 C 14.3284 2 15 2.67157 15 3.5 L 15 3.8007812 L 8 7.9199219 L 1 3.8027344 L 1 3.5 C 1 2.67157 1.67157 2 2.5 2 z M 15 4.9609375 L 15 11.5 C 15 12.3284 14.3284 13 13.5 13 L 2.5 13 C 1.67157 13 1 12.3284 1 11.5 L 1 4.9628906 L 7.7460938 8.9316406 L 7.828125 8.96875 C 7.967225 9.01995 8.1235063 9.0083406 8.2539062 8.9316406 L 15 4.9609375 z " />
</svg>
