<svg width="16" height="16" xmlns="http://www.w3.org/2000/svg" fill="context-fill" fill-opacity="context-fill-opacity">
  <path d="M5.397 3.138c-.13.619-.17 1.272.035 1.906.71.595.666.713 1.237 1.052.84.498 1.35.65 1.363.728.011.077-.138.264-.323.45-.158.157-.414.37-.587.409-1.024 0-2.162.28-2.583 1.33.063 1.3 1.418 2.891 3.39 2.891 1.972 0 3.284-1.39 3.284-3.24 0-1.387-.783-2.324-1.67-2.78.587-.06 1.14-.004 1.866.454a3.927 3.927 0 0 0-5.524-1.357 3.929 3.929 0 0 1 1.883-.898C7.992 2.567 8.95.893 10.453.035c.366 1.088 1.302 2.029 2.02 2.879.625.738 1.414 1.571 1.899 2.835-.071-.8-.504-1.764-.784-2.296.795.433 2.14 1.977 2.14 4.854a7.728 7.728 0 0 1-15.456 0c0-2.345 1.269-4.729 2.998-5.668-.027.665-.027 1.381.253 1.964.452-.52 1.02-1.063 1.874-1.465Z"/>
</svg>
