<svg width="16" height="16" xmlns="http://www.w3.org/2000/svg" fill="context-fill" fill-opacity="context-fill-opacity">
  <path d="m 0.85355,0.14645 c -0.19526,-0.19527 -0.51184,-0.19527 -0.7071,0 -0.19527,0.19526 -0.19527,0.51184 0,0.7071 L 3.6453,4.35239 C 1.97044,5.49179 0.7234,7.27384 0.28017,9.3979 0.22377,9.6682 0.39718,9.9331 0.6675,9.9895 0.93782,10.0459 1.20268,9.8725 1.25909,9.6021 1.6629,7.66699 2.82367,6.06291 4.36714,5.07422 L 5.95336,6.66045 C 5.07297,7.29611 4.5,8.3311 4.5,9.5 4.5,11.433 6.067,13 8,13 c 1.1689,0 2.2039,-0.573 2.8396,-1.4534 l 4.3068,4.307 c 0.1953,0.1952 0.5119,0.1952 0.7072,0 0.1952,-0.1953 0.1952,-0.5119 0,-0.7072 z M 10.1194,10.8265 C 9.6773,11.5314 8.8934,12 8,12 6.61929,12 5.5,10.8807 5.5,9.5 5.5,8.6066 5.96863,7.82265 6.67348,7.38057 Z M 8.1235,6.00214 11.4979,9.3765 C 11.4342,7.54169 9.9583,6.06576 8.1235,6.00214 Z M 8,4 C 7.43016,4 6.87149,4.07353 6.33419,4.21285 L 5.53113,3.40979 C 6.31349,3.14331 7.14485,3 8,3 11.6934,3 14.9425,5.67312 15.7199,9.3979 15.7763,9.6682 15.6029,9.933 15.3325,9.9895 15.0622,10.0459 14.7974,9.8725 14.7409,9.6021 14.0574,6.32688 11.2057,4 8,4 Z"/>
</svg>
