<svg xmlns="http://www.w3.org/2000/svg" width="16" height="16" viewBox="0 0 16 16">
   <path
   style="fill:context-fill;fill-opacity:context-fill-opacity"
   d="M 1.5 0 A 0.5 0.5 0 0 0 1 0.5 L 1 4.5 A 0.50005 0.50005 0 0 0 1.5 5 L 5.5 5 A 0.5 0.5 0 0 0 6 4.5 A 0.5 0.5 0 0 0 5.5 4 L 2.2558594 4 C 4.1184594 1.3199033 7.614905 0.26372848 10.679688 1.5332031 C 13.928679 2.8789793 15.671903 6.4156459 14.761719 9.8125 C 13.851534 13.209354 10.572534 15.398472 7.0859375 14.939453 C 3.599341 14.480434 1 11.516682 1 8 A 0.4999975 0.4999975 0 0 0 0.5 7.5 A 0.4999975 0.4999975 0 0 0 0 8 C 1.1842379e-15 12.010785 2.9786058 15.408127 6.9550781 15.931641 C 10.93155 16.455153 14.688495 13.944435 15.726562 10.070312 C 16.764629 6.1961934 14.766029 2.144236 11.060547 0.609375 C 10.134177 0.2256598 9.1723049 0.027353125 8.21875 0.001953125 C 5.8663333 -0.060707893 3.5790633 0.93467929 2 2.734375 L 2 0.5 A 0.5 0.5 0 0 0 1.5 0 z M 7.5 4 A 0.5 0.5 0 0 0 7 4.5 L 7 9.5 A 0.50005 0.50005 0 0 0 7.5 10 L 10.5 10 A 0.5 0.5 0 0 0 11 9.5 A 0.5 0.5 0 0 0 10.5 9 L 8 9 L 8 4.5 A 0.5 0.5 0 0 0 7.5 4 z " />
</svg>
