<svg xmlns="http://www.w3.org/2000/svg" width="16" height="16" viewBox="0 0 16 16">
   <path
   style="fill:context-fill;fill-opacity:context-fill-opacity"
   d="M 4 4 L 3.78125 4.0058594 C 1.67418 4.1197994 0 5.8645 0 8 C 0 10.2091 1.79086 12 4 12 L 6 12 L 6.0898438 11.992188 C 6.3230837 11.949885 6.5 11.7455 6.5 11.5 C 6.5 11.2239 6.27614 11 6 11 L 4 11 L 3.8027344 10.994141 C 2.2378244 10.892541 1 9.5906 1 8 C 1 6.34315 2.34315 5 4 5 L 6 5 L 6.0898438 4.9921875 C 6.3230837 4.9498575 6.5 4.74546 6.5 4.5 C 6.5 4.22386 6.27614 4 6 4 L 4 4 z M 10 4 L 9.9101562 4.0078125 C 9.6769562 4.0501425 9.5 4.25454 9.5 4.5 C 9.5 4.77614 9.7239 5 10 5 L 12 5 L 12.197266 5.0058594 C 13.762166 5.1074294 15 6.40942 15 8 C 15 9.6569 13.6569 11 12 11 L 10 11 L 9.9101562 11.007812 C 9.6769562 11.050115 9.5 11.2545 9.5 11.5 C 9.5 11.7761 9.7239 12 10 12 L 12 12 L 12.21875 11.994141 C 14.32575 11.880141 16 10.1355 16 8 C 16 5.79086 14.2091 4 12 4 L 10 4 z M 4 7.5 L 3.9101562 7.5078125 C 3.6769163 7.5501425 3.5 7.75454 3.5 8 C 3.5 8.2761 3.72386 8.5 4 8.5 L 12 8.5 L 12.089844 8.4921875 C 12.323044 8.4498875 12.5 8.2455 12.5 8 C 12.5 7.72386 12.2761 7.5 12 7.5 L 4 7.5 z " />
</svg>
