<svg xmlns="http://www.w3.org/2000/svg" width="16" height="16" viewBox="0 0 16 16">
   <path
   style="fill:context-fill;fill-opacity:context-fill-opacity"
   d="M 0.4765625 0 A 0.5 0.5 0 0 0 0.14648438 0.14648438 A 0.5 0.5 0 0 0 0.14648438 0.85351562 L 7.5 8.2070312 L 7.5 10.404297 C 6.91605 9.8438969 6.12325 9.5 5.25 9.5 C 3.45507 9.5 2 10.9551 2 12.75 C 2 14.5449 3.45507 16 5.25 16 C 7.04493 16 8.5 14.5449 8.5 12.75 C 8.5 12.6897 8.4974406 12.629815 8.4941406 12.570312 C 8.4973406 12.547415 8.5 12.5238 8.5 12.5 L 8.5 9.2070312 L 15.146484 15.853516 A 0.5 0.5 0 0 0 15.853516 15.853516 A 0.5 0.5 0 0 0 15.853516 15.146484 L 0.85351562 0.14648438 A 0.5 0.5 0 0 0 0.4765625 0 z M 7.9160156 0.0078125 C 7.8399081 0.02078625 7.76694 0.05052125 7.703125 0.09765625 C 7.575485 0.19192625 7.5 0.34133 7.5 0.5 L 7.5 5.3789062 L 8.5 6.3789062 L 8.5 5.1777344 L 14.353516 6.9785156 C 14.505116 7.0251856 14.669175 6.9966137 14.796875 6.9023438 C 14.924475 6.8080739 15 6.65868 15 6.5 L 15 3.9765625 C 15 2.8790525 14.283375 1.9106506 13.234375 1.5878906 L 8.1464844 0.021484375 C 8.0706794 -0.001845635 7.9921231 -0.00516125 7.9160156 0.0078125 z M 8.5 1.1777344 L 12.941406 2.5429688 C 13.570806 2.7366286 14 3.3180625 14 3.9765625 L 14 5.8222656 L 8.5 4.1308594 L 8.5 1.1777344 z M 5.25 10.5 C 6.49264 10.5 7.5 11.5074 7.5 12.75 C 7.5 13.9926 6.49264 15 5.25 15 C 4.00736 15 3 13.9926 3 12.75 C 3 11.5074 4.00736 10.5 5.25 10.5 z " />
</svg>
