<svg xmlns="http://www.w3.org/2000/svg" width="16" height="16" viewBox="0 0 16 16">
   <path
   style="fill:context-fill;fill-opacity:context-fill-opacity"
   d="M 0.4765625 0 A 0.5 0.5 0 0 0 0.14648438 0.14648438 A 0.5 0.5 0 0 0 0.14648438 0.85351562 L 15.146484 15.853516 A 0.5 0.5 0 0 0 15.853516 15.853516 A 0.5 0.5 0 0 0 15.853516 15.146484 L 0.85351562 0.14648438 A 0.5 0.5 0 0 0 0.4765625 0 z M 8 0 C 6.3331685 0 4.7871713 0.51263413 3.5058594 1.3847656 L 4.2304688 2.109375 C 5.3193835 1.4110935 6.6103888 1 8 1 C 11.866 1 15 4.13401 15 8 C 15 9.3896148 14.588905 10.680617 13.890625 11.769531 L 14.615234 12.494141 C 15.487363 11.212829 16 9.6668391 16 8 C 16 3.58172 12.4183 0 8 0 z M 1.3847656 3.5058594 C 0.51263414 4.7871713 1.4802974e-16 6.3331685 0 8 C 0 12.4183 3.58172 16 8 16 C 9.6668391 16 11.212829 15.487363 12.494141 14.615234 L 11.769531 13.890625 C 10.680617 14.588905 9.3896148 15 8 15 C 4.13401 15 1 11.866 1 8 C 1 6.6103888 1.4110935 5.3193834 2.109375 4.2304688 L 1.3847656 3.5058594 z M 6.2285156 4.1074219 L 11.28125 9.1601562 L 12.158203 8.6523438 C 12.369158 8.530571 12.5 8.3040105 12.5 8.0605469 C 12.5 7.8170423 12.369158 7.5925304 12.158203 7.4707031 L 6.5332031 4.2207031 C 6.4341592 4.1634774 6.3316161 4.1290471 6.2285156 4.1074219 z M 5 7.1210938 L 5 11.015625 C 5 11.803125 5.8513986 12.296299 6.5332031 11.902344 L 8.5917969 10.712891 L 5 7.1210938 z " />
</svg>
