<svg xmlns="http://www.w3.org/2000/svg" width="16" height="16" viewBox="0 0 16 16">
   <path
   style="fill:context-fill;fill-opacity:context-fill-opacity"
   d="M 8 0 A 8 8 0 0 0 0 8 A 8 8 0 0 0 8 16 A 8 8 0 0 0 16 8 A 8 8 0 0 0 8 0 z M 7.90625 1 A 7 7 0 0 1 8 1 A 7 7 0 0 1 15 8 A 7 7 0 0 1 8 15 A 7 7 0 0 1 1 8 A 7 7 0 0 1 7.90625 1 z M 8 3 C 7.97315 3 7.947595 3.0017794 7.921875 3.0058594 C 7.745965 3.0240394 7.5749925 3.1040433 7.4453125 3.2460938 L 4.1308594 7.1621094 C 3.9446794 7.3660494 3.9581594 7.6829606 4.1621094 7.8691406 C 4.3660494 8.0553506 4.6829606 8.0418606 4.8691406 7.8378906 L 7.5 4.6699219 L 7.5 12.5 C 7.5 12.7762 7.72388 13 8 13 C 8.2762 13 8.5 12.7762 8.5 12.5 L 8.5 4.671875 L 11.128906 7.8378906 C 11.315106 8.0418606 11.629984 8.0553506 11.833984 7.8691406 C 12.037884 7.6829606 12.05339 7.3660494 11.867188 7.1621094 L 8.5527344 3.2460938 C 8.4249344 3.1061438 8.2570844 3.0275225 8.0839844 3.0078125 C 8.0565844 3.0031825 8.0287 3 8 3 z " />
</svg>
