<svg xmlns="http://www.w3.org/2000/svg" width="16" height="16" viewBox="0 0 16 16">
   <path
   style="fill:context-fill;fill-opacity:context-fill-opacity"
   d="M 2.625 6.75 A 1.25 1.25 0 0 0 1.375 8 A 1.25 1.25 0 0 0 2.625 9.25 A 1.25 1.25 0 0 0 3.875 8 A 1.25 1.25 0 0 0 2.625 6.75 z M 8 6.75 A 1.25 1.25 0 0 0 6.75 8 A 1.25 1.25 0 0 0 8 9.25 A 1.25 1.25 0 0 0 9.25 8 A 1.25 1.25 0 0 0 8 6.75 z M 13.375 6.75 A 1.25 1.25 0 0 0 12.125 8 A 1.25 1.25 0 0 0 13.375 9.25 A 1.25 1.25 0 0 0 14.625 8 A 1.25 1.25 0 0 0 13.375 6.75 z " />
</svg>
