<svg xmlns="http://www.w3.org/2000/svg" width="16" height="16" viewBox="0 0 16 16">
   <path
   style="fill:context-fill;fill-opacity:context-fill-opacity"
   d="M 3.5 1 C 2.11929 1 1 2.11929 1 3.5 L 1 12.5 C 1 13.8807 2.11929 15 3.5 15 L 12.5 15 C 13.8807 15 15 13.8807 15 12.5 L 15 3.5 C 15 2.11929 13.8807 1 12.5 1 L 3.5 1 z M 3.5 2 L 6 2 L 6 3.5 C 6 4.32843 6.67157 5 7.5 5 L 14 5 L 14 12.5 C 14 13.3284 13.3284 14 12.5 14 L 3.5 14 C 2.67157 14 2 13.3284 2 12.5 L 2 3.5 C 2 2.67157 2.67157 2 3.5 2 z M 7 2 L 12.5 2 C 13.3284 2 14 2.67157 14 3.5 L 14 4 L 7.5 4 C 7.22386 4 7 3.77614 7 3.5 L 7 2 z M 5 8 C 4.44772 8 4 8.4477 4 9 C 4 9.5523 4.44772 10 5 10 C 5.55228 10 6 9.5523 6 9 C 6 8.4477 5.55228 8 5 8 z M 8 8 C 7.44772 8 7 8.4477 7 9 C 7 9.5523 7.44772 10 8 10 C 8.5523 10 9 9.5523 9 9 C 9 8.4477 8.5523 8 8 8 z M 11 8 C 10.4477 8 10 8.4477 10 9 C 10 9.5523 10.4477 10 11 10 C 11.5523 10 12 9.5523 12 9 C 12 8.4477 11.5523 8 11 8 z " />
</svg>
