<svg xmlns="http://www.w3.org/2000/svg" width="16" height="16" viewBox="0 0 16 16">
   <path
   style="fill:context-fill;fill-opacity:context-fill-opacity"
   d="M 3.25,1 C 2.0132816,1 1,2.0132816 1,3.25 v 9.5 C 1,13.986718 2.0132816,15 3.25,15 h 9.5 C 13.986718,15 15,13.986718 15,12.75 V 3.25 C 15,2.0132816 13.986718,1 12.75,1 Z m 0,1 h 9.5 C 13.446278,2 14,2.5537217 14,3.25 V 4 H 2 V 3.25 C 2,2.5537217 2.5537217,2 3.25,2 Z M 2,5 h 12 v 7.75 C 14,13.446278 13.446278,14 12.75,14 H 3.25 C 2.5537217,14 2,13.446278 2,12.75 Z" />
</svg>
