<svg xmlns="http://www.w3.org/2000/svg" width="340" height="20">
  <style>
    .arrow, .bar { fill: context-stroke; fill-opacity: context-stroke-opacity; }
    .circle { stroke: context-fill; stroke-opacity: context-fill-opacity; stroke-width: 1; stroke-linecap: round; fill: none; }
  </style>
  <g id="1">
    <path class="arrow" d="M10 2a.5.5 0 0 1 .492.41l.008.09-.004 11.794 3.645-3.648a.5.5 0 0 1 .638-.059l.07.058a.5.5 0 0 1 .058.638l-.058.07-4.492 4.5a.497.497 0 0 1-.255.136l-.106.01a.5.5 0 0 1-.395-.194l-4.457-4.452a.5.5 0 0 1 .637-.766l.07.058 3.645 3.641L9.5 2.5A.5.5 0 0 1 10 2z"/>
    <path class="bar" d="M15.5 16.998a.5.5 0 0 1 .09.992l-.09.008h-11a.5.5 0 0 1-.09-.992l.09-.008z"/>
  </g>
  <g id="2">
    <path class="arrow" d="M30 2a.5.5 0 0 1 .492.41l.008.09-.004 11.544 3.645-3.648a.5.5 0 0 1 .638-.059l.07.058a.5.5 0 0 1 .058.638l-.058.07-4.492 4.5a.497.497 0 0 1-.255.136l-.106.01a.5.5 0 0 1-.395-.194l-4.457-4.452a.5.5 0 0 1 .637-.766l.07.058 3.645 3.641L29.5 2.5A.5.5 0 0 1 30 2z"/>
    <path class="bar" d="M35.281 16.467a.5.5 0 0 1 .09.991l-.09.009H24.5a.5.5 0 0 1-.09-.992l.09-.008z"/>
  </g>
  <g id="3">
    <path class="arrow" d="M50 2.221c.225 0 .411.162.45.376l.008.082-.004 10.571 3.338-3.34a.458.458 0 0 1 .584-.054l.064.053c.159.158.177.405.053.584l-.053.063-4.113 4.121a.455.455 0 0 1-.234.125l-.097.01a.457.457 0 0 1-.362-.179l-4.081-4.076a.458.458 0 0 1 .583-.701l.064.053 3.338 3.334.004-10.564c0-.253.205-.458.458-.458z"/>
    <path class="bar" d="M53.337 16.135a.5.5 0 0 1 .09.992l-.09.008H44.5a.5.5 0 0 1-.09-.992l.09-.008z"/>
  </g>
  <g id="4">
    <path class="arrow" d="M70 2.972c.197 0 .362.143.396.331l.007.073-.004 9.31 2.94-2.943a.403.403 0 0 1 .515-.047l.055.046c.14.14.156.358.048.515l-.047.056-3.622 3.629a.4.4 0 0 1-.206.11l-.086.008a.403.403 0 0 1-.319-.157l-3.594-3.59a.403.403 0 0 1 .514-.617l.056.046 2.94 2.937.003-9.304c0-.222.18-.403.403-.403z"/>
    <path class="bar" d="M70.862 15.98a.5.5 0 0 1 .09.992l-.09.008H64.5a.5.5 0 0 1-.09-.992l.09-.008z"/>
  </g>
  <g id="5">
    <path class="circle" d="M84.49 16.473a8.5 8.5 0 0 1-.931-.925"/>
    <path class="arrow" d="M89.998 4.785c.134 0 .244.096.267.222l.005.05-.002 6.265 1.978-1.98a.271.271 0 0 1 .346-.032l.038.032c.094.094.105.24.032.346l-.032.037-2.438 2.443a.27.27 0 0 1-.138.074l-.058.006a.27.27 0 0 1-.214-.106l-2.42-2.416a.271.271 0 0 1 .346-.416l.038.032 1.979 1.976.002-6.262c0-.15.122-.271.271-.271z"/>
    <path class="bar" d="M88.237 15.98a.5.5 0 0 1 .09.992l-.09.008H84.5a.5.5 0 0 1-.09-.992l.09-.008z"/>
  </g>
  <g id="6">
    <path class="circle" d="M104.49 16.473a8.5 8.5 0 0 1-2.51-3.656"/>
    <path class="arrow" d="M109.998 6.95c.076 0 .138.055.151.127l.002.027v3.558l1.123-1.125a.154.154 0 0 1 .197-.018l.02.018c.054.054.06.137.019.197l-.018.021-1.384 1.387a.153.153 0 0 1-.079.042l-.032.003a.154.154 0 0 1-.122-.06L108.5 9.755a.154.154 0 0 1 .197-.236l.021.018 1.124 1.122V7.104c0-.085.07-.154.154-.154z"/>
    <path class="bar" d="M105.74 15.98a.5.5 0 0 1 .09.992l-.09.008h-1.24a.5.5 0 0 1-.09-.992l.09-.008z"/>
  </g>
  <g id="7">
    <path class="circle" d="M124.49 16.473a8.5 8.5 0 0 1-1.43-11.382"/>
    <path class="arrow" d="M129.997 7.702a.1.1 0 0 1 .098.081l.001.018v2.296l.724-.726a.1.1 0 0 1 .127-.012l.014.012a.1.1 0 0 1 .012.127l-.012.014-.893.894a.099.099 0 0 1-.05.028l-.022.002a.1.1 0 0 1-.079-.04l-.886-.884a.1.1 0 0 1 .127-.153l.014.012.725.724V7.8a.1.1 0 0 1 .1-.1z"/>
    <path class="bar" d="M125.077 15.98a.5.5 0 0 1 .09.992l-.09.008h-.577a.5.5 0 0 1-.09-.992l.09-.008z"/>
  </g>
  <g id="8">
    <path class="circle" d="M144.49 16.473a8.5 8.5 0 0 1-2.598-9.03 8.5 8.5 0 0 1 7.309-5.905 8.5 8.5 0 0 1 8.283 4.435"/>
    <path class="arrow" d="M149.997 8.364a.06.06 0 0 1 .06.05V9.83l.444-.444a.06.06 0 0 1 .077-.007l.008.007a.06.06 0 0 1 .007.078l-.007.008-.546.548a.061.061 0 0 1-.032.017h-.012a.061.061 0 0 1-.049-.023l-.542-.542a.06.06 0 0 1 .077-.093l.008.007.444.443V8.425a.06.06 0 0 1 .061-.06z"/>
  </g>
  <g id="9">
    <path class="circle" d="M164.49 16.473a8.5 8.5 0 0 1-1.09-11.831 8.5 8.5 0 0 1 11.802-1.362 8.5 8.5 0 0 1 1.635 11.768"/>
    <path class="arrow" d="M169.996 9.02c.018 0 .034.014.037.031v.861l.27-.27a.037.037 0 0 1 .047-.005l.005.005a.037.037 0 0 1 .004.047l-.004.005-.333.333a.035.035 0 0 1-.019.01h-.008a.037.037 0 0 1-.029-.014l-.33-.329a.037.037 0 0 1 .048-.057l.005.005.27.269v-.853c0-.02.016-.037.036-.037z"/>
  </g>
  <g id="10">
    <path class="circle" d="M184.49 16.473a8.5 8.5 0 0 1-2.166-10.129 8.5 8.5 0 0 1 9.23-4.7 8.5 8.5 0 0 1 6.92 7.707 8.5 8.5 0 0 1-5.666 8.671"/>
    <path class="arrow" d="M189.996 9.297c.01 0 .016.006.018.014v.412l.129-.129a.018.018 0 0 1 .022-.002l.003.002a.018.018 0 0 1 .002.023l-.002.002-.159.16a.021.021 0 0 1-.009.004h-.004a.018.018 0 0 1-.014-.006l-.157-.158a.018.018 0 0 1 .023-.027l.002.002.13.129v-.408c0-.01.007-.018.017-.018z"/>
  </g>
  <path class="circle" d="M204.49 16.473a8.5 8.5 0 0 1-1.81-10.797 8.5 8.5 0 0 1 10.331-3.624 8.5 8.5 0 0 1 5.333 9.562 8.5 8.5 0 0 1-8.513 6.884" id="11"/>
  <path class="circle" d="M224.49 16.473a8.5 8.5 0 0 1-1.516-11.26 8.5 8.5 0 0 1 11.035-2.707 8.5 8.5 0 0 1 3.868 10.683 8.5 8.5 0 0 1-10.21 4.985" id="12"/>
  <path class="circle" d="M244.489 16.473a8.5 8.5 0 0 1-1.32-11.535 8.5 8.5 0 0 1 11.42-2.09 8.5 8.5 0 0 1 2.854 11.253 8.5 8.5 0 0 1-11.038 3.603" id="13"/>
  <path class="circle" d="M264.489 16.473a8.5 8.5 0 0 1-1.106-11.81 8.5 8.5 0 0 1 11.778-1.415 8.5 8.5 0 0 1 1.721 11.737 8.5 8.5 0 0 1-11.688 2.027" id="14"/>
  <path class="circle" d="M298.498 10a8.5 8.5 0 0 1-8.5 8.5 8.5 8.5 0 0 1-8.5-8.5 8.5 8.5 0 0 1 8.5-8.5 8.5 8.5 0 0 1 8.5 8.5z" id="15"/>
  <path class="circle" d="M318.498 10a8.5 8.5 0 0 1-8.5 8.5 8.5 8.5 0 0 1-8.5-8.5 8.5 8.5 0 0 1 8.5-8.5 8.5 8.5 0 0 1 8.5 8.5z" id="16"/>
  <path class="circle" d="M338.498 10a8.5 8.5 0 0 1-8.5 8.5 8.5 8.5 0 0 1-8.5-8.5 8.5 8.5 0 0 1 8.5-8.5 8.5 8.5 0 0 1 8.5 8.5z" id="17"/>
</svg>
