<svg xmlns="http://www.w3.org/2000/svg" width="16" height="16" viewBox="0 0 16 16">
   <path
   style="fill:context-fill;fill-opacity:context-fill-opacity"
   d="M 2.5013522,2 A 0.499,0.499 0 0 0 2.1478366,2.8535156 L 7.3138522,8 2.1478366,13.146485 a 0.498,0.498 0 0 0 0,0.707031 0.5,0.5 0 0 0 0.7070312,0 l 5.484375,-5.4648442 a 0.55,0.55 0 0 0 0,-0.7792968 L 2.8548678,2.1445312 A 0.496,0.496 0 0 0 2.5013522,2 Z m 6,0 A 0.499,0.499 0 0 0 8.1478366,2.8535156 L 13.313852,8 8.1478366,13.146485 a 0.498,0.498 0 0 0 0,0.707031 0.5,0.5 0 0 0 0.7070312,0 L 14.339243,8.3886718 a 0.55,0.55 0 0 0 0,-0.7792968 L 8.8548678,2.1445312 A 0.496,0.496 0 0 0 8.5013522,2 Z" />
</svg>
