<svg xmlns="http://www.w3.org/2000/svg" width="16" height="16" viewBox="0 0 16 16">
   <path
   style="fill:context-fill;fill-opacity:context-fill-opacity"
   d="M 5.5 0 C 4.84689 0 4.2918575 0.4174 4.0859375 1 L 2.5 1 C 1.67157 1 1 1.67157 1 2.5 L 1 14.5 C 1 15.3284 1.67157 16 2.5 16 L 5.5 16 C 5.77614 16 6 15.7761 6 15.5 C 6 15.2239 5.77614 15 5.5 15 L 2.5 15 C 2.22386 15 2 14.7761 2 14.5 L 2 2.5 C 2 2.22386 2.22386 2 2.5 2 L 4.0859375 2 C 4.2918575 2.5826 4.84689 3 5.5 3 L 8.5 3 C 9.1531 3 9.7081625 2.5826 9.9140625 2 L 11.5 2 C 11.7761 2 12 2.22386 12 2.5 L 12 3.5 C 12 3.77614 12.2239 4 12.5 4 C 12.7761 4 13 3.77614 13 3.5 L 13 2.5 C 13 1.67157 12.3284 1 11.5 1 L 9.9140625 1 C 9.7081625 0.4174 9.1531 0 8.5 0 L 5.5 0 z M 5.5 1 L 8.5 1 C 8.7761 1 9 1.22386 9 1.5 C 9 1.77614 8.7761 2 8.5 2 L 5.5 2 C 5.22386 2 5 1.77614 5 1.5 C 5 1.22386 5.22386 1 5.5 1 z M 8.5 5 C 7.67157 5 7 5.67157 7 6.5 L 7 14.5 C 7 15.3284 7.67157 16 8.5 16 L 13.5 16 C 14.3284 16 15 15.3284 15 14.5 L 15 6.5 C 15 5.67157 14.3284 5 13.5 5 L 8.5 5 z M 8.5 6 L 13.5 6 C 13.7761 6 14 6.22386 14 6.5 L 14 14.5 C 14 14.7761 13.7761 15 13.5 15 L 8.5 15 C 8.2239 15 8 14.7761 8 14.5 L 8 6.5 C 8 6.22386 8.2239 6 8.5 6 z " />
</svg>
