<svg width="16" height="16" xmlns="http://www.w3.org/2000/svg" fill="context-fill" fill-opacity="context-fill-opacity">
  <path d="m 0.85355,0.14645 c -0.19526,-0.19527 -0.51184,-0.19527 -0.7071,0 -0.19527,0.19526 -0.19527,0.51184 0,0.7071 L 4.896,5.60309 2.01834,6.75415 C 1.35177,7.02078 1.17498,7.88209 1.68262,8.3897 L 4.29289,11 1,14.2929 V 15 H 1.70711 L 5,11.7071 7.61027,14.3174 C 8.1179,14.825 8.9792,14.6482 9.2459,13.9817 l 1.151,-2.8777 4.7495,4.7496 c 0.1953,0.1952 0.5119,0.1952 0.7072,0 0.1952,-0.1953 0.1952,-0.5119 0,-0.7072 z M 9.6276,10.3347 8.3174,13.6103 2.38973,7.68263 5.66531,6.3724 Z m 1.3289,-1.622 c -0.0271,0.0136 -0.0539,0.0276 -0.0804,0.0421 l 0.7441,0.7441 3.242,-1.62097 c 1.221,-0.6105 1.4851,-2.23778 0.5198,-3.20307 L 11.3251,0.61804 C 10.3599,-0.34725 8.7326,-0.08317 8.1221,1.13783 L 6.5011,4.37977 7.24523,5.1239 C 7.25971,5.09739 7.27373,5.07059 7.28728,5.04349 L 9.0165,1.58504 C 9.3218,0.97454 10.1354,0.8425 10.618,1.32514 l 4.0569,4.05683 c 0.4826,0.48264 0.3506,1.29629 -0.2599,1.60154 z"/>
</svg>
