<svg xmlns="http://www.w3.org/2000/svg" width="16" height="16" viewBox="0 0 16 16">
   <path
   style="fill:context-fill;fill-opacity:context-fill-opacity"
   d="M 4.5 1 C 3.67157 1 3 1.67157 3 2.5 L 3 3 L 2.5 3 C 1.11929 3 0 4.11929 0 5.5 L 0 10.5 C 0 11.3284 0.67157 12 1.5 12 L 3 12 L 3 13.5 C 3 14.3284 3.67157 15 4.5 15 L 11.5 15 C 12.3284 15 13 14.3284 13 13.5 L 13 12 L 14.5 12 C 15.3284 12 16 11.3284 16 10.5 L 16 5.5 C 16 4.11929 14.8807 3 13.5 3 L 13 3 L 13 2.5 C 13 1.67157 12.3284 1 11.5 1 L 4.5 1 z M 4.5 2 L 11.5 2 C 11.7761 2 12 2.22386 12 2.5 L 12 3 L 4 3 L 4 2.5 C 4 2.22386 4.22386 2 4.5 2 z M 2.5 4 L 13.5 4 C 14.3284 4 15 4.67157 15 5.5 L 15 10.5 C 15 10.7761 14.7761 11 14.5 11 L 13 11 L 13 9.5 C 13 8.6716 12.3284 8 11.5 8 L 4.5 8 C 3.67157 8 3 8.6716 3 9.5 L 3 11 L 1.5 11 C 1.22386 11 1 10.7761 1 10.5 L 1 5.5 C 1 4.67157 1.67157 4 2.5 4 z M 4.5 9 L 11.5 9 C 11.7761 9 12 9.2239 12 9.5 L 12 13.5 C 12 13.7761 11.7761 14 11.5 14 L 4.5 14 C 4.22386 14 4 13.7761 4 13.5 L 4 9.5 C 4 9.2239 4.22386 9 4.5 9 z " />
</svg>
