<svg xmlns="http://www.w3.org/2000/svg" width="16" height="16" viewBox="0 0 16 16">
   <path
   style="fill:context-fill;fill-opacity:context-fill-opacity"
   d="M 3.5 1 C 2.11929 1 1 2.11929 1 3.5 L 1 12.5 C 1 13.8807 2.11929 15 3.5 15 L 8.5351562 15 C 8.4339562 14.8859 8.3363406 14.768584 8.2441406 14.646484 C 8.0881406 14.439884 7.9480956 14.2237 7.8222656 14 L 3.5 14 C 2.67157 14 2 13.3284 2 12.5 L 2 5 L 14 5 L 14 6.2324219 C 14.328 6.4226419 14.6604 6.5462281 15 6.6113281 L 15 3.5 C 15 2.11929 13.8807 1 12.5 1 L 3.5 1 z M 3.5 2 L 12.5 2 C 13.3284 2 14 2.67157 14 3.5 L 14 4 L 2 4 L 2 3.5 C 2 2.67157 2.67157 2 3.5 2 z M 12 6 C 11.897575 5.99994 11.7969 6.0397088 11.71875 6.1210938 C 10.72425 7.1566338 9.6237906 7.6660156 8.4003906 7.6660156 C 8.1794906 7.6660156 8 7.8538944 8 8.0839844 L 8 10.583984 L 8.0039062 10.849609 C 8.0454062 12.096909 8.3830656 13.1498 9.0097656 14 C 9.2842656 14.3724 9.6151 14.706 10 15 C 10.5236 15.4 11.147747 15.726716 11.873047 15.978516 C 11.955147 16.007016 12.044853 16.007016 12.126953 15.978516 C 14.687453 15.089516 16 13.265884 16 10.583984 L 16 8.0839844 L 15.992188 8 C 15.954887 7.81013 15.792909 7.6660156 15.599609 7.6660156 C 15.396209 7.6660156 15.1966 7.65317 15 7.625 C 14.6565 7.57579 14.3233 7.4834963 14 7.3476562 C 13.3942 7.0931263 12.822603 6.6859569 12.283203 6.1230469 C 12.205153 6.0415719 12.102425 6.00006 12 6 z " />
</svg>
