<svg width="16" height="16" xmlns="http://www.w3.org/2000/svg" fill="context-fill" fill-opacity="context-fill-opacity">
  <path d="M9.66308 11C8.7684 11.63 7.67741 12 6.5 12C3.46243 12 1 9.53757 1 6.5C1 3.46243 3.46243 1 6.5 1C7.67741 1 8.76841 1.36997 9.66308 2L6.5 2C4.01472 2 2 4.01472 2 6.5C2 8.98528 4.01472 11 6.5 11H9.66308Z"/>
  <path d="M10.0195 10.7266L14.1464 14.8536C14.3417 15.0488 14.6583 15.0488 14.8536 14.8536C15.0488 14.6583 15.0488 14.3417 14.8536 14.1464L10.7266 10.0195C10.5128 10.276 10.276 10.5128 10.0195 10.7266Z"/>
  <path d="M11.793 5C11.8841 5.32228 11.9466 5.65659 11.9776 6H6.5V5H11.793Z"/>
  <path d="M10.7428 3C10.9965 3.30711 11.2174 3.64222 11.4003 4H6.5V3H10.7428Z"/>
  <path d="M11.793 8C11.8841 7.67772 11.9466 7.34341 11.9776 7H6.5V8H11.793Z"/>
  <path d="M11.4003 9H6.5V10H10.7428C10.9965 9.69289 11.2174 9.35778 11.4003 9Z"/>
</svg>
