<svg xmlns="http://www.w3.org/2000/svg" width="16" height="16" viewBox="0 0 16 16">
   <path
   style="fill:context-fill;fill-opacity:context-fill-opacity"
   d="M 10.976562 1.0019531 C 10.675484 0.98363569 10.376953 1.2182972 10.376953 1.578125 L 10.376953 3.7070312 L 10.152344 3.7226562 C 6.5897337 4.0054466 4.5026263 6.2593995 4.0039062 10.349609 C 3.9398563 10.874909 4.5422106 11.203269 4.9316406 10.855469 C 6.3635106 9.5769687 7.8431731 8.7831437 9.3769531 8.4648438 C 9.6229531 8.4138437 9.8702406 8.3762094 10.119141 8.3496094 L 10.376953 8.3261719 L 10.376953 10.421875 L 10.382812 10.503906 C 10.442813 10.956606 10.992278 11.170091 11.330078 10.837891 L 15.826172 6.4160156 L 15.884766 6.3496094 C 16.056466 6.1205094 16.036076 5.7883613 15.826172 5.5820312 L 11.330078 1.1621094 L 11.267578 1.109375 C 11.177528 1.042125 11.076922 1.0080589 10.976562 1.0019531 z M 3.5 2 C 2.11929 2 1 3.11929 1 4.5 L 1 12.5 C 1 13.8807 2.11929 15 3.5 15 L 11.5 15 C 12.8807 15 14 13.8807 14 12.5 L 14 11.5 C 14 11.2239 13.7761 11 13.5 11 C 13.2239 11 13 11.2239 13 11.5 L 13 12.5 C 13 13.3284 12.3284 14 11.5 14 L 3.5 14 C 2.67157 14 2 13.3284 2 12.5 L 2 4.5 C 2 3.67157 2.67157 3 3.5 3 L 6.5 3 C 6.77614 3 7 2.77614 7 2.5 C 7 2.22386 6.77614 2 6.5 2 L 3.5 2 z M 11.376953 2.6113281 L 14.824219 6 L 11.376953 9.3886719 L 11.376953 7.2324219 L 10.021484 7.3535156 L 10.013672 7.3554688 C 8.3113719 7.5374548 6.70413 8.2188688 5.1875 9.3554688 C 5.48569 8.0173688 5.9950325 7.0106225 6.6640625 6.2890625 C 7.4932125 5.3948025 8.6528625 4.8467531 10.226562 4.7207031 L 11.376953 4.6425781 L 11.376953 2.6113281 z " />
</svg>
