<svg xmlns="http://www.w3.org/2000/svg" width="16" height="16" viewBox="0 0 16 16">
   <path
   style="fill:context-fill;fill-opacity:context-fill-opacity"
   d="M 2,1 C 0.89503,0.98077 0,1.89543 0,3 v 10 c 0,1.1046 0.89503,2 2,2 h 12 c 1.1049,0 2,-0.8954 2,-2 V 3 C 16,1.89543 15.1049,1 14,1 Z M 2,2 H 6 V 14 H 2 C 1.44752,14 1,13.5523 1,13 V 3 C 1,2.44771 1.4384314,2.1403922 2,2 Z m 5,0 h 7 c 0.5525,0 1,0.44771 1,1 v 10 c 0,0.5523 -0.4475,1 -1,1 H 7 Z M 2.5,4 C 2.2238576,4 2,4.2238576 2,4.5 2,4.7761424 2.2238576,5 2.5,5 h 2 C 4.7761424,5 5,4.7761424 5,4.5 5,4.2238576 4.7761424,4 4.5,4 Z m 0,3 C 2.2238576,7 2,7.2238576 2,7.5 2,7.7761424 2.2238576,8 2.5,8 h 2 C 4.7761424,8 5,7.7761424 5,7.5 5,7.2238576 4.7761424,7 4.5,7 Z m 0,3 C 2.2238576,10 2,10.223858 2,10.5 2,10.776142 2.2238576,11 2.5,11 h 2 C 4.7761424,11 5,10.776142 5,10.5 5,10.223858 4.7761424,10 4.5,10 Z" />
</svg>
