<svg xmlns="http://www.w3.org/2000/svg" width="16" height="16" viewBox="0 0 16 16">
   <path
   style="fill:context-fill;fill-opacity:context-fill-opacity"
   d="M 2 1 C 0.89503 0.98077 0 1.89543 0 3 L 0 13 C 0 14.1046 0.89503 15 2 15 L 14 15 C 15.1049 15 16 14.1046 16 13 L 16 3 C 16 1.89543 15.1049 1 14 1 L 2 1 z M 7 2 L 14 2 C 14.5525 2 15 2.44771 15 3 L 15 13 C 15 13.5523 14.5525 14 14 14 L 7 14 L 7 2 z M 2.5 4 L 4.5 4 C 4.7761424 4 5 4.2238576 5 4.5 C 5 4.7761424 4.7761424 5 4.5 5 L 2.5 5 C 2.2238576 5 2 4.7761424 2 4.5 C 2 4.2238576 2.2238576 4 2.5 4 z M 2.5 7 L 4.5 7 C 4.7761424 7 5 7.2238576 5 7.5 C 5 7.7761424 4.7761424 8 4.5 8 L 2.5 8 C 2.2238576 8 2 7.7761424 2 7.5 C 2 7.2238576 2.2238576 7 2.5 7 z M 2.5 10 L 4.5 10 C 4.7761424 10 5 10.223858 5 10.5 C 5 10.776142 4.7761424 11 4.5 11 L 2.5 11 C 2.2238576 11 2 10.776142 2 10.5 C 2 10.223858 2.2238576 10 2.5 10 z " />
</svg>
