<svg xmlns="http://www.w3.org/2000/svg" width="16" height="16" viewBox="0 0 16 16">
   <path
   style="fill:context-fill;fill-opacity:context-fill-opacity"
   d="M 2 0 C 0.89503 -0.01923 0 0.89543 0 2 L 0 13 C 0 14.1046 0.89503 15 2 15 L 14 15 C 15.1049 15 16 14.1046 16 13 L 16 2 C 16 0.89543 15.1049 0 14 0 L 2 0 z M 2 1 L 6 1 L 6 14 L 2 14 C 1.44752 14 1 13.5523 1 13 L 1 2 C 1 1.44771 1.4211483 1 2 1 z M 7 1 L 14 1 C 14.5525 1 15 1.44771 15 2 L 15 13 C 15 13.5523 14.5525 14 14 14 L 7 14 L 7 1 z M 2.5 3 A 0.5 0.5 0 0 0 2 3.5 A 0.5 0.5 0 0 0 2.5 4 L 4.5 4 A 0.5 0.5 0 0 0 5 3.5 A 0.5 0.5 0 0 0 4.5 3 L 2.5 3 z M 2.5 6 A 0.5 0.5 0 0 0 2 6.5 A 0.5 0.5 0 0 0 2.5 7 L 4.5 7 A 0.5 0.5 0 0 0 5 6.5 A 0.5 0.5 0 0 0 4.5 6 L 2.5 6 z M 2.5 9 A 0.5 0.5 0 0 0 2 9.5 A 0.5 0.5 0 0 0 2.5 10 L 4.5 10 A 0.5 0.5 0 0 0 5 9.5 A 0.5 0.5 0 0 0 4.5 9 L 2.5 9 z " />
</svg>
