<svg width="16" height="16" xmlns="http://www.w3.org/2000/svg" fill="context-fill" fill-opacity="context-fill-opacity">
  <path d="M 4.46551,0.31717 C 4.39034,0.12583 4.20571,0 4.00013,0 3.79456,0 3.60993,0.12583 3.53476,0.31717 l -2.75,7 C 0.68379,7.57419 0.81029,7.8644 1.06731,7.96538 1.32433,8.0663 1.61454,7.93985 1.71551,7.68283 L 2.37662,6 H 5.62365 L 6.28476,7.68283 C 6.38573,7.93985 6.67594,8.0663 6.93296,7.96538 7.18998,7.8644 7.31648,7.57419 7.21551,7.31717 Z M 4.00013,1.86742 5.23079,5 H 2.76948 Z M 2.00012,9 c -0.27614,0 -0.5,0.2239 -0.5,0.5 0,0.2761 0.22386,0.5 0.5,0.5 H 5.06586 L 1.5841,15.2227 C 1.48181,15.3761 1.47228,15.5734 1.55929,15.7359 1.6463,15.8985 1.81573,16 2.00012,16 h 4 c 0.27615,0 0.5,-0.2239 0.5,-0.5 0,-0.2761 -0.22385,-0.5 -0.5,-0.5 H 2.93438 L 6.41615,9.7774 C 6.51843,9.6239 6.52797,9.4267 6.44096,9.2641 6.35395,9.1015 6.18452,9 6.00012,9 Z M 12.5,0 C 12.7761,0 13,0.22386 13,0.5 v 13.7929 l 2.1464,-2.1465 c 0.1953,-0.1952 0.5119,-0.1952 0.7072,0 0.1952,0.1953 0.1952,0.5119 0,0.7072 l -3,3 c -0.1953,0.1952 -0.5119,0.1952 -0.7072,0 l -3,-3 c -0.1952,-0.1953 -0.1952,-0.5119 0,-0.7072 0.1953,-0.1952 0.5119,-0.1952 0.7072,0 L 12,14.2929 V 0.5 C 12,0.22386 12.2239,0 12.5,0 Z"/>
</svg>
