<svg xmlns="http://www.w3.org/2000/svg" width="16" height="16">
  <style>
    #fill:not(:target),#fill:target+path{display:none}
  </style>
  <g style="fill:context-fill;fill-opacity:context-fill-opacity">
    <path id="fill" d="M8 .342a.987.987 0 0 0-.896.556l-1.93 3.913-4.317.627a1 1 0 0 0-.554 1.705l3.123 3.045-.737 4.298a1 1 0 0 0 1.45 1.055L8 13.511l3.86 2.03a1 1 0 0 0 1.45-1.055l-.736-4.299 3.123-3.044a1 1 0 0 0-.554-1.705l-4.317-.627L8.896.898A.987.987 0 0 0 8 .342z"/>
    <path d="M8 .342a.987.987 0 0 0-.896.556l-1.93 3.913-4.317.627a1 1 0 0 0-.554 1.705l3.123 3.045-.737 4.298a1 1 0 0 0 1.45 1.055L8 13.511l3.86 2.03a1 1 0 0 0 1.45-1.055l-.736-4.299 3.123-3.044a1 1 0 0 0-.554-1.705l-4.317-.627L8.896.898A.987.987 0 0 0 8 .342zm0 1 1.93 3.912a1 1 0 0 0 .754.547l4.314.627-3.123 3.045a1 1 0 0 0-.287.884l.738 4.3-3.861-2.03a.998.998 0 0 0-.93 0l-3.861 2.03.738-4.3a1 1 0 0 0-.287-.884L1 6.428 5.316 5.8c.326-.048.609-.252.754-.547L8 1.342z"/>
  </g>
</svg>
