<svg
   xmlns:dc="http://purl.org/dc/elements/1.1/"
   xmlns:cc="http://creativecommons.org/ns#"
   xmlns:rdf="http://www.w3.org/1999/02/22-rdf-syntax-ns#"
   xmlns:svg="http://www.w3.org/2000/svg"
   xmlns="http://www.w3.org/2000/svg"
   xmlns:sodipodi="http://sodipodi.sourceforge.net/DTD/sodipodi-0.dtd"
   xmlns:inkscape="http://www.inkscape.org/namespaces/inkscape"
   width="16"
   height="16"
   viewBox="0 0 16 16"
   version="1.1"
   id="svg10"
   sodipodi:docname="star-fill.svg"
   inkscape:version="1.0.2 (e86c8708, 2021-01-15)">
  <metadata
     id="metadata16">
    <rdf:RDF>
      <cc:Work
         rdf:about="">
        <dc:format>image/svg+xml</dc:format>
        <dc:type
           rdf:resource="http://purl.org/dc/dcmitype/StillImage" />
      </cc:Work>
    </rdf:RDF>
  </metadata>
  <defs
     id="defs14" />
  <sodipodi:namedview
     pagecolor="#ffffff"
     bordercolor="#666666"
     borderopacity="1"
     objecttolerance="10"
     gridtolerance="10"
     guidetolerance="10"
     inkscape:pageopacity="0"
     inkscape:pageshadow="2"
     inkscape:window-width="1353"
     inkscape:window-height="811"
     id="namedview12"
     showgrid="false"
     inkscape:zoom="20.395611"
     inkscape:cx="10.16023"
     inkscape:cy="9.7911841"
     inkscape:window-x="199"
     inkscape:window-y="100"
     inkscape:window-maximized="0"
     inkscape:current-layer="svg10" />
  <path
     style="fill:context-fill"
     d="M 8,0.34179688 C 7.6433815,0.34179563 7.2868961,0.5268125 7.1035156,0.8984375 L 5.1738281,4.8105469 0.85742188,5.4375 C 0.03731164,5.55668 -0.2907062,6.5640381 0.30273438,7.1425781 L 3.4257812,10.1875 2.6894531,14.486328 c -0.1400912,0.8169 0.7156869,1.440388 1.4492188,1.054688 L 8,13.511719 l 3.859375,2.029297 c 0.733602,0.3857 1.591253,-0.237788 1.451172,-1.054688 L 12.574219,10.1875 15.697266,7.1425781 C 16.290786,6.5640481 15.962768,5.55668 15.142578,5.4375 L 10.826172,4.8105469 8.8964844,0.8984375 C 8.7131089,0.5268175 8.3566185,0.34179812 8,0.34179688 Z"
     id="path8"
     sodipodi:nodetypes="scccccccccccccccs" />
</svg>
