<svg fill="context-fill" fill-opacity="context-fill-opacity" viewBox="0 0 468 20" xmlns="http://www.w3.org/2000/svg">
    <path d="M464.52 4a.5.5 0 0 1 .33.147.5.5 0 0 1 0 .707l-5.146 5.147 5.146 5.146a.5.5 0 0 1 0 .707.5.5 0 0 1-.707 0l-5.146-5.146-5.147 5.146a.5.5 0 0 1-.707 0 .5.5 0 0 1 0-.707l5.147-5.146-5.147-5.147a.5.5 0 0 1 0-.707.5.5 0 0 1 .377-.146.5.5 0 0 1 .33.146l5.147 5.146 5.146-5.146a.5.5 0 0 1 .377-.146zM15.501 2a.5.5 0 0 0-.5.5v2.235a8.006 8.006 0 0 0-6.219-2.732A8.005 8.005 0 0 0 1.274 12.07a8.006 8.006 0 0 0 8.772 5.861A8.005 8.005 0 0 0 17.001 10a.5.5 0 0 0-.5-.5.5.5 0 0 0-.5.5c0 3.517-2.6 6.48-6.086 6.94a6.994 6.994 0 0 1-7.676-5.128 6.994 6.994 0 0 1 4.082-8.279A6.995 6.995 0 0 1 14.745 6h-3.244a.5.5 0 0 0-.5.5.5.5 0 0 0 .5.5h4a.5.5 0 0 0 .5-.5v-4a.5.5 0 0 0-.5-.5zM435.48 4a.5.5 0 0 0-.33.146.5.5 0 0 0 0 .708L440.296 10l-5.146 5.147a.5.5 0 0 0 0 .707.5.5 0 0 0 .707 0l5.146-5.147 5.147 5.147a.5.5 0 0 0 .707 0 .5.5 0 0 0 0-.707L441.711 10l5.146-5.146a.5.5 0 0 0 0-.708.5.5 0 0 0-.377-.146.5.5 0 0 0-.33.146l-5.147 5.147-5.146-5.147A.5.5 0 0 0 435.48 4zM45.268 2.006a8.003 8.003 0 0 0-6.664 3.187 8.006 8.006 0 0 0 .586 10.305 8.005 8.005 0 0 0 10.256 1.153.5.5 0 0 0 .137-.694.5.5 0 0 0-.692-.136 6.995 6.995 0 0 1-8.974-1.01 6.994 6.994 0 0 1-.512-9.016 6.995 6.995 0 0 1 8.803-2.017 6.993 6.993 0 0 1 3.62 7.756l-.025.027-1.494-1.236a.5.5 0 0 0-.703.066.5.5 0 0 0 .066.703l1.854 1.537a.5.5 0 0 0 .435.1.5.5 0 0 0 .036.015.5.5 0 0 0 .629-.326c.039-.123.059-.247.091-.37l1.125-1.196a.5.5 0 0 0-.021-.705.5.5 0 0 0-.322-.137.5.5 0 0 0-.385.156l-.12.127a8.025 8.025 0 0 0-2.083-5.685 7.966 7.966 0 0 0-5.643-2.604zm-17.995-.002a8.006 8.006 0 0 0-8.12 6.428 8.007 8.007 0 0 0 5.026 9.054 8.006 8.006 0 0 0 9.75-3.488.5.5 0 0 0-.183-.682.5.5 0 0 0-.684.184 6.993 6.993 0 0 1-8.531 3.049 6.992 6.992 0 0 1-4.397-7.92 6.997 6.997 0 0 1 7.106-5.625 6.994 6.994 0 0 1 6.701 6.098.5.5 0 0 0 .004.017l-.018.037-2.226-1.22a.5.5 0 0 0-.678.197.5.5 0 0 0 .197.68l2.698 1.478a.5.5 0 0 0 .695-.23l1.352-2.942a.5.5 0 0 0-.245-.662.5.5 0 0 0-.232-.045.5.5 0 0 0-.432.291l-.43.934a8.008 8.008 0 0 0-4.577-5.031 7.97 7.97 0 0 0-2.776-.602zM63.029 2a7.977 7.977 0 0 0-3.94 1.02 8.005 8.005 0 0 0-3.722 9.372 8.004 8.004 0 0 0 8.406 5.57.5.5 0 0 0 .45-.546.5.5 0 0 0-.546-.447 6.997 6.997 0 0 1-7.357-4.875 6.995 6.995 0 0 1 3.258-8.202 6.995 6.995 0 0 1 8.695 1.504 6.961 6.961 0 0 1 1.64 3.659l-.257-.166a.5.5 0 0 0-.692.148.5.5 0 0 0 .147.691l.86.559a6.96 6.96 0 0 1-1.386 3.932.5.5 0 0 0 .1.697.5.5 0 0 0 .7-.096 7.97 7.97 0 0 0 1.591-4.453l.895-.879a.5.5 0 0 0 .004-.707.5.5 0 0 0-.375-.148.5.5 0 0 0-.333.142l-.234.23a7.994 7.994 0 0 0-.48-1.911A7.998 7.998 0 0 0 63.029 2zM417.48 4a.5.5 0 0 0-.33.146.5.5 0 0 0 0 .708L422.296 10l-5.146 5.147a.5.5 0 0 0 0 .707.5.5 0 0 0 .709 0l5.144-5.147 5.147 5.147a.5.5 0 0 0 .709 0 .5.5 0 0 0 0-.707L423.712 10l5.147-5.146a.5.5 0 0 0 0-.708.5.5 0 0 0-.71 0l-5.146 5.147-5.144-5.147A.5.5 0 0 0 417.48 4zm-18 0a.5.5 0 0 0-.33.146.5.5 0 0 0 0 .708L404.296 10l-5.146 5.147a.5.5 0 0 0 0 .707.5.5 0 0 0 .709 0l5.144-5.147 5.147 5.147a.5.5 0 0 0 .709 0 .5.5 0 0 0 0-.707L405.712 10l4.704-4.705a.5.5 0 0 0 0-.707.5.5 0 0 0-.708 0l-4.705 4.705-5.144-5.147A.5.5 0 0 0 399.48 4zm-18 0a.5.5 0 0 0-.33.146.5.5 0 0 0 0 .708L386.296 10l-5.146 5.147a.5.5 0 0 0 0 .707.5.5 0 0 0 .709 0l5.144-5.147 5.147 5.147a.5.5 0 0 0 .709 0 .5.5 0 0 0 0-.707L387.712 10l4.57-4.572a.5.5 0 0 0 0-.707.5.5 0 0 0-.706 0l-4.573 4.572-5.144-5.147A.5.5 0 0 0 381.48 4zm-18 0a.5.5 0 0 0-.33.146.5.5 0 0 0 0 .708L368.296 10l-5.146 5.147a.5.5 0 0 0 0 .707.5.5 0 0 0 .709 0l5.144-5.147 5.147 5.147a.5.5 0 0 0 .709 0 .5.5 0 0 0 0-.707L369.712 10l4.35-4.352a.5.5 0 0 0 0-.707.5.5 0 0 0-.707 0l-4.352 4.352-5.144-5.147A.5.5 0 0 0 363.48 4zm-18 0a.5.5 0 0 0-.33.146.5.5 0 0 0 0 .708L350.296 10l-5.146 5.147a.5.5 0 0 0 0 .707.5.5 0 0 0 .709 0l5.144-5.147 5.147 5.147a.5.5 0 0 0 .709 0 .5.5 0 0 0 0-.707L351.712 10l3.555-3.555a.5.5 0 0 0 0-.707.5.5 0 0 0-.707 0l-3.555 3.555-5.146-5.147A.5.5 0 0 0 345.48 4zm-18 0a.5.5 0 0 0-.33.146.5.5 0 0 0 0 .708L332.296 10l-5.146 5.147a.5.5 0 0 0 0 .707.5.5 0 0 0 .709 0l5.144-5.147 5.147 5.147a.5.5 0 0 0 .709 0 .5.5 0 0 0 0-.707L333.712 10l2.45-2.451a.5.5 0 0 0 0-.707.5.5 0 0 0-.707 0l-2.452 2.451-5.144-5.147A.5.5 0 0 0 327.48 4zm-18 0a.5.5 0 0 0-.33.146.5.5 0 0 0 0 .708L314.296 10l-5.146 5.147a.5.5 0 0 0 0 .707.5.5 0 0 0 .709 0l5.144-5.147 5.147 5.147a.5.5 0 0 0 .709 0 .5.5 0 0 0 0-.707L315.712 10l1.036-1.037a.5.5 0 0 0 0-.707.5.5 0 0 0-.707 0l-1.038 1.037-5.144-5.147A.5.5 0 0 0 309.48 4zm-18 0a.5.5 0 0 0-.33.146.5.5 0 0 0 0 .708L296.296 10l-5.146 5.147a.5.5 0 0 0 0 .707.5.5 0 0 0 .709 0l5.144-5.147 5.147 5.147a.5.5 0 0 0 .709 0 .5.5 0 0 0 0-.707l-11-11A.5.5 0 0 0 291.48 4zm-18 0a.5.5 0 0 0-.33.146.5.5 0 0 0 0 .708l10.559 10.559a.5.5 0 0 0 .707 0 .5.5 0 0 0 0-.708L273.859 4.146A.5.5 0 0 0 273.48 4zm1.102 9.9a.5.5 0 0 0-.33.147l-1.102 1.1a.5.5 0 0 0 0 .707.5.5 0 0 0 .709 0l1.1-1.1a.5.5 0 0 0 0-.707.5.5 0 0 0-.377-.147zM255.48 4a.5.5 0 0 0-.33.146.5.5 0 0 0 0 .708l10.516 10.514a.5.5 0 0 0 .707 0 .5.5 0 0 0 0-.708L255.859 4.146A.5.5 0 0 0 255.48 4zm-18 0a.5.5 0 0 0-.33.146.5.5 0 0 0 0 .708l10.205 10.205a.5.5 0 0 0 .707 0 .5.5 0 0 0 0-.708L237.859 4.146A.5.5 0 0 0 237.48 4zm-18 0a.5.5 0 0 0-.33.146.5.5 0 0 0 0 .708l9.586 9.585a.5.5 0 0 0 .707 0 .5.5 0 0 0 0-.707l-9.584-9.586a.5.5 0 0 0-.38-.146zm-18 0a.5.5 0 0 0-.33.146.5.5 0 0 0 0 .708l8.393 8.392a.5.5 0 0 0 .709 0 .5.5 0 0 0 0-.707l-8.393-8.393A.5.5 0 0 0 201.48 4zm-18 0a.5.5 0 0 0-.33.146.5.5 0 0 0 0 .708l6.978 6.978a.5.5 0 0 0 .707 0 .5.5 0 0 0 0-.707l-6.976-6.979a.5.5 0 0 0-.38-.146zm-18 0a.5.5 0 0 0-.33.146.5.5 0 0 0 0 .708l4.594 4.591a.5.5 0 0 0 .707 0 .5.5 0 0 0 0-.707l-4.592-4.592A.5.5 0 0 0 165.48 4zm-18 0a.5.5 0 0 0-.33.146.5.5 0 0 0 0 .708l1.277 1.277a.5.5 0 0 0 .71 0 .5.5 0 0 0 0-.707l-1.278-1.278A.5.5 0 0 0 147.48 4z"/>
    <path d="M80.863 1.834a7.98 7.98 0 0 0-2.533.463 8.001 8.001 0 0 0 .77 15.3.5.5 0 0 0 .605-.365.5.5 0 0 0-.365-.605 6.995 6.995 0 0 1-5.31-6.443 6.994 6.994 0 0 1 4.636-6.944 6.998 6.998 0 0 1 7.957 10.787.5.5 0 0 0 .101.7.5.5 0 0 0 .7-.1 8.003 8.003 0 0 0 .035-9.543 8.007 8.007 0 0 0-6.596-3.25z" style="opacity:.9"/>
    <path d="M99.668 1.82a8.003 8.003 0 0 0-8.584 6.963 8.006 8.006 0 0 0 4.242 8.108.5.5 0 0 0 .674-.213.5.5 0 0 0-.213-.674 6.997 6.997 0 0 1-3.71-7.094 6.999 6.999 0 0 1 12.798-2.953 6.997 6.997 0 0 1-.228 8.002.5.5 0 0 0 .103.701.5.5 0 0 0 .7-.105A8.002 8.002 0 0 0 99.667 1.82z" style="opacity:.75"/>
    <path d="M117.33 1.766a7.982 7.982 0 0 0-5.398 1.818 8.005 8.005 0 0 0-1.627 10.521.5.5 0 0 0 .691.148.5.5 0 0 0 .148-.691 6.994 6.994 0 0 1 1.424-9.207 6.993 6.993 0 0 1 9.309.361 6.994 6.994 0 0 1 .707 9.29.5.5 0 0 0 .094.7.5.5 0 0 0 .7-.093 8.007 8.007 0 0 0-.808-10.617 7.98 7.98 0 0 0-5.24-2.23z" style="opacity:.46"/>
    <path d="M134.3 1.752a8.004 8.004 0 0 0-7.164 9.324.5.5 0 0 0 .576.408.5.5 0 0 0 .408-.578 6.997 6.997 0 0 1 4.022-7.568 6.996 6.996 0 0 1 8.334 1.996 6.996 6.996 0 0 1 .156 8.568.5.5 0 0 0 .102.702.5.5 0 0 0 .699-.104 8.002 8.002 0 0 0-.178-9.791 8.004 8.004 0 0 0-6.955-2.957z" style="opacity:.25"/>
    <path d="M152.37 1.71a7.979 7.979 0 0 0-5.3 2.63.5.5 0 0 0 .036.705.5.5 0 0 0 .707-.037 6.994 6.994 0 0 1 9.59-.785 6.993 6.993 0 0 1 1.315 9.53.5.5 0 0 0 .115.698.5.5 0 0 0 .697-.117 8.007 8.007 0 0 0-1.502-10.893 7.979 7.979 0 0 0-5.658-1.73z" style="opacity:.14"/>
    <path d="M171.63 1.67a7.983 7.983 0 0 0-5.229 1.441.5.5 0 0 0-.12.698.5.5 0 0 0 .697.119 6.994 6.994 0 0 1 8.904.685 6.992 6.992 0 0 1 .984 8.875.5.5 0 0 0 .145.694.5.5 0 0 0 .691-.143 8.007 8.007 0 0 0-1.125-10.146 7.983 7.983 0 0 0-4.947-2.223z" style="opacity:.06"/>
</svg>
