<svg xmlns="http://www.w3.org/2000/svg" width="16" height="16" viewBox="0 0 16 16">
   <path
   style="fill:context-fill;fill-opacity:context-fill-opacity"
   d="M 4.4960938 0 C 3.1153838 0 1.9960938 1.11929 1.9960938 2.5 L 1.9960938 6.2597656 C 2.3031637 6.0058156 2.6382737 5.7847425 2.9960938 5.6015625 L 2.9960938 2.5 C 2.9960938 1.67157 3.6676637 1 4.4960938 1 L 6.9960938 1 L 6.9960938 2.5 C 6.9960938 3.32843 7.6676637 4 8.4960938 4 L 14.998047 4 L 14.998047 11.5 C 14.998047 12.3284 14.326447 13 13.498047 13 L 10.400391 13 C 10.217491 13.3578 9.9958875 13.6929 9.7421875 14 L 13.498047 14 C 14.878747 14 15.998047 12.8807 15.998047 11.5 L 15.998047 2.5 C 15.998047 1.11929 14.878747 0 13.498047 0 L 4.4960938 0 z M 7.9960938 1 L 13.498047 1 C 14.326447 1 14.998047 1.67157 14.998047 2.5 L 14.998047 3 L 8.4960938 3 C 8.2199537 3 7.9960938 2.77614 7.9960938 2.5 L 7.9960938 1 z M 8.5 5.5 C 8.22386 5.5 8 5.72386 8 6 L 8 7.0507812 C 8 7.0507812 7.0516027 6 5.5 6 C 3.01472 6 1 8.0147 1 10.5 C 1 12.9853 3.01472 15 5.5 15 C 7.98528 15 10 12.9853 10 10.5 C 10 10.2239 9.7761 10 9.5 10 C 9.2239 10 9 10.2239 9 10.5 C 9 12.433 7.433 14 5.5 14 C 3.567 14 2 12.433 2 10.5 C 2 8.567 3.567 7 5.5 7 C 7.0775703 7 7.6269531 8 7.6269531 8 L 6 8 C 5.72386 8 5.5 8.2239 5.5 8.5 C 5.5 8.7761 5.72386 9 6 9 L 8.5 9 C 8.77614 9 9 8.7761 9 8.5 L 9 6 C 9 5.72386 8.77614 5.5 8.5 5.5 z " />
</svg>
