<svg xmlns="http://www.w3.org/2000/svg" width="16" height="16" viewBox="0 0 16 16">
   <path
   style="fill:context-fill;fill-opacity:context-fill-opacity"
   d="m 13.5,0.5 c 0.276097,4.3e-5 0.49995,0.223896 0.5,0.5 V 4.5 C 14,4.776054 13.776125,4.999929 13.5,5 H 10 C 9.723896,4.99995 9.500043,4.776097 9.5,4.5 9.500029,4.223833 9.723904,3.999958 10,4 h 3 V 3.5839844 C 11.81962,2.3794214 9.8188483,1.500028 8,1.5 4.410153,1.499993 1.5,4.410146 1.5,8 1.499993,8.315759 1.523026,8.6264655 1.566406,8.9296875 1.605506,9.2030545 1.415931,9.4550376 1.142578,9.4941406 0.869211,9.5332406 0.615275,9.3436655 0.576172,9.0703125 0.526109,8.7203225 0.5,8.363283 0.5,8 0.500007,3.8578602 3.857818,0.500049 8,0.5 c 1.9206859,4.2e-5 3.67351,0.7229663 5,1.9101562 V 1 c -4.2e-5,-0.276096 0.223833,-0.499971 0.5,-0.5 z m 1.357422,6.0058594 c 0.273367,-0.039103 0.527303,0.1504747 0.566406,0.4238281 C 15.473891,7.279677 15.5,7.6367169 15.5,8 c -7e-6,4.14214 -3.357818,7.499951 -7.5,7.5 -1.9206859,-4.2e-5 -3.67351,-0.722966 -5,-1.910156 V 15 c 4.2e-5,0.276096 -0.223833,0.499971 -0.5,0.5 C 2.223903,15.499957 2.00005,15.276104 2,15 V 11.5 C 2,11.223946 2.223875,11.000071 2.5,11 H 6 c 0.276104,5e-5 0.499957,0.223903 0.5,0.5 C 6.499971,11.776167 6.276096,12.000042 6,12 H 3 v 0.416016 c 1.18038,1.204563 3.1811517,2.083956 5,2.083984 3.589847,7e-6 6.5,-2.910146 6.5,-6.5 7e-6,-0.3157585 -0.02303,-0.626466 -0.06641,-0.9296875 -0.0391,-0.2733675 0.150475,-0.5253501 0.423828,-0.5644531 z" />
</svg>
