<svg xmlns="http://www.w3.org/2000/svg" width="16" height="16" viewBox="0 0 16 16">
   <path
   style="fill:context-fill;fill-opacity:context-fill-opacity"
   d="M 8,0 C 7.903306,0 7.8066313,0.02800437 7.7226563,0.08398437 5.7844663,1.3761144 3.6867744,2.1831294 1.4277344,2.5058594 1.1814044,2.5410394 1,2.75117 1,3 v 4.5 c 1e-7,3.891301 2.3067926,6.730797 6.8203126,8.466797 0.11554,0.0444 0.2419218,0.0444 0.3574218,0 C 12.691235,14.230797 15,11.391301 15,7.5 V 3 C 15,2.75117 14.816613,2.5410394 14.570313,2.5058594 12.311313,2.1831294 10.215444,1.3761144 8.2773438,0.08398437 8.1933438,0.02800437 8.0966938,0 8,0 Z M 8,1.0976563 8.4003907,1.3457031 C 10.146791,2.3959331 12.0146,3.0904144 14,3.4277344 V 7.5 c 0,3.392001 -1.967899,5.863091 -6,7.462891 C 3.96795,13.363091 2,10.892001 2,7.5 V 3.4277344 C 3.98541,3.0904144 5.8512663,2.3959331 7.5976563,1.3457031 Z" />
</svg>
