<?xml version="1.0" encoding="UTF-8" standalone="no"?>
<svg xmlns="http://www.w3.org/2000/svg" width="16" height="16" viewBox="0 0 16 16">
   <path
   style="fill:context-fill;fill-opacity:context-fill-opacity"
   d="M 8 0 C 7.4892078 1.25625e-06 6.9781058 0.2605667 6.6953125 0.78125 L 0.18554688 12.765625 C -0.36012118 13.770348 0.35793995 15 1.4902344 15 L 14.509766 15 C 15.64205 15 16.360101 13.770348 15.814453 12.765625 L 9.3046875 0.78125 C 9.0218893 0.26056168 8.5107922 -1.25625e-06 8 0 z M 8 1.0058594 C 8.1702694 1.0058594 8.3413139 1.0920622 8.4355469 1.265625 L 14.943359 13.25 C 15.125175 13.584875 14.887194 13.994141 14.509766 13.994141 L 1.4902344 13.994141 C 1.1127958 13.994141 0.87474465 13.584875 1.0566406 13.25 L 7.5644531 1.265625 C 7.6587159 1.0920622 7.8297306 1.0058594 8 1.0058594 z M 8.0605469 4.9257812 C 7.7844069 4.9257812 7.5605469 5.1496413 7.5605469 5.4257812 L 7.5605469 9.4257812 C 7.5605469 9.7018812 7.7844069 9.9257812 8.0605469 9.9257812 C 8.3366469 9.9257812 8.5605469 9.7018812 8.5605469 9.4257812 L 8.5605469 5.4257812 C 8.5605469 5.1496413 8.3366469 4.9257812 8.0605469 4.9257812 z M 8.0605469 10.925781 C 7.6463369 10.925781 7.3105469 11.261481 7.3105469 11.675781 C 7.3105469 12.089981 7.6463369 12.425781 8.0605469 12.425781 C 8.4747469 12.425781 8.8105469 12.089981 8.8105469 11.675781 C 8.8105469 11.261481 8.4747469 10.925781 8.0605469 10.925781 z " />
</svg>
