<svg xmlns="http://www.w3.org/2000/svg" width="16" height="16" viewBox="0 0 16 16">
   <path
   style="fill:context-fill;fill-opacity:context-fill-opacity"
   d="M 4 0 C 2.89543 0 2 0.89543 2 2 L 2 14 C 2 15.1046 2.89543 16 4 16 L 12 16 C 13.1046 16 14 15.1046 14 14 L 14 5.4140625 C 14 5.0162425 13.841847 4.6348256 13.560547 4.3535156 L 9.6464844 0.43945312 C 9.3651844 0.15815313 8.9837375 -3.7007434e-17 8.5859375 0 L 4 0 z M 4 1 L 8 1 L 8 4.5 C 8 5.32843 8.6716 6 9.5 6 L 13 6 L 13 14 C 13 14.5523 12.5523 15 12 15 L 4 15 C 3.44772 15 3 14.5523 3 14 L 3 2 C 3 1.44772 3.44772 1 4 1 z M 9 1.2070312 L 12.792969 5 L 9.5 5 C 9.2239 5 9 4.77614 9 4.5 L 9 1.2070312 z " />
</svg>
