<svg xmlns="http://www.w3.org/2000/svg" width="16" height="16" viewBox="0 0 16 16">
   <path
   style="fill:context-fill;fill-opacity:context-fill-opacity"
   d="M 4.5253906 3.875 A 0.625 0.625 0 0 0 4.0585938 4.0585938 A 0.625 0.625 0 0 0 4.0585938 4.9414062 L 7.1171875 8 L 4.0585938 11.058594 A 0.625 0.625 0 0 0 4.0585938 11.941406 A 0.625 0.625 0 0 0 4.9414062 11.941406 L 8 8.8828125 L 11.058594 11.941406 A 0.625 0.625 0 0 0 11.941406 11.941406 A 0.625 0.625 0 0 0 11.941406 11.058594 L 8.8828125 8 L 11.941406 4.9414062 A 0.625 0.625 0 0 0 11.941406 4.0585938 A 0.625 0.625 0 0 0 11.525391 3.875 A 0.625 0.625 0 0 0 11.058594 4.0585938 L 8 7.1171875 L 4.9414062 4.0585938 A 0.625 0.625 0 0 0 4.5253906 3.875 z " />
</svg>
