<svg xmlns="http://www.w3.org/2000/svg" width="16" height="16" viewBox="0 0 16 16">
   <path
   style="fill:context-fill;fill-opacity:context-fill-opacity"
   d="M 7.9160156,0.0078125 C 7.8399081,0.02078625 7.76694,0.05052125 7.703125,0.09765625 7.575485,0.19192625 7.5,0.34133 7.5,0.5 v 9.904297 C 6.91605,9.8438971 6.12325,9.5 5.25,9.5 3.45507,9.5 2,10.9551 2,12.75 2,14.5449 3.45507,16 5.25,16 7.04493,16 8.5,14.5449 8.5,12.75 8.5,12.6897 8.4974406,12.629813 8.4941406,12.570312 8.4973406,12.547413 8.5,12.5238 8.5,12.5 V 5.1777344 l 5.853516,1.8007812 c 0.1516,0.04667 0.315659,0.018098 0.443359,-0.076172 C 14.924475,6.8080737 15,6.65868 15,6.5 V 3.9765625 C 15,2.8790525 14.283375,1.9106506 13.234375,1.5878906 L 8.1464844,0.02148438 C 8.0706794,-0.00184563 7.9921231,-0.00516125 7.9160156,0.0078125 Z M 8.5,1.1777344 12.941406,2.5429688 C 13.570806,2.7366288 14,3.3180625 14,3.9765625 V 5.8222656 L 8.5,4.1308594 Z M 5.25,10.5 c 1.24264,0 2.25,1.0074 2.25,2.25 C 7.5,13.9926 6.49264,15 5.25,15 4.00736,15 3,13.9926 3,12.75 3,11.5074 4.00736,10.5 5.25,10.5 Z" />
</svg>
