<svg xmlns="http://www.w3.org/2000/svg" width="16" height="16" viewBox="0 0 16 16">
   <path
   style="fill:context-fill;fill-opacity:context-fill-opacity"
   d="M 0.4765625,0 C 0.35212981,0.00600283 0.23441978,0.058241 0.14648438,0.14648438 c -0.1952118,0.19525349 -0.1952118,0.51177776 0,0.70703124 L 1.5136719,2.2207031 C 0.62669988,2.6032364 0,3.4723386 0,4.5 v 8 C 0,13.8807 1.11929,15 2.5,15 h 11 c 0.240009,0 0.467554,-0.04128 0.685547,-0.107422 l 0.960937,0.960938 c 0.195254,0.195212 0.511778,0.195212 0.707032,0 0.195212,-0.195254 0.195212,-0.511778 0,-0.707032 L 0.85351562,0.14648438 C 0.75409874,0.04675245 0.61723513,-0.00643289 0.4765625,0 Z M 6.1191406,0 C 5.5520906,0 5.0339269,0.31951188 4.7792969,0.82617188 L 4.1894531,2 h -0.068359 l 0.7773437,0.7773438 c 0.013723,-0.0196 0.035935,-0.030967 0.046875,-0.052734 L 5.671875,1.2753906 C 5.756755,1.1065006 5.9301306,1 6.1191406,1 h 3.7636719 c 0.1893995,0 0.3625655,0.1079336 0.4472655,0.2773438 l 0.72461,1.4453124 C 11.139385,2.8920763 11.3106,3 11.5,3 h 2 C 14.3285,3 15,3.67157 15,4.5 v 8 c 0,0.116393 -0.01593,0.229116 -0.04102,0.337891 l 0.769532,0.769531 C 15.895551,13.27215 16,12.900017 16,12.5 v -8 C 16,3.11929 14.8808,2 13.5,2 H 11.810547 L 11.224609,0.83007812 C 10.970509,0.32183812 10.451013,0 9.8828125,0 Z M 2.3125,3.0195312 4.8515625,5.5585938 C 4.3234157,6.2354931 3.9960937,7.0747578 3.9960938,8 c 0,2.2092 1.7908599,4 4,4 0.9249249,0 1.7643941,-0.327878 2.4414062,-0.855469 L 13.292969,14 H 2.5 C 1.67157,14 1,13.3284 1,12.5 v -8 C 1,3.7357127 1.573469,3.1126275 2.3125,3.0195312 Z M 7.9960938,4 C 7.4428631,4 6.9167095,4.1133361 6.4375,4.3164062 L 7.2304688,5.109375 C 7.4759936,5.0444201 7.7301461,5 7.9960938,5 c 1.6568599,0 3.0000002,1.34318 3.0000002,3 0,0.2659541 -0.04442,0.5200974 -0.109375,0.765625 l 0.792969,0.7929688 C 11.882752,9.0793814 11.996094,8.5532456 11.996094,8 c 0,-2.20911 -1.79084,-4 -4.0000002,-4 z M 5.5546875,6.2617188 9.7363281,10.443359 C 9.0678439,10.919395 8.2335295,11.100799 7.4277344,10.945312 6.0866851,10.684705 5.0910595,9.5509771 5.0058594,8.1875 4.9628408,7.5016609 5.1565823,6.821842 5.5546875,6.2617188 Z" />
</svg>
