<svg xmlns="http://www.w3.org/2000/svg" width="16" height="16" viewBox="0 0 16 16">
   <path
   style="fill:context-fill;fill-opacity:context-fill-opacity"
   d="M 0.5 0 C 0.37204 0 0.24411438 0.048849375 0.14648438 0.14648438 C -0.048785625 0.34174437 -0.048785625 0.65825563 0.14648438 0.85351562 L 1.5546875 2.2617188 C 1.2054575 2.7521188 1 3.35208 1 4 L 1 12 C 1 13.6568 2.34315 15 4 15 L 12 15 C 12.6479 15 13.24788 14.794513 13.738281 14.445312 L 15.146484 15.853516 C 15.341784 16.048715 15.658216 16.048715 15.853516 15.853516 C 16.048715 15.658216 16.048715 15.341784 15.853516 15.146484 L 0.85351562 0.14648438 C 0.75588563 0.048849375 0.62796 0 0.5 0 z M 4 1 C 3.73127 1 3.4704862 1.0352825 3.2226562 1.1015625 L 4.1210938 2 L 12 2 C 13.104599 2 14 2.89543 14 4 L 14 11.878906 L 14.898438 12.777344 C 14.964738 12.529544 15 12.2687 15 12 L 15 4 C 15 2.34314 13.6569 1 12 1 L 4 1 z M 2.2773438 2.984375 L 7.4140625 8.1210938 C 7.2455125 8.1925938 7.0875887 8.2957406 6.9492188 8.4316406 L 2.2792969 13.019531 C 2.1018369 12.720831 2 12.372599 2 12 L 2 4 C 2 3.6291 2.1014038 3.282135 2.2773438 2.984375 z M 10.5 4 C 9.6715995 4 9 4.67157 9 5.5 C 9 6.32842 9.6715995 7 10.5 7 C 11.328399 7 12 6.32842 12 5.5 C 12 4.67157 11.328399 4 10.5 4 z M 10.5 5 C 10.7761 5 11 5.22385 11 5.5 C 11 5.77614 10.7761 6 10.5 6 C 10.2239 6 10 5.77614 10 5.5 C 10 5.22385 10.2239 5 10.5 5 z M 8 9.0019531 C 8.1265813 9.0019531 8.2523594 9.0489812 8.3496094 9.1445312 L 13.011719 13.726562 C 12.714819 13.900961 12.3692 14 12 14 L 4 14 C 3.63085 14 3.2850913 13.900961 2.9882812 13.726562 L 7.6503906 9.1445312 C 7.7476556 9.0489813 7.8734187 9.0019531 8 9.0019531 z " />
</svg>
