<svg xmlns="http://www.w3.org/2000/svg" width="16" height="16" viewBox="0 0 16 16">
   <path
   style="fill:context-fill;fill-opacity:context-fill-opacity"
   d="M 7.9944998,0 C 4.7670514,0 2.1233205,2.4512694 2.0006669,5.5683594 l -0.00586,0.2246094 v 3.6074218 l -0.92378,2.2207034 -0.042966,0.126953 -0.021483,0.126953 c -0.050413,0.4635 0.1925992,0.881734 0.6034846,1.052734 l 0.1249936,0.04297 c 0.084582,0.0228 0.1717797,0.0332 0.2597522,0.0332 h 3.5017734 l 0.00586,0.160156 C 5.587112,14.468163 6.6706426,15.5 7.9964529,15.5 c 1.3255401,0 2.4108421,-1.030284 2.4959661,-2.333984 l 0.0039,-0.16211 h 3.503733 l 0.134759,-0.0098 0.115228,-0.02734 C 14.702854,12.837766 15,12.451875 15,12.003875 l -0.0078,-0.130859 -0.01563,-0.08594 c -0.01271,-0.0569 -0.03012,-0.111915 -0.05273,-0.166015 L 13.998098,9.3984375 V 5.8027344 L 13.994192,5.578125 13.980521,5.3554688 C 13.739959,2.3349487 11.144248,0 7.9944998,0 Z m 0,1 C 10.692232,1 12.889116,3.0340119 12.994243,5.6074219 L 12.998149,5.8125 V 9.5 l 0.03906,0.1914062 0.962842,2.3124998 -0.04492,0.002 -11.9603232,-0.002 L 2.957649,9.6914062 2.9947565,9.5 V 5.8027344 l 0.00391,-0.2050782 0.013671,-0.2128906 C 3.2224077,2.9235056 5.3712765,1 7.9944998,1 Z M 6.4965299,13.003906 h 2.999846 l -0.00586,0.140625 C 9.4178982,13.905131 8.7763529,14.5 7.9964529,14.5 L 7.851929,14.4922 C 7.138936,14.424087 6.5729095,13.857231 6.5043419,13.144531 Z" />
</svg>
