<svg xmlns="http://www.w3.org/2000/svg" width="16" height="16" viewBox="0 0 16 16">
   <path
   style="fill:context-fill;fill-opacity:context-fill-opacity"
   d="M 0.5 0 C 0.37204 -1.8503717e-17 0.24411437 0.048849375 0.14648438 0.14648438 C -0.048785625 0.34174438 -0.048785625 0.65825563 0.14648438 0.85351562 L 2.5839844 3.2910156 C 2.2415244 3.9833356 2.0359863 4.7529394 2.0039062 5.5683594 L 2 5.7929688 L 2 9.4003906 L 1.0761719 11.621094 L 1.0332031 11.748047 L 1.0117188 11.875 C 0.96131875 12.3385 1.2044544 12.756734 1.6152344 12.927734 L 1.7382812 12.970703 C 1.8228412 12.993503 1.9100969 13.003906 1.9980469 13.003906 L 5.5 13.003906 L 5.5058594 13.164062 C 5.5905094 14.468162 6.67453 15.5 8 15.5 C 9.3252 15.5 10.409041 14.469716 10.494141 13.166016 L 10.5 13.003906 L 12.296875 13.003906 L 15.146484 15.853516 C 15.341784 16.048715 15.658216 16.048715 15.853516 15.853516 C 16.048715 15.658216 16.048715 15.341784 15.853516 15.146484 L 0.85351562 0.14648438 C 0.75588563 0.048849375 0.62796 1.8503717e-17 0.5 0 z M 7.9980469 0 C 6.3587869 0 4.8694362 0.6328325 3.7851562 1.6640625 L 4.4921875 2.3710938 C 5.3939475 1.5227137 6.6316469 1 7.9980469 1 C 10.695086 1 12.890994 3.0340119 12.996094 5.6074219 L 13 5.8125 L 13 9.5 L 13.039062 9.6914062 L 13.914062 11.791016 L 14.765625 12.644531 C 14.915624 12.469632 15.001953 12.245106 15.001953 12.003906 L 14.992188 11.873047 L 14.976562 11.787109 C 14.963862 11.730209 14.946428 11.675194 14.923828 11.621094 L 13.998047 9.3984375 L 14 5.8027344 L 13.996094 5.578125 L 13.982422 5.3554688 C 13.741921 2.3349488 11.146987 5.9211895e-16 7.9980469 0 z M 3.3378906 4.0449219 L 11.298828 12.005859 L 1.9980469 12.003906 L 2.9609375 9.6914062 L 3 9.5 L 3 5.8027344 L 3.0039062 5.5976562 L 3.0175781 5.3847656 C 3.0576181 4.9155356 3.1671206 4.4654719 3.3378906 4.0449219 z M 6.5 13.003906 L 9.5 13.003906 L 9.4921875 13.144531 C 9.4195875 13.905131 8.7797 14.5 8 14.5 L 7.8554688 14.492188 C 7.1426587 14.424087 6.5763625 13.857232 6.5078125 13.144531 L 6.5 13.003906 z " />
</svg>
