<svg xmlns="http://www.w3.org/2000/svg" width="16" height="16" viewBox="0 0 16 16">
   <path
   style="fill:context-fill;fill-opacity:context-fill-opacity"
   d="M 8 0 C 6.2085461 0 4.4176162 0.68334625 3.0507812 2.0507812 C 0.31711125 4.7856412 0.31711125 9.2201786 3.0507812 11.955078 L 4.5703125 13.453125 L 6.6132812 15.439453 L 6.7460938 15.556641 C 7.5208638 16.18464 8.6568187 16.145852 9.3867188 15.439453 L 11.822266 13.068359 L 12.949219 11.955078 C 15.682919 9.2201786 15.682919 4.7856412 12.949219 2.0507812 C 11.582419 0.68334625 9.7914539 0 8 0 z M 8 0.99804688 C 9.5363963 0.99804688 11.07194 1.5831244 12.244141 2.7558594 C 14.528541 5.0411994 14.587122 8.7101058 12.419922 11.066406 L 12.244141 11.25 L 10.923828 12.554688 L 8.6933594 14.722656 L 8.5996094 14.802734 C 8.2453094 15.070534 7.7545706 15.070534 7.4003906 14.802734 L 7.3066406 14.722656 L 4.3261719 11.816406 L 3.7558594 11.25 L 3.5800781 11.066406 C 1.4128881 8.7101058 1.4715194 5.0411994 3.7558594 2.7558594 C 4.9280844 1.5831244 6.4636037 0.99804688 8 0.99804688 z M 8 4 C 6.34315 4 5 5.34315 5 7 C 5 8.6569 6.34315 10 8 10 C 9.6569 10 11 8.6569 11 7 C 11 5.34315 9.6569 4 8 4 z M 8 5 C 9.1046 5 10 5.89543 10 7 C 10 8.1046 9.1046 9 8 9 C 6.89543 9 6 8.1046 6 7 C 6 5.89543 6.89543 5 8 5 z " />
</svg>
