<svg xmlns="http://www.w3.org/2000/svg" width="16" height="16" viewBox="0 0 16 16">
   <path
   style="fill:context-fill;fill-opacity:context-fill-opacity"
   d="m 0.4999681,0 c -0.12796,0 -0.2558856,0.048854 -0.3535156,0.1464844 -0.19527,0.19526 -0.19527,0.5117713 0,0.7070313 L 4.9999681,5.7070313 V 8 c 0,1.65682 1.34315,3 3,3 0.6479,0 1.2478813,-0.205487 1.7382813,-0.554687 l 1.0703126,1.070312 C 10.038762,12.131525 9.0624681,12.5 7.9999681,12.5 c -2.48528,0 -4.5,-2.01468 -4.5,-4.5 0,-0.27614 -0.22386,-0.5 -0.5,-0.5 -0.27614,0 -0.5,0.22386 -0.5,0.5 0,2.86902 2.19675,5.225815 5,5.478516 V 15.5 c 0,0.2761 0.22386,0.5 0.5,0.5 0.2761,0 0.5,-0.2239 0.5,-0.5 v -2.021484 c 1.1434,-0.1031 2.1858309,-0.556953 3.0195309,-1.251953 l 3.626954,3.626953 c 0.1953,0.1952 0.511731,0.1952 0.707031,0 0.1952,-0.1953 0.1952,-0.511832 0,-0.707031 L 0.8534838,0.1464844 C 0.7558538,0.0488544 0.6279281,0 0.4999681,0 Z m 7.5,0 C 6.3829781,0 5.0644112,1.2791794 5.0019212,2.8808594 L 5.9999681,3.8789063 V 3 c 0,-1.10457 0.89543,-2 2,-2 1.1046,0 2,0.89543 2,2 V 7.8789063 L 10.898406,8.7773438 C 10.964706,8.5295438 10.999968,8.26872 10.999968,8 V 3 c 0,-1.65685 -1.3430999,-3 -2.9999999,-3 z m -2,6.7070313 3.015625,3.015625 C 8.7177931,9.8985563 8.3708681,10 7.9999681,10 c -1.10457,0 -2,-0.89538 -2,-2 z M 12.999968,7.5 c -0.2761,0 -0.5,0.22386 -0.5,0.5 0,0.69472 -0.158253,1.3520532 -0.439453,1.9394531 l 0.742187,0.7421879 C 13.246703,9.8882406 13.499968,8.97372 13.499968,8 c 0,-0.27614 -0.2239,-0.5 -0.5,-0.5 z" />
</svg>
