<svg xmlns="http://www.w3.org/2000/svg" width="16" height="16" viewBox="0 0 16 16">
   <path
   style="fill:context-fill;fill-opacity:context-fill-opacity"
   d="M 4 1 C 2.8910052 0.99999998 1.9062178 1.7271555 1.5800781 2.7871094 L 0.16992188 7.375 C 0.05778371 7.739449 -1.381105e-09 8.118689 0 8.5 L 0 9.25 L 0 10.021484 L 0 11.75 C 0 12.986717 1.0132829 14 2.25 14 L 13.75 14 C 14.986717 14 16 12.986717 16 11.75 L 16 10.890625 A 0.5 0.5 0 0 0 16 10.878906 L 16 9.25 L 16 8.5 C 16 8.118689 15.942216 7.739449 15.830078 7.375 L 14.419922 2.7871094 C 14.093782 1.7271554 13.108995 0.99999987 12 1 L 4 1 z M 4 2 L 12 2 C 12.674189 1.9999999 13.264621 2.4357021 13.462891 3.0800781 L 14.744141 7.2441406 C 14.442664 7.093378 14.108131 7 13.75 7 L 2.25 7 C 1.8918692 7 1.5573365 7.093378 1.2558594 7.2441406 L 2.5371094 3.0800781 C 2.7353789 2.4357021 3.3258107 2 4 2 z M 2.25 8 L 13.75 8 C 14.44628 8 15 8.5537204 15 9.25 L 15 10.878906 L 15 11.75 C 15 12.44628 14.44628 13 13.75 13 L 2.25 13 C 1.5537204 13 1 12.44628 1 11.75 L 1 10.033203 A 0.5 0.5 0 0 0 1 10.021484 L 1 9.25 C 1 8.5537204 1.5537204 8 2.25 8 z M 10.5 9.875 A 0.625 0.625 0 0 0 9.875 10.5 A 0.625 0.625 0 0 0 10.5 11.125 A 0.625 0.625 0 0 0 11.125 10.5 A 0.625 0.625 0 0 0 10.5 9.875 z M 12.5 9.875 A 0.625 0.625 0 0 0 11.875 10.5 A 0.625 0.625 0 0 0 12.5 11.125 A 0.625 0.625 0 0 0 13.125 10.5 A 0.625 0.625 0 0 0 12.5 9.875 z " />
</svg>
