<svg xmlns="http://www.w3.org/2000/svg" width="16" height="16" viewBox="0 0 16 16">
   <path
   style="fill:context-fill;fill-opacity:context-fill-opacity"
   d="M 0.4765625,0 C 0.35212979,0.00600273 0.23441973,0.05824092 0.14648438,0.14648438 c -0.19521235,0.19525327 -0.19521235,0.51177797 0,0.70703124 L 1.7265625,2.4335938 C 1.6709217,2.5470608 1.6181211,2.6634696 1.5800781,2.7871094 L 0.16992188,7.375 C 0.0577837,7.739449 0,8.118689 0,8.5 V 9.25 10.021484 11.75 C 0,12.986717 1.0132829,14 2.25,14 h 11.042969 l 1.853515,1.853516 c 0.195253,0.195213 0.511779,0.195213 0.707032,0 0.195213,-0.195253 0.195213,-0.511779 0,-0.707032 L 0.85351562,0.14648438 C 0.75409881,0.04675235 0.61723516,-0.00643301 0.4765625,0 Z M 4,1 C 3.7378478,1 3.4833991,1.0450374 3.2421875,1.1210938 L 4.1210938,2 H 12 c 0.674189,-1e-7 1.264621,0.4357021 1.462891,1.0800781 l 1.28125,4.1640625 C 14.442664,7.093378 14.108131,7 13.75,7 H 9.1210938 L 10.121094,8 H 13.75 C 14.44628,8 15,8.5537204 15,9.25 V 10.878906 11.75 c 0,0.316437 -0.124315,0.595499 -0.314453,0.814453 l 0.707031,0.707031 C 15.765273,12.869498 16,12.33753 16,11.75 v -0.859375 c 4.6e-5,-0.0039 4.6e-5,-0.0078 0,-0.01172 V 9.25 8.5 C 16,8.118689 15.942216,7.739449 15.830078,7.375 L 14.419922,2.7871094 C 14.093782,1.7271554 13.108995,0.99999987 12,1 Z M 2.4980469,3.2050781 6.2929688,7 H 2.25 C 1.8918692,7 1.5573365,7.093378 1.2558594,7.2441406 Z M 2.25,8 h 5.0429688 l 5.0000002,5 H 2.25 C 1.5537204,13 1,12.44628 1,11.75 v -1.716797 c 4.58e-5,-0.0039 4.58e-5,-0.0078 0,-0.01172 V 9.25 C 1,8.5537204 1.5537204,8 2.25,8 Z" />
</svg>
