<svg xmlns="http://www.w3.org/2000/svg" width="16" height="16" viewBox="0 0 16 16">
   <path
   style="fill:context-fill;fill-opacity:context-fill-opacity"
   d="M 8,0 C 6.61933,0 5.5,1.1187689 5.5,2.4988362 c 0,0.2480645 0.036176,0.4883064 0.1035156,0.714511 L 3.3632812,2.3660855 C 2.4936513,2.0371787 1.5190744,2.4477515 1.1464844,3.2992446 0.74785437,4.2102403 1.1907904,5.2690323 2.1191406,5.6262858 L 5,6.7351444 V 9.1344177 L 3.3574219,13.657701 c -0.31828,0.877092 0.1108062,1.849524 0.9726562,2.207957 0.91822,0.381922 1.9683969,-0.07983 2.3105469,-1.0132 L 8,11.1452 9.3652344,14.846601 c 0.3542,0.961153 1.4564126,1.411752 2.3828126,0.974156 0.8144,-0.384721 1.201831,-1.326511 0.894531,-2.172816 L 11,9.1227043 V 6.73124 L 13.867188,5.6438558 C 14.743787,5.3116606 15.204009,4.3497617 14.912109,3.4593264 14.600609,2.5093388 13.558247,2.0116406 12.623047,2.3660855 L 10.396484,3.2094427 C 10.463384,2.9839178 10.5,2.7460511 10.5,2.4988362 10.5,1.1187689 9.3808,0 8,0 Z m 0,0.99953448 c 0.8285,0 1.5,0.67125742 1.5,1.49930172 0,0.8280443 -0.6715,1.4993017 -1.5,1.4993017 -0.82838,0 -1.5,-0.6712574 -1.5,-1.4993017 C 6.5,1.6707919 7.17162,0.99953448 8,0.99953448 Z M 2.7285156,3.2523914 c 0.093765,-0.00235 0.188385,0.013682 0.28125,0.048805 L 7.1132812,4.853208 c 0.5706801,0.2158394 1.2009844,0.2162392 1.7714844,0 L 12.978516,3.3011969 c 0.4019,-0.152359 0.850475,0.060192 0.984375,0.4685318 0.1254,0.3827417 -0.07242,0.7981845 -0.449219,0.940968 L 10.322266,5.9191182 C 10.127966,5.992734 10,6.1780346 10,6.3856978 v 2.8248563 c 0,0.058073 0.0094,0.1171204 0.0293,0.171795 l 1.673828,4.6072299 c 0.1312,0.361331 -0.03511,0.763078 -0.382813,0.927302 -0.395599,0.186813 -0.866378,-0.0055 -1.017578,-0.415823 L 8.9335938,10.782087 c -0.3195,-0.8671953 -1.5471544,-0.8657429 -1.8652344,0.002 L 5.703125,14.508868 C 5.556795,14.908082 5.1055906,15.105584 4.7128906,14.94226 4.3442906,14.788931 4.1627081,14.372512 4.2988281,13.997387 L 5.96875,9.3921101 C 5.98857,9.3375356 6,9.2804403 6,9.2222674 V 6.3915544 C 6,6.1848308 5.8726975,5.9992503 5.6796875,5.9249749 L 2.4785156,4.6931267 C 2.0819656,4.5405178 1.89222,4.0885777 2.0625,3.6994489 2.1818625,3.426666 2.4472192,3.2594439 2.7285156,3.2523914 Z" />
</svg>
