<svg xmlns="http://www.w3.org/2000/svg" width="16" height="16" viewBox="0 0 16 16">
   <path
   style="fill:context-fill;fill-opacity:context-fill-opacity"
   d="M 8.8504388,0.00977038 C 8.6629345,0.03710632 8.4792359,0.12112764 8.3192562,0.26966235 L 4.446701,3.8651603 C 4.3542428,3.951012 4.2330344,3.9980375 4.1069005,3.9980375 H 1.4998096 C 0.67148474,3.9980375 0,4.6699341 0,5.4987671 v 5.0024319 c 0,0.828803 0.67148474,1.50073 1.4998096,1.50073 h 2.6070909 c 0.1261339,0 0.2473423,0.04703 0.3398005,0.132876 l 3.8725552,3.595498 C 8.959175,16.324492 9.9987305,15.87095 9.9987305,14.997525 V 1.0024404 c 0,-0.65508341 -0.5857787,-1.07467786 -1.1482917,-0.99267002 z M 8.9988575,1.0024404 V 14.997525 L 5.1263022,11.402027 C 4.8489275,11.144502 4.4853124,11.001443 4.1069005,11.001443 H 1.4998096 c -0.276105,0 -0.49993655,-0.224009 -0.49993655,-0.500244 V 5.4987671 c 0,-0.2762743 0.22383155,-0.5002432 0.49993655,-0.5002432 h 2.6070909 c 0.3784119,0 0.742027,-0.1430202 1.0194017,-0.4005855 z m 4.6205075,1.4948675 c -0.127759,-0.00701 -0.258495,0.034835 -0.361282,0.1270149 -0.205674,0.1843596 -0.223235,0.501615 -0.03905,0.707375 2.375698,2.6530799 2.375598,6.6834802 0,9.3365702 -0.184277,0.2057 -0.166616,0.523086 0.03905,0.707376 0.205674,0.184389 0.520712,0.166618 0.704988,-0.03908 2.715855,-3.033075 2.715955,-7.6401032 0,-10.6731577 -0.09209,-0.1028851 -0.215947,-0.159083 -0.343706,-0.1660964 z M 12.269926,5.002432 c -0.06445,0.008 -0.129636,0.027997 -0.189429,0.06253 -0.239069,0.1381372 -0.319599,0.44467 -0.181617,0.6839263 0.832295,1.4423912 0.776102,3.1540333 0,4.5021897 -0.137782,0.239416 -0.0557,0.545958 0.18357,0.683926 0.23927,0.137866 0.545725,0.05564 0.683507,-0.183683 0.94688,-1.6449004 1.015918,-3.7385383 -0.002,-5.5026759 C 12.660443,5.0692033 12.463295,4.9784273 12.269926,5.002432 Z" />
</svg>
