<svg xmlns="http://www.w3.org/2000/svg" width="16" height="16" viewBox="0 0 16 16">
   <path
   style="fill:context-fill;fill-opacity:context-fill-opacity"
   d="M 3,1 C 1.89543,1 1,1.89543 1,3 v 7.999516 c 0,1.10461 0.89543,2 2,2 h 7.999758 c 1.10461,0 2,-0.89539 2,-2 V 3 c 0,-1.10457 -0.89539,-2 -2,-2 z m 0,1 h 7.999758 c 0.55231,0 1,0.44771 1,1 v 7.999516 c 0,0.55231 -0.44769,1 -1,1 H 3 c -0.55229,0 -1,-0.44769 -1,-1 V 3 C 2,2.44771 2.44771,2 3,2 Z m 10.999758,0.2675781 v 9.2319379 c 0,1.3807 -1.1193,2.5 -2.5,2.5 H 2.2675781 c 0.34581,0.5978 0.9921419,1 1.7324219,1 h 7.499758 c 1.933,0 3.5,-1.567 3.5,-3.5 V 4 c 0,-0.74028 -0.4022,-1.3866119 -1,-1.7324219 z M 4,3.5 c -0.1279613,0 -0.2558806,0.048854 -0.3535156,0.1464844 -0.19526,0.19527 -0.2344606,0.5611505 0,0.7070312 l 2.6462422,2.646 L 3.6464844,9.646 c -0.1952511,0.1952689 -0.19526,0.511761 0,0.707031 0.19527,0.19526 0.4553606,0.113644 0.7070312,0 L 6.9997578,7.7065468 9.6462422,10.353031 c 0.19526,0.19526 0.5117608,0.19526 0.7070308,0 0.19526,-0.19527 0.19526,-0.511771 0,-0.707031 l -2.646484,-2.6464844 2.646484,-2.646 c 0.195278,-0.1952421 0.19526,-0.5117612 0,-0.7070312 -0.19527,-0.19526 -0.4725642,-0.1458711 -0.7070308,0 l -2.6464844,2.646 -2.6462422,-2.646 C 4.2558811,3.5488589 4.1279613,3.5 4,3.5 Z" />
</svg>
