<svg xmlns="http://www.w3.org/2000/svg" width="16" height="16" viewBox="0 0 16 16">
   <path
   style="fill:context-fill;fill-opacity:context-fill-opacity"
   d="M 6 1 C 4.34315 1 3 2.34315 3 4 L 3 10 C 3 11.6569 4.34315 13 6 13 L 12 13 C 13.6569 13 15 11.6569 15 10 L 15 4 C 15 2.34315 13.6569 1 12 1 L 6 1 z M 6 2 L 12 2 C 13.1046 2 14 2.89543 14 4 L 14 10 C 14 10.3709 13.898556 10.717825 13.722656 11.015625 L 10.208984 7.5019531 C 9.5411844 6.8341531 8.4587656 6.8341531 7.7910156 7.5019531 L 4.2773438 11.015625 C 4.1013937 10.717825 4 10.3709 4 10 L 4 4 C 4 2.89543 4.89543 2 6 2 z M 6.4980469 3.5019531 C 5.9471369 3.5019531 5.5 3.94909 5.5 4.5 C 5.5 5.0509 5.9471369 5.4960938 6.4980469 5.4960938 C 7.0489569 5.4960938 7.4941406 5.0509 7.4941406 4.5 C 7.4941406 3.94909 7.0489569 3.5019531 6.4980469 3.5019531 z M 2 3.7636719 C 1.38625 4.3129919 1 5.1115 1 6 L 1 10.5 C 1 12.9853 3.01472 15 5.5 15 L 10 15 C 10.8885 15 11.687028 14.6138 12.236328 14 L 5.5 14 C 3.68782 14 2.1968081 12.622322 2.0175781 10.857422 C 2.0056281 10.739722 2 10.6208 2 10.5 L 2 3.7636719 z M 9 8.0019531 C 9.1817 8.0019531 9.3633531 8.0703344 9.5019531 8.2089844 L 13.015625 11.722656 C 12.717825 11.898556 12.3709 12 12 12 L 6 12 C 5.6291 12 5.282125 11.898556 4.984375 11.722656 L 8.4980469 8.2089844 C 8.6366469 8.0703344 8.8183 8.0019531 9 8.0019531 z " />
</svg>
