<svg xmlns="http://www.w3.org/2000/svg" width="16" height="16" viewBox="0 0 16 16">
   <path
   style="fill:context-fill;fill-opacity:context-fill-opacity"
   d="M 5.5 0 C 4.11929 0 3 1.11929 3 2.5 L 3 10.5 C 3 11.8807 4.11929 13 5.5 13 L 13.5 13 C 14.8807 13 16 11.8807 16 10.5 L 16 2.5 C 16 1.11929 14.8807 0 13.5 0 L 5.5 0 z M 5.5 1 L 7 1 L 7 2.5 C 7 3.32843 7.67161 4 8.5 4 L 15 4 L 15 10.5 C 15 11.3284 14.3285 12 13.5 12 L 5.5 12 C 4.67157 12 4 11.3284 4 10.5 L 4 2.5 C 4 1.67157 4.67157 1 5.5 1 z M 8 1 L 13.5 1 C 14.3285 1 15 1.67157 15 2.5 L 15 3 L 8.5 3 C 8.2239 3 8 2.77614 8 2.5 L 8 1 z M 2 3.0507812 C 0.85888 3.2824113 2.9605947e-16 4.29052 0 5.5 L 0 12 C 0 14.2091 1.79087 16 4 16 L 10.5 16 C 11.7095 16 12.717619 15.1411 12.949219 14 L 11.914062 14 C 11.708163 14.5826 11.1532 15 10.5 15 L 4 15 C 2.34315 15 1 13.6568 1 12 L 1 5.5 C 1 4.84689 1.4174 4.2918575 2 4.0859375 L 2 3.0507812 z " />
</svg>
