<svg xmlns="http://www.w3.org/2000/svg" width="16" height="16" viewBox="0 0 16 16">
   <path
   style="fill:context-fill;fill-opacity:context-fill-opacity"
   d="M 8,0.5 C 6.61929,0.5 5.5,1.61929 5.5,3 H 1 C 0.72386,3 0.5,3.22386 0.5,3.5 L 0.507813,3.589844 C 0.5501425,3.8230838 0.75454,4 1,4 h 0.5527344 l 1.296875,10.228899 c 0.11644,1.0092 0.9704481,1.771484 1.9863281,1.771484 h 6.3281245 c 1.015901,0 1.869929,-0.762284 1.986329,-1.771484 L 14.445312,4 H 15 C 15.2761,4 15.5,3.77614 15.5,3.5 15.5,3.22386 15.2761,3 15,3 H 10.5 C 10.5,1.61929 9.3807,0.5 8,0.5 Z m 0,1 c 0.8284,0 1.5,0.67157 1.5,1.5 h -3 C 6.5,2.17157 7.17157,1.5 8,1.5 Z M 2.5605469,4 H 13.4375 l -1.28125,10.115617 c -0.0582,0.5046 -0.484188,0.884766 -0.992188,0.884766 H 4.8359375 c -0.50794,0 -0.9339675,-0.380166 -0.9921875,-0.884766 z M 6.5,6.5 C 6.22386,6.5 6,6.69588 6,6.9375 v 5.12475 l 0.00781,0.07813 c 0.042332,0.204095 0.24673,0.35937 0.49219,0.35937 0.27614,0 0.5,-0.1959 0.5,-0.4375 V 6.9375 L 6.9921875,6.859375 C 6.9498575,6.655285 6.74546,6.5 6.5,6.5 Z m 3,0 C 9.2239,6.5 9,6.69588 9,6.9375 v 5.12475 l 0.00781,0.07813 c 0.042302,0.204095 0.24669,0.35937 0.49219,0.35937 0.2761,0 0.5,-0.1959 0.5,-0.4375 V 6.9375 L 9.9921875,6.859375 C 9.9498875,6.655285 9.7455,6.5 9.5,6.5 Z" />
</svg>
