<svg xmlns="http://www.w3.org/2000/svg" width="16" height="16" viewBox="0 0 16 16">
   <path
   style="fill:context-fill;fill-opacity:context-fill-opacity"
   d="M 2 1 C 0.89543 1 0 1.89543 0 3 L 0 10 C 0 11.1046 0.89543 12 2 12 L 7 12 L 7 11 L 2 11 C 1.44772 11 1 10.5523 1 10 L 1 3 C 1 2.44772 1.44772 2 2 2 L 14 2 C 14.5523 2 15 2.44772 15 3 L 15 10 C 15 10.5135 14.613434 10.937241 14.115234 10.994141 L 14.560547 11.439453 C 14.673647 11.552553 14.765937 11.681259 14.835938 11.818359 C 15.523137 11.501859 16 10.8062 16 10 L 16 3 C 16 1.89543 15.1046 1 14 1 L 2 1 z M 8.5976562 7.0097656 C 8.5026563 6.9908631 8.4019937 7.0003525 8.3085938 7.0390625 C 8.1216938 7.1164625 8 7.2978 8 7.5 L 8 14.5 C 8 14.7183 8.1414094 14.910962 8.3496094 14.976562 C 8.5577094 15.042162 8.7850563 14.965909 8.9101562 14.787109 L 10.480469 12.541016 L 13.423828 12.994141 C 13.637528 13.027041 13.847612 12.919463 13.945312 12.726562 C 14.043012 12.533762 14.006316 12.299284 13.853516 12.146484 L 8.8535156 7.1464844 C 8.7820156 7.0749844 8.6926562 7.0286681 8.5976562 7.0097656 z M 9 8.7070312 L 12.066406 11.773438 L 10.326172 11.505859 C 10.138072 11.476959 9.9490438 11.556891 9.8398438 11.712891 L 9 12.914062 L 9 8.7070312 z " />
</svg>
