<svg xmlns="http://www.w3.org/2000/svg" width="16" height="16" viewBox="0 0 16 16">
   <path
   style="fill:context-fill;fill-opacity:context-fill-opacity"
   d="M 9.9570312 0.50195312 C 9.8436188 0.51159563 9.7332844 0.55969937 9.6464844 0.64648438 C 9.4729844 0.82004438 9.4528906 1.0902862 9.5878906 1.2851562 L 9.6464844 1.3535156 L 11.302734 3.0097656 C 11.202534 3.0037756 11.1017 3 11 3 L 5 3 L 4.7832031 3.0039062 C 2.1224031 3.1174663 0 5.31124 0 8 C 1.4802974e-16 9.1817 0.40936 10.267047 1.09375 11.123047 C 1.18455 11.248847 1.333 11.332031 1.5 11.332031 C 1.77614 11.332031 2 11.108131 2 10.832031 C 2 10.714631 1.9587013 10.605084 1.8945312 10.521484 C 1.3347312 9.8332844 1 8.9563 1 8 C 1 5.79086 2.79086 4 5 4 L 11 4 L 11.142578 4.0019531 L 11.283203 4.0097656 L 9.6464844 5.6464844 L 9.5878906 5.7148438 C 9.4697906 5.8853538 9.4697906 6.1146462 9.5878906 6.2851562 L 9.6464844 6.3535156 L 9.7148438 6.4121094 C 9.8853437 6.5302294 10.114656 6.5302294 10.285156 6.4121094 L 10.353516 6.3535156 L 12.853516 3.8535156 L 12.912109 3.7851562 C 13.030209 3.6146462 13.030209 3.3853538 12.912109 3.2148438 L 12.853516 3.1464844 L 10.353516 0.64648438 L 10.285156 0.58789062 C 10.187706 0.52039563 10.070444 0.49231062 9.9570312 0.50195312 z M 14.5 4.671875 C 14.2239 4.671875 14 4.895735 14 5.171875 C 14 5.290655 14.041275 5.399815 14.109375 5.484375 C 14.666275 6.171665 15 7.04652 15 8 C 15 10.2091 13.2091 12 11 12 L 5 12 L 4.8574219 11.998047 L 4.7167969 11.990234 L 6.3535156 10.353516 L 6.4121094 10.285156 C 6.5470994 10.090256 6.5270856 9.8200844 6.3535156 9.6464844 C 6.1582556 9.4512844 5.8417444 9.4512844 5.6464844 9.6464844 L 3.1464844 12.146484 L 3.0878906 12.214844 C 2.9529006 12.409744 2.9729144 12.679916 3.1464844 12.853516 L 5.6464844 15.353516 L 5.7148438 15.412109 C 5.9097138 15.547109 6.1799556 15.527016 6.3535156 15.353516 L 6.4121094 15.285156 C 6.5470994 15.090256 6.5270856 14.820084 6.3535156 14.646484 L 4.6972656 12.990234 C 4.7975056 12.996234 4.89826 13 5 13 L 11 13 L 11.216797 12.996094 C 13.877597 12.882494 16 10.6888 16 8 C 16 6.81091 15.585678 5.7195281 14.892578 4.8613281 L 14.875 4.8398438 L 14.808594 4.7773438 C 14.723694 4.7107538 14.6163 4.671875 14.5 4.671875 z " />
</svg>
