<svg xmlns="http://www.w3.org/2000/svg" width="16" height="16" viewBox="0 0 16 16">
   <path
   style="fill:context-fill;fill-opacity:context-fill-opacity"
   d="M 10.5 1 C 10.372025 1 10.244134 1.0488494 10.146484 1.1464844 C 9.9512839 1.3417444 9.9512839 1.6582556 10.146484 1.8535156 L 12.292969 4 L 2.5 4 C 2.22386 4 2 4.22386 2 4.5 C 2 4.77614 2.22386 5 2.5 5 L 12.292969 5 L 10.146484 7.1464844 C 9.9512839 7.3417444 9.9512839 7.6582556 10.146484 7.8535156 C 10.341784 8.0487656 10.658216 8.0487656 10.853516 7.8535156 L 13.853516 4.8535156 C 14.048716 4.6582556 14.048716 4.3417444 13.853516 4.1464844 L 10.853516 1.1464844 C 10.755866 1.0488494 10.627975 1 10.5 1 z M 5.5 8 C 5.37204 8 5.2441144 8.0488744 5.1464844 8.1464844 L 2.1464844 11.146484 C 1.9512144 11.341784 1.9512144 11.658216 2.1464844 11.853516 L 5.1464844 14.853516 C 5.3417444 15.048716 5.6582556 15.048716 5.8535156 14.853516 C 6.0487856 14.658216 6.0487856 14.341784 5.8535156 14.146484 L 3.7070312 12 L 13.5 12 C 13.7761 12 14 11.7761 14 11.5 C 14 11.2239 13.7761 11 13.5 11 L 3.7070312 11 L 5.8535156 8.8535156 C 6.0487856 8.6582156 6.0487856 8.3417844 5.8535156 8.1464844 C 5.7558856 8.0488744 5.62796 8 5.5 8 z " />
</svg>
