<svg xmlns="http://www.w3.org/2000/svg" width="16" height="16" viewBox="0 0 16 16">
   <path
   style="fill:context-fill;fill-opacity:context-fill-opacity"
   d="m 8.8515625,0.00977037 c -0.1875281,0.02733591 -0.37125,0.11135712 -0.53125,0.25989166 L 4.4472656,3.8651557 c -0.09247,0.085862 -0.2136937,0.132877 -0.3398437,0.132877 H 1.5 c -0.82843,0 -1.5,0.6719058 -1.5,1.5007278 v 5.0024265 c 0,0.828802 0.67157,1.500728 1.5,1.500728 h 2.6074219 c 0.12615,0 0.2473737,0.04693 0.3398437,0.132876 l 3.8730469,3.595494 C 8.9603125,16.324473 10,15.871031 10,14.997507 V 1.0024392 C 10,0.34735658 9.4141469,-0.07223737 8.8515625,0.00977037 Z M 9,1.0024392 V 14.997507 L 5.1269531,11.402014 C 4.8495431,11.144389 4.4858819,11.001429 4.1074219,11.001429 H 1.5 c -0.27614,0 -0.5,-0.224008 -0.5,-0.500242 V 5.4987605 C 1,5.2224865 1.22386,4.9985179 1.5,4.9985179 h 2.6074219 c 0.37846,0 0.7421212,-0.1430301 1.0195312,-0.400585 z m 2.5,4.4963213 c -0.127963,0 -0.255866,0.048878 -0.353516,0.1465554 -0.1952,0.1953547 -0.1952,0.5120096 0,0.7073743 l 1.646485,1.6472833 -1.646485,1.6472832 c -0.1952,0.1953947 -0.1952,0.5120793 0,0.7073743 0.1953,0.195394 0.511832,0.195394 0.707032,0 L 13.5,8.7073478 15.146484,10.354631 c 0.1953,0.195394 0.511832,0.195394 0.707032,0 0.1953,-0.195295 0.1953,-0.5119796 0,-0.7073743 L 14.207031,7.9999735 15.853516,6.3526902 c 0.1953,-0.1953647 0.1953,-0.5120196 0,-0.7073743 -0.1952,-0.1953548 -0.511732,-0.1953548 -0.707032,0 L 13.5,7.2925992 11.853516,5.6453159 C 11.755916,5.5476385 11.627963,5.4987605 11.5,5.4987605 Z" />
</svg>
