<svg xmlns="http://www.w3.org/2000/svg" width="16" height="16" viewBox="0 0 16 16">
   <path
   style="fill:context-fill;fill-opacity:context-fill-opacity"
   d="M 2.5 0 C 1.1194824 0 -8.8817842e-16 1.11929 0 2.5 L 0 11.5 C 0 12.8807 1.1194824 14 2.5 14 L 7.1621094 14 C 7.0631232 13.6844 7.0076523 13.35 7.0019531 13 L 2.5 13 C 1.6716855 13 1 12.3284 1 11.5 L 1 4 L 14.001953 4 L 14.001953 3 L 13.998047 3 L 13.998047 2.5 C 13.998047 1.11929 12.878555 0 11.498047 0 L 2.5 0 z M 2.5 1 L 11.498047 1 C 12.326332 1 12.998047 1.67157 12.998047 2.5 L 12.998047 3 L 1 3 L 1 2.5 C 1 1.67157 1.6716855 1 2.5 1 z M 12.001953 5 C 10.621446 5 9.5019531 6.11929 9.5019531 7.5 C 9.5019531 8.8807 10.621446 10 12.001953 10 C 12.819739 10 13.545916 9.6072 14.001953 9 L 12.001953 9 C 11.173669 9 10.501953 8.3284 10.501953 7.5 C 10.501953 6.67157 11.173669 6 12.001953 6 L 14.001953 6 C 13.545916 5.39278 12.819739 5 12.001953 5 z M 12.001953 7 L 12.001953 8 L 14.451172 8 C 14.483962 7.8384 14.5 7.6712 14.5 7.5 C 14.5 7.3288 14.483972 7.1616 14.451172 7 L 12.001953 7 z M 9.5507812 11 C 9.0858461 11 8.6966105 11.235597 8.4355469 11.529297 C 8.176383 11.820797 8.0019531 12.214241 8.0019531 12.619141 L 8.0019531 12.939453 C 8.0019531 14.573853 9.6354832 16 12.001953 16 C 13.24248 16 14.28048 15.6082 14.988281 15 L 12.001953 15 C 9.9724363 15 9.0019531 13.828453 9.0019531 12.939453 L 9.0019531 12.619141 C 9.0019531 12.493741 9.0627106 12.329259 9.1835938 12.193359 C 9.3024772 12.059659 9.4358973 12 9.5507812 12 L 15.867188 12 C 15.791999 11.8266 15.688489 11.666697 15.566406 11.529297 C 15.305343 11.235597 14.916107 11 14.451172 11 L 9.5507812 11 z M 12.001953 13 L 12.001953 14 L 15.761719 14 C 15.909099 13.6847 15.991501 13.3474 16 13 L 12.001953 13 z " />
</svg>
