<svg xmlns="http://www.w3.org/2000/svg" width="16" height="16" viewBox="0 0 16 16">
  <path
  style="fill:context-fill;fill-opacity:context-fill-opacity"
  d="M 2 0 C 0.90135282 -2.9447211e-16 -5.9211895e-16 0.90135282 0 2 L 0 3.5 A 0.5 0.5 0 0 0 0.5 4 A 0.5 0.5 0 0 0 1 3.5 L 1 2 C 1 1.4417929 1.4417929 1 2 1 L 3.5 1 A 0.5 0.5 0 0 0 4 0.5 A 0.5 0.5 0 0 0 3.5 0 L 2 0 z M 12.5 0 A 0.5 0.5 0 0 0 12 0.5 A 0.5 0.5 0 0 0 12.5 1 L 14 1 C 14.558207 1 15 1.4417929 15 2 L 15 3.5 A 0.5 0.5 0 0 0 15.5 4 A 0.5 0.5 0 0 0 16 3.5 L 16 2 C 16 0.90135282 15.098647 -5.9211895e-16 14 0 L 12.5 0 z M 4.5 2 C 3.1252104 2 2 3.1252104 2 4.5 L 2 11.5 C 2 12.87479 3.1252104 14 4.5 14 L 11.5 14 C 12.87479 14 14 12.87479 14 11.5 L 14 4.5 C 14 3.1252104 12.87479 2 11.5 2 L 4.5 2 z M 4.5 3 L 7 3 L 7 4.5 C 7 5.3225043 7.6774957 6 8.5 6 L 13 6 L 13 11.5 C 13 12.334349 12.334349 13 11.5 13 L 4.5 13 C 3.6656506 13 3 12.334349 3 11.5 L 3 4.5 C 3 3.6656506 3.6656506 3 4.5 3 z M 8 3 L 11.5 3 C 12.334349 3 13 3.6656506 13 4.5 L 13 5 L 8.5 5 C 8.2179348 5 8 4.7820652 8 4.5 L 8 3 z M 0.5 12 A 0.5 0.5 0 0 0 0 12.5 L 0 14 C -2.9447211e-16 15.098647 0.90135282 16 2 16 L 3.5 16 A 0.5 0.5 0 0 0 4 15.5 A 0.5 0.5 0 0 0 3.5 15 L 2 15 C 1.4417929 15 1 14.558207 1 14 L 1 12.5 A 0.5 0.5 0 0 0 0.5 12 z M 15.5 12 A 0.5 0.5 0 0 0 15 12.5 L 15 14 C 15 14.558207 14.558207 15 14 15 L 12.5 15 A 0.5 0.5 0 0 0 12 15.5 A 0.5 0.5 0 0 0 12.5 16 L 14 16 C 15.098647 16 16 15.098647 16 14 L 16 12.5 A 0.5 0.5 0 0 0 15.5 12 z " />
</svg>
