<svg xmlns="http://www.w3.org/2000/svg" width="16" height="16" viewBox="0 0 16 16">
   <path
   style="fill:context-fill;fill-opacity:context-fill-opacity"
   d="M 3.5 1 C 2.1195789 1 1 2.11929 1 3.5 L 1 12.5 C 1 13.8807 2.1195789 15 3.5 15 L 12.498047 15 C 13.878458 15 14.998047 13.8807 14.998047 12.5 L 14.998047 5 L 15 5 L 15 4 L 14.998047 4 L 14.998047 3.5 C 14.998047 2.11929 13.878458 1 12.498047 1 L 3.5 1 z M 3.5 2 L 12.498047 2 C 13.326273 2 13.998047 2.67157 13.998047 3.5 L 13.998047 4 L 2 4 L 2 3.5 C 2 2.67157 2.6717433 2 3.5 2 z M 2 5 L 13.998047 5 L 13.998047 12.5 C 13.998047 13.3284 13.326273 14 12.498047 14 L 3.5 14 C 2.6717433 14 2 13.3284 2 12.5 L 2 5 z " />
</svg>
