<svg xmlns="http://www.w3.org/2000/svg" width="16" height="16" viewBox="0 0 16 16">
   <path
   style="fill:context-fill;fill-opacity:context-fill-opacity"
   d="M 8.5 1 C 8.2239 1 8 1.22386 8 1.5 C 8 1.77614 8.2239 2 8.5 2 L 13.292969 2 L 7.1464844 8.1464844 C 6.9512144 8.3417844 6.9512144 8.6582156 7.1464844 8.8535156 C 7.3417444 9.0487156 7.6582556 9.0487156 7.8535156 8.8535156 L 14 2.7070312 L 14 7.5 C 14 7.77614 14.2239 8 14.5 8 C 14.7761 8 15 7.77614 15 7.5 L 15 1.5 L 15 1.4960938 C 14.9996 1.4293937 14.986891 1.3666737 14.962891 1.3085938 C 14.938491 1.2496238 14.901416 1.1944244 14.853516 1.1464844 C 14.805516 1.0985444 14.750406 1.0615094 14.691406 1.0371094 C 14.632406 1.0126594 14.5678 1 14.5 1 L 8.5 1 z M 4 2 C 2.34315 2 1 3.34315 1 5 L 1 12 C 1 13.6569 2.34315 15 4 15 L 11 15 C 12.6569 15 14 13.6569 14 12 L 14 9.5 C 14 9.2239 13.7761 9 13.5 9 C 13.2239 9 13 9.2239 13 9.5 L 13 12 C 13 13.1046 12.1046 14 11 14 L 4 14 C 2.89543 14 2 13.1046 2 12 L 2 5 C 2 3.89543 2.89543 3 4 3 L 6.5 3 C 6.77614 3 7 2.77614 7 2.5 C 7 2.22386 6.77614 2 6.5 2 L 4 2 z " />
</svg>
