<svg xmlns="http://www.w3.org/2000/svg" width="16" height="16" viewBox="0 0 16 16">
   <path
   style="fill:context-fill;fill-opacity:context-fill-opacity"
   d="M 5.5 0 C 4.84689 0 4.2918575 0.4174 4.0859375 1 L 2.5 1 C 1.67157 1 1 1.67157 1 2.5 L 1 14.5 C 1 15.3284 1.67157 16 2.5 16 L 8.34375 16 C 7.9392748 15.715697 7.5720669 15.380402 7.2578125 15 L 2.5 15 C 2.22386 15 2 14.7761 2 14.5 L 2 2.5 C 2 2.22386 2.22386 2 2.5 2 L 4.0859375 2 C 4.2918575 2.5826 4.84689 3 5.5 3 L 8.5 3 C 9.1531 3 9.7081625 2.5826 9.9140625 2 L 11.5 2 C 11.7761 2 12 2.22386 12 2.5 L 12 6.0253906 C 12.344017 6.0564276 12.677196 6.1214396 13 6.2128906 L 13 2.5 C 13 1.67157 12.3284 1 11.5 1 L 9.9140625 1 C 9.7081625 0.4174 9.1531 0 8.5 0 L 5.5 0 z M 5.5 1 L 8.5 1 C 8.7761 1 9 1.22386 9 1.5 C 9 1.77614 8.7761 2 8.5 2 L 5.5 2 C 5.22386 2 5 1.77614 5 1.5 C 5 1.22386 5.22386 1 5.5 1 z M 11.5 7 C 9.0147 7 7 9.0147 7 11.5 C 7 13.9853 9.0147 16 11.5 16 C 13.9853 16 16 13.9853 16 11.5 C 16 9.0147 13.9853 7 11.5 7 z M 11.5 9 C 11.627975 9 11.755866 9.0488804 11.853516 9.1464844 L 13.853516 11.146484 C 13.901416 11.194484 13.938496 11.249594 13.962891 11.308594 C 13.986891 11.366694 13.9996 11.429394 14 11.496094 L 14 11.5 L 14 11.503906 C 13.9996 11.570606 13.986891 11.633306 13.962891 11.691406 C 13.938791 11.749506 13.902371 11.804163 13.855469 11.851562 L 13.853516 11.853516 L 11.853516 13.853516 C 11.658216 14.048716 11.341784 14.048716 11.146484 13.853516 C 10.951284 13.658216 10.951284 13.341784 11.146484 13.146484 L 12.292969 12 L 9.5 12 C 9.2239 12 9 11.7761 9 11.5 C 9 11.2239 9.2239 11 9.5 11 L 12.292969 11 L 11.146484 9.8535156 C 10.951284 9.6582156 10.951284 9.3417844 11.146484 9.1464844 C 11.244134 9.0488844 11.372025 9 11.5 9 z " />
</svg>
