<svg xmlns="http://www.w3.org/2000/svg" width="16" height="16" viewBox="0 0 16 16">
   <path
   style="fill:context-fill;fill-opacity:context-fill-opacity"
   d="M 3.5 1 C 2.67157 1 2 1.67157 2 2.5 L 2 13.5 C 2 14.3284 2.67157 15 3.5 15 L 5.5 15 C 6.32843 15 7 14.3284 7 13.5 L 7 2.5 C 7 1.67157 6.32843 1 5.5 1 L 3.5 1 z M 10.5 1 C 9.6716 1 9 1.67157 9 2.5 L 9 13.5 C 9 14.3284 9.6716 15 10.5 15 L 12.5 15 C 13.3284 15 14 14.3284 14 13.5 L 14 2.5 C 14 1.67157 13.3284 1 12.5 1 L 10.5 1 z M 3.5 2 L 5.5 2 C 5.77614 2 6 2.22386 6 2.5 L 6 13.5 C 6 13.7761 5.77614 14 5.5 14 L 3.5 14 C 3.22386 14 3 13.7761 3 13.5 L 3 2.5 C 3 2.22386 3.22386 2 3.5 2 z M 10.5 2 L 12.5 2 C 12.7761 2 13 2.22386 13 2.5 L 13 13.5 C 13 13.7761 12.7761 14 12.5 14 L 10.5 14 C 10.2239 14 10 13.7761 10 13.5 L 10 2.5 C 10 2.22386 10.2239 2 10.5 2 z " />
</svg>
