<svg xmlns="http://www.w3.org/2000/svg" width="16" height="16" viewBox="0 0 16 16">
   <path
   style="fill:context-fill;fill-opacity:context-fill-opacity"
   d="M 3,1 C 1.34315,1 0,2.34315 0,4 v 8 c 0,1.6569 1.34315,3 3,3 h 10 c 1.6569,0 3,-1.3431 3,-3 V 4 C 16,2.34315 14.6569,1 13,1 Z m 0,1 h 10 c 1.1046,0 2,0.89543 2,2 v 8 c 0,1.1046 -0.8954,2 -2,2 H 3 C 1.89543,14 1,13.1046 1,12 V 4 C 1,2.89543 1.89543,2 3,2 Z M 7,7 C 6.44772,7 6,7.44772 6,8 v 4 c 0,0.5523 0.44772,1 1,1 h 6 c 0.5523,0 1,-0.4477 1,-1 V 8 C 14,7.44772 13.5523,7 13,7 Z m 0,1 h 6 v 4 H 11.707031 L 9.3535156,9.6464844 c -0.1953,-0.1952 -0.5118312,-0.1952 -0.7070312,0 L 7,11.292969 Z m 4.5,1 C 11.2239,9 11,9.2239 11,9.5 11,9.7761 11.2239,10 11.5,10 11.7761,10 12,9.7761 12,9.5 12,9.2239 11.7761,9 11.5,9 Z M 9,10.707031 10.292969,12 H 7.7070312 Z" />
</svg>
