<svg xmlns="http://www.w3.org/2000/svg" width="16" height="16" viewBox="0 0 16 16">
   <path
   style="fill:context-fill;fill-opacity:context-fill-opacity"
   d="M 10.048828 1.0039062 C 9.2827783 0.95292051 8.5046094 1.34235 8.1230469 2.1054688 L 6.3925781 5.5644531 C 6.2282781 5.8930331 5.9485219 6.1506694 5.6074219 6.2871094 L 2.0175781 7.7226562 C 1.3510081 7.9892862 1.1759538 8.8498119 1.6835938 9.3574219 L 4.2929688 11.96875 L 1 15.261719 L 1 15.96875 L 1.7070312 15.96875 L 5 12.675781 L 7.609375 15.285156 C 8.117005 15.792756 8.9793937 15.615719 9.2460938 14.949219 L 10.681641 11.359375 C 10.818141 11.018275 11.075697 10.740472 11.404297 10.576172 L 14.861328 8.8457031 C 16.082328 8.2352031 16.348012 6.6078681 15.382812 5.6425781 L 11.324219 1.5859375 C 10.962269 1.2239538 10.508458 1.0344977 10.048828 1.0039062 z M 9.9804688 2.0019531 C 10.21029 2.0172479 10.436212 2.1119788 10.617188 2.2929688 L 14.675781 6.3496094 C 15.158381 6.8322494 15.024563 7.6459319 14.414062 7.9511719 L 10.957031 9.6816406 C 10.409431 9.9555406 9.9813062 10.419781 9.7539062 10.988281 L 8.3183594 14.578125 L 2.390625 8.6503906 L 5.9804688 7.2148438 C 6.5489687 6.9874437 7.0132894 6.5593588 7.2871094 6.0117188 L 9.015625 2.5527344 C 9.206375 2.1711719 9.5974336 1.9764619 9.9804688 2.0019531 z " />
</svg>
