<svg xmlns="http://www.w3.org/2000/svg" width="16" height="16" viewBox="0 0 16 16">
   <path
   style="fill:context-fill;fill-opacity:context-fill-opacity"
   d="M 3.4550781 1 C 2.6891655 1.0246998 2 1.6448125 2 2.5 L 2 13.5 C 2 14.6402 3.2229663 15.3625 4.2226562 14.8125 L 14.220703 9.3125 C 15.256103 8.7429 15.256103 7.25708 14.220703 6.6875 L 4.2226562 1.1875 C 3.9727338 1.050025 3.7103823 0.99176672 3.4550781 1 z M 3.484375 2 C 3.5694761 1.9972561 3.6569269 2.016675 3.7402344 2.0625 L 13.738281 7.5625 C 14.083481 7.75236 14.083481 8.2476 13.738281 8.4375 L 3.7402344 13.9375 C 3.4069944 14.1208 3 13.8801 3 13.5 L 3 2.5 C 3 2.2149325 3.2290717 2.0082317 3.484375 2 z " />
</svg>
