<svg xmlns="http://www.w3.org/2000/svg" width="16" height="16" viewBox="0 0 16 16">
   <path
   style="fill:context-fill;fill-opacity:context-fill-opacity"
   d="M 2.5,1 C 2.22386,1 2,1.22386 2,1.5 v 14 C 2,15.7761 2.22386,16 2.5,16 2.77614,16 3,15.7761 3,15.5 V 11 h 11 c 0.3993,0 0.637516,-0.445044 0.416016,-0.777344 L 11.601562,6 14.416016,1.7773438 C 14.637516,1.4450638 14.3993,1 14,1 Z M 3,2 h 10.066406 l -2.482422,3.7226562 c -0.112,0.1679501 -0.112,0.3867375 0,0.5546876 L 13.066406,10 H 3 Z M 7.5,3 C 7.2238574,2.9999994 6.9999994,3.2238574 7,3.5 v 3 c -6e-7,0.2761426 0.2238574,0.5000006 0.5,0.5 0.2761426,6e-7 0.5000006,-0.2238574 0.5,-0.5 v -3 C 8.0000006,3.2238574 7.7761426,2.9999994 7.5,3 Z m 0,5 C 7.2238576,8 7,8.2238576 7,8.5 7,8.7761424 7.2238576,9 7.5,9 7.7761424,9 8,8.7761424 8,8.5 8,8.2238576 7.7761424,8 7.5,8 Z" />
</svg>
