<svg xmlns="http://www.w3.org/2000/svg" width="16" height="16" viewBox="0 0 16 16">
   <path
   style="fill:context-fill;fill-opacity:context-fill-opacity"
   d="M 2.9998867,1 C 1.8953793,1 1,1.8953119 1,2.9997363 v 9.9986817 c 0,1.104454 0.8953793,1.999736 1.9998867,1.999736 h 3.003736 c 0.0073,-0.114085 0.025485,-0.230825 0.054685,-0.34761 L 6.2204073,13.998286 H 3.99983 V 9.4988793 c 0,-0.2760636 0.2238473,-0.4999341 0.4999717,-0.4999341 h 5.443051 L 10.942796,7.999077 H 4.4998017 c -0.8283831,0 -1.499915,0.6715115 -1.499915,1.4998023 v 4.4994067 c -0.5522487,0 -0.9999434,-0.447641 -0.9999434,-0.999868 V 2.9997363 c 0,-0.5522072 0.4476947,-0.9998682 0.9999434,-0.9998682 H 3.99983 v 2.4996704 c 0,0.8283208 0.671532,1.4998022 1.499915,1.4998022 h 3.9997734 c 0.8283526,0 1.4999146,-0.6714814 1.4999146,-1.4998022 V 1.9998681 h 0.378885 c 0.265185,0 0.519501,0.1054249 0.706992,0.2929302 l 1.621001,1.62088 c 0.187489,0.1875152 0.292952,0.441753 0.292952,0.7069381 v 1.38263 c 0.336681,-0.015458 0.675662,0.026383 0.999944,0.1288893 V 4.6206164 c 0,-0.5303601 -0.210825,-1.0388556 -0.585905,-1.4138762 l -1.621001,-1.62088 C 12.417222,1.2108297 11.908688,1 11.378318,1 Z m 1.9998867,0.9998681 h 4.9997167 v 2.4996704 c 0,0.2761036 -0.2238874,0.4999341 -0.4999717,0.4999341 H 5.499745 c -0.2761243,0 -0.4999716,-0.2238305 -0.4999716,-0.4999341 z m 9.1303416,4.9993408 c -0.478598,0 -0.957061,0.181676 -1.32219,0.5468029 L 7.9800733,12.375453 c -0.2815542,0.281563 -0.4815177,0.6351 -0.5780923,1.02135 l -0.3749787,1.497849 c -0.1628509,0.651314 0.4266607,1.240761 1.0780639,1.077983 l 1.4979619,-0.374951 c 0.3862781,-0.09659 0.7398429,-0.296486 1.0214269,-0.578049 l 4.827851,-4.827488 c 0.730259,-0.7303034 0.730259,-1.9158915 0,-2.6461352 C 15.087177,7.1808849 14.608713,6.9992089 14.130115,6.9992089 Z" />
</svg>
