<svg xmlns="http://www.w3.org/2000/svg" width="16" height="16" viewBox="0 0 16 16">
   <path
   style="fill:context-fill;fill-opacity:context-fill-opacity"
   d="M 4 2 L 3.7792969 2.0058594 C 1.6724669 2.1197794 -2.9605947e-16 3.86476 0 6 C 0 8.2089 1.7911 9.9980469 4 9.9980469 L 6 9.9980469 L 6.0898438 9.9902344 C 6.3230737 9.9479344 6.5 9.7454 6.5 9.5 C 6.5 9.2238 6.27611 9 6 9 L 4 9 L 3.8027344 8.9921875 C 2.2380044 8.8906875 1 7.59038 1 6 C 1 4.34335 2.34333 3 4 3 L 6 3 L 6.0898438 2.9921875 C 6.3230737 2.9498575 6.5 2.74543 6.5 2.5 C 6.5 2.22389 6.27611 2 6 2 L 4 2 z M 9.9980469 2 L 9.9082031 2.0078125 C 9.6750031 2.0501525 9.4980469 2.25457 9.4980469 2.5 C 9.4980469 2.7761 9.7219469 3 9.9980469 3 L 11.998047 3 L 12.195312 3.0058594 C 13.760013 3.1074194 14.998047 4.40962 14.998047 6 C 14.998047 6.04456 14.997994 6.0887225 14.996094 6.1328125 C 15.335294 6.2397825 15.657213 6.4104644 15.945312 6.6464844 C 15.979612 6.4357344 15.998047 6.22044 15.998047 6 C 15.998047 3.79114 14.206947 2 11.998047 2 L 9.9980469 2 z M 4 5.5 L 3.9101562 5.5078125 C 3.6769363 5.5501425 3.5 5.75457 3.5 6 C 3.5 6.2761 3.72389 6.5 4 6.5 L 11.998047 6.5 L 12.087891 6.4921875 C 12.321191 6.4498575 12.498047 6.24543 12.498047 6 C 12.498047 5.72389 12.274147 5.5 11.998047 5.5 L 4 5.5 z M 14.130859 7 C 13.652297 7 13.173694 7.18175 12.808594 7.546875 L 7.9785156 12.375 C 7.6969756 12.6565 7.4969606 13.010184 7.4003906 13.396484 L 7.0273438 14.894531 C 6.8645137 15.545831 7.4541087 16.135556 8.1054688 15.972656 L 9.6035156 15.597656 C 9.9898156 15.501056 10.341547 15.301031 10.623047 15.019531 L 15.453125 10.191406 C 16.183425 9.4611062 16.183425 8.277115 15.453125 7.546875 C 15.087975 7.18175 14.609422 7 14.130859 7 z " />
</svg>
