<svg xmlns="http://www.w3.org/2000/svg" width="16" height="16" viewBox="0 0 16 16">
   <path
   style="fill:context-fill;fill-opacity:context-fill-opacity"
   d="M 6.5,1 C 3.462434,1 1,3.4624339 1,6.5000004 1,9.5375664 3.462434,12 6.5,12 c 1.338853,0 2.563799,-0.480226 3.517578,-1.275391 l 4.128906,4.128907 a 0.5,0.5 0 0 0 0.707032,0 0.5,0.5 0 0 0 0,-0.707032 L 10.724609,10.017578 C 11.519774,9.0637994 12,7.8388524 12,6.5000004 12,3.4624339 9.537566,1 6.5,1 Z m 0,1 C 8.985281,2 11,4.0147186 11,6.5000004 11,8.9852814 8.985281,11 6.5,11 4.014719,11 2,8.9852814 2,6.5000004 2,4.0147186 4.014719,2 6.5,2 Z" />
</svg>
