<svg xmlns="http://www.w3.org/2000/svg" width="16" height="16" viewBox="0 0 16 16">
   <path
   style="fill:context-fill;fill-opacity:context-fill-opacity"
   d="M 6 0 C 4.89543 0 4 0.89543 4 2 L 4 2.5 C 4 2.77614 4.22386 3 4.5 3 C 4.77614 3 5 2.77614 5 2.5 L 5 2 C 5 1.44772 5.44772 1 6 1 L 6.5 1 C 6.77614 1 7 0.77614 7 0.5 C 7 0.22386 6.77614 0 6.5 0 L 6 0 z M 8.5 0 C 8.2239 0 8 0.22386 8 0.5 C 8 0.77614 8.2239 1 8.5 1 L 11.5 1 C 11.7761 1 12 0.77614 12 0.5 C 12 0.22386 11.7761 0 11.5 0 L 8.5 0 z M 13.5 0 C 13.2239 0 13 0.22386 13 0.5 C 13 0.77614 13.2239 1 13.5 1 L 14 1 C 14.5523 1 15 1.44772 15 2 L 15 2.5 C 15 2.77614 15.2239 3 15.5 3 C 15.7761 3 16 2.77614 16 2.5 L 16 2 C 16 0.89543 15.1046 0 14 0 L 13.5 0 z M 2 4 C 0.89543 4 0 4.89543 0 6 L 0 12.5 C 0 14.433 1.567 16 3.5 16 L 10 16 C 11.1046 16 12 15.1046 12 14 L 12 13 L 11 13 L 11 14 C 11 14.5523 10.5523 15 10 15 L 3.5 15 C 2.11929 15 1 13.8807 1 12.5 L 1 6 C 1 5.44772 1.44772 5 2 5 L 3 5 L 3 4 L 2 4 z M 4.5 4 C 4.22386 4 4 4.22386 4 4.5 L 4 7.5 C 4 7.77614 4.22386 8 4.5 8 C 4.77614 8 5 7.77614 5 7.5 L 5 4.5 C 5 4.22386 4.77614 4 4.5 4 z M 15.5 4 C 15.2239 4 15 4.22386 15 4.5 L 15 7.5 C 15 7.77614 15.2239 8 15.5 8 C 15.7761 8 16 7.77614 16 7.5 L 16 4.5 C 16 4.22386 15.7761 4 15.5 4 z M 4.5 9 C 4.22386 9 4 9.2239 4 9.5 L 4 10 C 4 11.1046 4.89543 12 6 12 L 6.5 12 C 6.77614 12 7 11.7761 7 11.5 C 7 11.2239 6.77614 11 6.5 11 L 6 11 C 5.44772 11 5 10.5523 5 10 L 5 9.5 C 5 9.2239 4.77614 9 4.5 9 z M 15.5 9 C 15.2239 9 15 9.2239 15 9.5 L 15 10 C 15 10.5523 14.5523 11 14 11 L 13.5 11 C 13.2239 11 13 11.2239 13 11.5 C 13 11.7761 13.2239 12 13.5 12 L 14 12 C 15.1046 12 16 11.1046 16 10 L 16 9.5 C 16 9.2239 15.7761 9 15.5 9 z M 8.5 11 C 8.2239 11 8 11.2239 8 11.5 C 8 11.7761 8.2239 12 8.5 12 L 11.5 12 C 11.7761 12 12 11.7761 12 11.5 C 12 11.2239 11.7761 11 11.5 11 L 8.5 11 z " />
</svg>
