<svg xmlns="http://www.w3.org/2000/svg" width="16" height="16" viewBox="0 0 16 16">
   <path
   style="fill:context-fill;fill-opacity:context-fill-opacity"
   d="M 2.5 1 C 1.67157 1 1 1.67157 1 2.5 L 1 4 L 2 4 L 2 2.5 C 2 2.22386 2.22386 2 2.5 2 L 13.5 2 C 13.7761 2 14 2.22386 14 2.5 L 14 9.5 C 14 9.7761 13.7761 10 13.5 10 L 8 10 L 8 11 L 13.5 11 C 14.3284 11 15 10.3284 15 9.5 L 15 2.5 C 15 1.67157 14.3284 1 13.5 1 L 2.5 1 z M 1.5 5 C 0.67157 5 0 5.67157 0 6.5 L 0 14.5 C 0 15.3284 0.67157 16 1.5 16 L 5.5 16 C 6.32843 16 7 15.3284 7 14.5 L 7 6.5 C 7 5.67157 6.32843 5 5.5 5 L 1.5 5 z M 1.5 6 L 5.5 6 C 5.77614 6 6 6.22386 6 6.5 L 6 14.5 C 6 14.7761 5.77614 15 5.5 15 L 1.5 15 C 1.22386 15 1 14.7761 1 14.5 L 1 6.5 C 1 6.22386 1.22386 6 1.5 6 z M 8 12 L 8 13 L 15.5 13 C 15.7761 13 16 12.7761 16 12.5 C 16 12.2239 15.7761 12 15.5 12 L 8 12 z M 3 13 C 2.72386 13 2.5 13.2239 2.5 13.5 C 2.5 13.7761 2.72386 14 3 14 L 4 14 C 4.27614 14 4.5 13.7761 4.5 13.5 C 4.5 13.2239 4.27614 13 4 13 L 3 13 z " />
</svg>
