<svg xmlns="http://www.w3.org/2000/svg" width="16" height="16" viewBox="0 0 16 16">
   <path
   style="fill:context-fill;fill-opacity:context-fill-opacity"
   d="M 4 4 C 1.79086 4 0 5.79086 0 8 C 0 10.2091 1.79086 12 4 12 L 12 12 C 14.2091 12 16 10.2091 16 8 C 16 5.79086 14.2091 4 12 4 L 4 4 z M 4 5 L 12 5 C 13.6569 5 15 6.34315 15 8 C 15 9.6569 13.6569 11 12 11 L 4 11 C 2.34315 11 1 9.6569 1 8 C 1 6.34315 2.34315 5 4 5 z M 4 6 C 2.89543 6 2 6.89543 2 8 C 2 9.1046 2.89543 10 4 10 C 5.10457 10 6 9.1046 6 8 C 6 6.89543 5.10457 6 4 6 z " />
</svg>
