<svg xmlns="http://www.w3.org/2000/svg" width="16" height="16" viewBox="0 0 16 16">
   <path
   style="fill:context-fill;fill-opacity:context-fill-opacity"
     d="m 10.484599,1.0002698 c -0.194751,0.00642 -0.376806,0.1270027 -0.451213,0.3203003 L 5.0329327,14.320074 c -0.099139,0.25779 0.029382,0.547364 0.2871356,0.64646 0.2577633,0.0991 0.5474038,-0.02931 0.6465429,-0.287098 L 10.967065,1.6799314 C 11.066174,1.4222112 10.937652,1.1325979 10.67993,1.0334717 10.615499,1.0086901 10.549516,0.99812849 10.484599,1.0002698 Z M 3.4605248,4.0021083 C 3.3329282,4.011918 3.2105134,4.0691458 3.1206503,4.1739768 L 0.12037841,7.6738432 c -0.16050455,0.1872329 -0.16050455,0.4651261 0,0.6523189 L 3.1206503,11.826029 c 0.1797263,0.209692 0.4954529,0.232425 0.7051419,0.05273 0.209679,-0.179793 0.2324654,-0.495359 0.052739,-0.705051 L 1.1575817,8.0000027 3.8785314,4.8262957 C 4.0582576,4.6166337 4.0354712,4.3009476 3.8257922,4.1212445 3.7209477,4.0313928 3.5881213,3.9922937 3.4605248,4.0021083 Z m 9.0789472,0.499981 c -0.127586,-0.00982 -0.260408,0.029285 -0.365267,0.1191361 -0.209719,0.1797132 -0.232455,0.4953992 -0.05274,0.7050512 l 2.720951,3.173707 -2.72095,3.1737074 c -0.179717,0.209692 -0.156981,0.525358 0.05274,0.705051 0.209718,0.179793 0.525425,0.15696 0.705142,-0.05273 L 15.87962,8.8261471 c 0.160514,-0.1871929 0.160514,-0.4650261 0,-0.652319 L 12.879348,4.6739617 C 12.789488,4.5691307 12.66706,4.5119079 12.539473,4.5020933 Z" />
</svg>
