<svg xmlns="http://www.w3.org/2000/svg" width="16" height="16" viewBox="0 0 16 16">
   <path
   style="fill:context-fill;fill-opacity:context-fill-opacity"
   d="M 8.0058594,3.0000019 C 4.4540075,2.9976441 1.2703388,5.2176235 0.03125,8.5449238 A 0.499998,0.499998 0 0 0 0.32617188,9.189455 0.499998,0.499998 0 0 0 0.96875,8.8945331 C 1.0698662,8.6230078 1.2008101,8.3692364 1.3300781,8.1152363 L 3.2578125,9.1875019 A 0.5,0.5 0 0 0 3.9375,8.9921894 0.5,0.5 0 0 0 3.7421875,8.3125019 L 1.84375,7.2578144 C 3.1296847,5.3950487 5.1974461,4.1945295 7.5,4.0390644 v 2.4609375 a 0.5,0.5 0 0 0 0.5,0.5 0.5,0.5 0 0 0 0.5,-0.5 V 4.0390644 c 0.6208672,0.042159 1.2296188,0.1394912 1.806641,0.3261719 l 0.65039,-0.8066406 a 1.50015,1.50015 0 0 1 0.002,-0.00195 C 10.028688,3.2091363 9.0377499,3.0006869 8.0058594,3.0000019 Z m 4.1171876,1 A 0.50004949,0.50004949 0 0 0 11.736328,4.1855488 L 6.5507812,10.625002 C 6.0676944,11.22488 5.8269611,12.072527 6.1875,12.845705 6.5421098,13.606168 7.3379434,14.065319 8.1738281,13.99219 9.0177853,13.918352 9.6656715,13.304028 9.921875,12.54883 L 12.597656,4.6601581 A 0.50004949,0.50004949 0 0 0 12.123047,4.0000019 Z m 1.394531,1.0644531 -0.34375,1.0097657 c 0.370397,0.3533006 0.701918,0.7493863 0.996094,1.1757812 l -1.91211,1.0625 A 0.5,0.5 0 0 0 12.0625,8.9921894 0.5,0.5 0 0 0 12.742188,9.1875019 l 1.943359,-1.0800781 c 0.128899,0.2537842 0.244975,0.5155239 0.345703,0.7871093 A 0.499998,0.499998 0 0 0 15.673828,9.189455 0.499998,0.499998 0 0 0 15.96875,8.5468769 C 15.454809,7.1611781 14.591563,5.9849988 13.517578,5.064455 Z M 10.746094,7.0097675 8.9746094,12.228518 C 8.8256297,12.667658 8.5003296,12.960012 8.0878906,12.996096 7.6673792,13.032886 7.2721446,12.804446 7.09375,12.421877 6.9212845,12.052023 7.020173,11.636311 7.328125,11.253908 Z" />
</svg>
