<svg xmlns="http://www.w3.org/2000/svg" width="16" height="16" viewBox="0 0 16 16">
   <path
   style="fill:context-fill;fill-opacity:context-fill-opacity"
   d="M 1.5 0 C 1.22386 0 1 0.22386 1 0.5 L 1 5.4003906 C 1 5.7317606 1.2682394 6 1.5996094 6 L 6.5 6 C 6.77614 6 7 5.77614 7 5.5 C 7 5.22386 6.77614 5 6.5 5 L 2.90625 5 L 6.3789062 1.9804688 C 8.0461862 0.53113875 10.572184 0.70774 12.021484 2.375 C 13.470784 4.04226 13.294253 6.5702213 11.626953 8.0195312 L 3.4550781 15.123047 C 3.2466681 15.304247 3.22509 15.619725 3.40625 15.828125 C 3.58742 16.036525 3.9029181 16.058053 4.1113281 15.876953 L 12.283203 8.7734375 C 14.367203 6.9618075 14.589044 3.8047731 12.777344 1.7207031 C 10.965644 -0.36336688 7.8066962 -0.5850975 5.7226562 1.2265625 L 2 4.4628906 L 2 0.5 C 2 0.22386 1.77614 0 1.5 0 z " />
</svg>
