<svg xmlns="http://www.w3.org/2000/svg" width="16" height="16" viewBox="0 0 16 16">
   <path
   style="fill:context-fill;fill-opacity:context-fill-opacity"
   d="M 2 0 C 0.89543 0 0 0.89543 0 2 L 0 14 C 0 15.1046 0.89543 16 2 16 L 14 16 C 15.1046 16 16 15.1046 16 14 L 16 2 C 16 0.89543 15.1046 0 14 0 L 2 0 z M 2 1 L 14 1 C 14.5523 1 15 1.44772 15 2 L 15 14 C 15 14.5523 14.5523 15 14 15 L 2 15 C 1.44772 15 1 14.5523 1 14 L 1 2 C 1 1.44772 1.44772 1 2 1 z M 3.5 2 C 2.67157 2 2 2.67157 2 3.5 L 2 5.5 C 2 5.77614 2.22386 6 2.5 6 C 2.77614 6 3 5.77614 3 5.5 L 3 3.5 C 3 3.22386 3.22386 3 3.5 3 L 5.5 3 C 5.77614 3 6 2.77614 6 2.5 C 6 2.22386 5.77614 2 5.5 2 L 3.5 2 z M 10.5 2 C 10.2239 2 10 2.22386 10 2.5 C 10 2.77614 10.2239 3 10.5 3 L 12.5 3 C 12.7761 3 13 3.22386 13 3.5 L 13 5.5 C 13 5.77614 13.2239 6 13.5 6 C 13.7761 6 14 5.77614 14 5.5 L 14 3.5 C 14 2.67157 13.3284 2 12.5 2 L 10.5 2 z M 6.5136719 4.9257812 C 6.4259544 4.9234575 6.3373175 4.9442313 6.2578125 4.9882812 C 6.0988025 5.076391 6 5.2439913 6 5.4257812 L 6 10.574219 C 6 10.758319 6.1014819 10.928425 6.2636719 11.015625 C 6.4258719 11.102725 6.6218806 11.093787 6.7753906 10.992188 L 10.775391 8.34375 C 10.917191 8.24985 11.0022 8.0899419 11 7.9199219 C 10.9978 7.7498919 10.909825 7.5921131 10.765625 7.5019531 L 6.765625 5.0019531 C 6.68856 4.9537581 6.6013894 4.928105 6.5136719 4.9257812 z M 2.5 10 C 2.22386 10 2 10.2239 2 10.5 L 2 12.5 C 2 13.3284 2.67157 14 3.5 14 L 5.5 14 C 5.77614 14 6 13.7761 6 13.5 C 6 13.2239 5.77614 13 5.5 13 L 3.5 13 C 3.22386 13 3 12.7761 3 12.5 L 3 10.5 C 3 10.2239 2.77614 10 2.5 10 z M 13.5 10 C 13.2239 10 13 10.2239 13 10.5 L 13 12.5 C 13 12.7761 12.7761 13 12.5 13 L 10.5 13 C 10.2239 13 10 13.2239 10 13.5 C 10 13.7761 10.2239 14 10.5 14 L 12.5 14 C 13.3284 14 14 13.3284 14 12.5 L 14 10.5 C 14 10.2239 13.7761 10 13.5 10 z " />
</svg>
