<svg xmlns="http://www.w3.org/2000/svg" width="16" height="16" viewBox="0 0 16 16">
   <path
   style="fill:context-fill;fill-opacity:context-fill-opacity"
   d="M 2.5 1 C 1.11929 1 0 2.11929 0 3.5 L 0 12.5 C 0 13.8807 1.11929 15 2.5 15 L 13.5 15 C 14.8807 15 16 13.8807 16 12.5 L 16 3.5 C 16 2.11929 14.8807 1 13.5 1 L 2.5 1 z M 2.5 2 L 13.5 2 C 14.3284 2 15 2.67157 15 3.5 L 15 12.5 C 15 13.3284 14.3284 14 13.5 14 L 2.5 14 C 1.67157 14 1 13.3284 1 12.5 L 1 3.5 C 1 2.67157 1.67157 2 2.5 2 z M 6.5136719 5 C 6.4259544 4.9976762 6.3373175 5.01845 6.2578125 5.0625 C 6.0988025 5.15061 6 5.31821 6 5.5 L 6 10.650391 C 6 10.834491 6.1014819 11.002644 6.2636719 11.089844 C 6.4258719 11.176944 6.6218806 11.168006 6.7753906 11.066406 L 10.775391 8.4179688 C 10.917191 8.3240688 11.0022 8.1641606 11 7.9941406 C 10.9978 7.8241106 10.909825 7.668285 10.765625 7.578125 L 6.765625 5.0761719 C 6.68856 5.0279769 6.6013894 5.0023238 6.5136719 5 z " />
</svg>
